<?xml version="1.0" encoding="utf-8"?>
<svg xmlns="http://www.w3.org/2000/svg" xmlns:xlink="http://www.w3.org/1999/xlink" width="600" height="400" viewBox="0 0 2400 1600">
<defs>
  <clipPath id="clip530">
    <rect x="0" y="0" width="2400" height="1600"/>
  </clipPath>
</defs>
<path clip-path="url(#clip530)" d="M0 1600 L2400 1600 L2400 0 L0 0  Z" fill="#ffffff" fill-rule="evenodd" fill-opacity="1"/>
<defs>
  <clipPath id="clip531">
    <rect x="1454" y="847" width="900" height="577"/>
  </clipPath>
</defs>
<path clip-path="url(#clip530)" d="M219.033 1423.18 L1117.71 1423.18 L1117.71 47.2441 L219.033 47.2441  Z" fill="#ffffff" fill-rule="evenodd" fill-opacity="1"/>
<defs>
  <clipPath id="clip532">
    <rect x="219" y="47" width="900" height="1377"/>
  </clipPath>
</defs>
<polyline clip-path="url(#clip532)" style="stroke:#000000; stroke-linecap:round; stroke-linejoin:round; stroke-width:2; stroke-opacity:0.1; fill:none" points="244.467,1423.18 244.467,47.2441 "/>
<polyline clip-path="url(#clip532)" style="stroke:#000000; stroke-linecap:round; stroke-linejoin:round; stroke-width:2; stroke-opacity:0.1; fill:none" points="414.029,1423.18 414.029,47.2441 "/>
<polyline clip-path="url(#clip532)" style="stroke:#000000; stroke-linecap:round; stroke-linejoin:round; stroke-width:2; stroke-opacity:0.1; fill:none" points="583.592,1423.18 583.592,47.2441 "/>
<polyline clip-path="url(#clip532)" style="stroke:#000000; stroke-linecap:round; stroke-linejoin:round; stroke-width:2; stroke-opacity:0.1; fill:none" points="753.154,1423.18 753.154,47.2441 "/>
<polyline clip-path="url(#clip532)" style="stroke:#000000; stroke-linecap:round; stroke-linejoin:round; stroke-width:2; stroke-opacity:0.1; fill:none" points="922.716,1423.18 922.716,47.2441 "/>
<polyline clip-path="url(#clip532)" style="stroke:#000000; stroke-linecap:round; stroke-linejoin:round; stroke-width:2; stroke-opacity:0.1; fill:none" points="1092.28,1423.18 1092.28,47.2441 "/>
<polyline clip-path="url(#clip532)" style="stroke:#000000; stroke-linecap:round; stroke-linejoin:round; stroke-width:2; stroke-opacity:0.1; fill:none" points="219.033,1332.08 1117.71,1332.08 "/>
<polyline clip-path="url(#clip532)" style="stroke:#000000; stroke-linecap:round; stroke-linejoin:round; stroke-width:2; stroke-opacity:0.1; fill:none" points="219.033,1042.25 1117.71,1042.25 "/>
<polyline clip-path="url(#clip532)" style="stroke:#000000; stroke-linecap:round; stroke-linejoin:round; stroke-width:2; stroke-opacity:0.1; fill:none" points="219.033,752.428 1117.71,752.428 "/>
<polyline clip-path="url(#clip532)" style="stroke:#000000; stroke-linecap:round; stroke-linejoin:round; stroke-width:2; stroke-opacity:0.1; fill:none" points="219.033,462.603 1117.71,462.603 "/>
<polyline clip-path="url(#clip532)" style="stroke:#000000; stroke-linecap:round; stroke-linejoin:round; stroke-width:2; stroke-opacity:0.1; fill:none" points="219.033,172.779 1117.71,172.779 "/>
<polyline clip-path="url(#clip530)" style="stroke:#000000; stroke-linecap:round; stroke-linejoin:round; stroke-width:4; stroke-opacity:1; fill:none" points="219.033,1423.18 1117.71,1423.18 "/>
<polyline clip-path="url(#clip530)" style="stroke:#000000; stroke-linecap:round; stroke-linejoin:round; stroke-width:4; stroke-opacity:1; fill:none" points="244.467,1423.18 244.467,1404.28 "/>
<polyline clip-path="url(#clip530)" style="stroke:#000000; stroke-linecap:round; stroke-linejoin:round; stroke-width:4; stroke-opacity:1; fill:none" points="414.029,1423.18 414.029,1404.28 "/>
<polyline clip-path="url(#clip530)" style="stroke:#000000; stroke-linecap:round; stroke-linejoin:round; stroke-width:4; stroke-opacity:1; fill:none" points="583.592,1423.18 583.592,1404.28 "/>
<polyline clip-path="url(#clip530)" style="stroke:#000000; stroke-linecap:round; stroke-linejoin:round; stroke-width:4; stroke-opacity:1; fill:none" points="753.154,1423.18 753.154,1404.28 "/>
<polyline clip-path="url(#clip530)" style="stroke:#000000; stroke-linecap:round; stroke-linejoin:round; stroke-width:4; stroke-opacity:1; fill:none" points="922.716,1423.18 922.716,1404.28 "/>
<polyline clip-path="url(#clip530)" style="stroke:#000000; stroke-linecap:round; stroke-linejoin:round; stroke-width:4; stroke-opacity:1; fill:none" points="1092.28,1423.18 1092.28,1404.28 "/>
<path clip-path="url(#clip530)" d="M244.467 1454.1 Q240.856 1454.1 239.027 1457.66 Q237.222 1461.2 237.222 1468.33 Q237.222 1475.44 239.027 1479.01 Q240.856 1482.55 244.467 1482.55 Q248.102 1482.55 249.907 1479.01 Q251.736 1475.44 251.736 1468.33 Q251.736 1461.2 249.907 1457.66 Q248.102 1454.1 244.467 1454.1 M244.467 1450.39 Q250.277 1450.39 253.333 1455 Q256.412 1459.58 256.412 1468.33 Q256.412 1477.06 253.333 1481.67 Q250.277 1486.25 244.467 1486.25 Q238.657 1486.25 235.578 1481.67 Q232.523 1477.06 232.523 1468.33 Q232.523 1459.58 235.578 1455 Q238.657 1450.39 244.467 1450.39 Z" fill="#000000" fill-rule="nonzero" fill-opacity="1" /><path clip-path="url(#clip530)" d="M404.411 1481.64 L412.05 1481.64 L412.05 1455.28 L403.74 1456.95 L403.74 1452.69 L412.004 1451.02 L416.68 1451.02 L416.68 1481.64 L424.319 1481.64 L424.319 1485.58 L404.411 1485.58 L404.411 1481.64 Z" fill="#000000" fill-rule="nonzero" fill-opacity="1" /><path clip-path="url(#clip530)" d="M578.245 1481.64 L594.564 1481.64 L594.564 1485.58 L572.62 1485.58 L572.62 1481.64 Q575.282 1478.89 579.865 1474.26 Q584.471 1469.61 585.652 1468.27 Q587.897 1465.74 588.777 1464.01 Q589.68 1462.25 589.68 1460.56 Q589.68 1457.8 587.735 1456.07 Q585.814 1454.33 582.712 1454.33 Q580.513 1454.33 578.059 1455.09 Q575.629 1455.86 572.851 1457.41 L572.851 1452.69 Q575.675 1451.55 578.129 1450.97 Q580.582 1450.39 582.619 1450.39 Q587.99 1450.39 591.184 1453.08 Q594.379 1455.77 594.379 1460.26 Q594.379 1462.39 593.569 1464.31 Q592.781 1466.2 590.675 1468.8 Q590.096 1469.47 586.994 1472.69 Q583.893 1475.88 578.245 1481.64 Z" fill="#000000" fill-rule="nonzero" fill-opacity="1" /><path clip-path="url(#clip530)" d="M757.402 1466.95 Q760.758 1467.66 762.633 1469.93 Q764.531 1472.2 764.531 1475.53 Q764.531 1480.65 761.013 1483.45 Q757.494 1486.25 751.013 1486.25 Q748.837 1486.25 746.522 1485.81 Q744.23 1485.39 741.777 1484.54 L741.777 1480.02 Q743.721 1481.16 746.036 1481.74 Q748.351 1482.32 750.874 1482.32 Q755.272 1482.32 757.564 1480.58 Q759.878 1478.84 759.878 1475.53 Q759.878 1472.48 757.726 1470.77 Q755.596 1469.03 751.777 1469.03 L747.749 1469.03 L747.749 1465.19 L751.962 1465.19 Q755.411 1465.19 757.24 1463.82 Q759.068 1462.43 759.068 1459.84 Q759.068 1457.18 757.17 1455.77 Q755.295 1454.33 751.777 1454.33 Q749.855 1454.33 747.656 1454.75 Q745.457 1455.16 742.818 1456.04 L742.818 1451.88 Q745.48 1451.14 747.795 1450.77 Q750.133 1450.39 752.193 1450.39 Q757.517 1450.39 760.619 1452.83 Q763.721 1455.23 763.721 1459.35 Q763.721 1462.22 762.077 1464.21 Q760.434 1466.18 757.402 1466.95 Z" fill="#000000" fill-rule="nonzero" fill-opacity="1" /><path clip-path="url(#clip530)" d="M925.725 1455.09 L913.92 1473.54 L925.725 1473.54 L925.725 1455.09 M924.499 1451.02 L930.378 1451.02 L930.378 1473.54 L935.309 1473.54 L935.309 1477.43 L930.378 1477.43 L930.378 1485.58 L925.725 1485.58 L925.725 1477.43 L910.124 1477.43 L910.124 1472.92 L924.499 1451.02 Z" fill="#000000" fill-rule="nonzero" fill-opacity="1" /><path clip-path="url(#clip530)" d="M1082.56 1451.02 L1100.91 1451.02 L1100.91 1454.96 L1086.84 1454.96 L1086.84 1463.43 Q1087.86 1463.08 1088.88 1462.92 Q1089.89 1462.73 1090.91 1462.73 Q1096.7 1462.73 1100.08 1465.9 Q1103.46 1469.08 1103.46 1474.49 Q1103.46 1480.07 1099.99 1483.17 Q1096.51 1486.25 1090.2 1486.25 Q1088.02 1486.25 1085.75 1485.88 Q1083.51 1485.51 1081.1 1484.77 L1081.1 1480.07 Q1083.18 1481.2 1085.4 1481.76 Q1087.63 1482.32 1090.1 1482.32 Q1094.11 1482.32 1096.45 1480.21 Q1098.78 1478.1 1098.78 1474.49 Q1098.78 1470.88 1096.45 1468.77 Q1094.11 1466.67 1090.1 1466.67 Q1088.23 1466.67 1086.35 1467.08 Q1084.5 1467.5 1082.56 1468.38 L1082.56 1451.02 Z" fill="#000000" fill-rule="nonzero" fill-opacity="1" /><path clip-path="url(#clip530)" d="M667.434 1522.27 L667.434 1532.4 L679.497 1532.4 L679.497 1536.95 L667.434 1536.95 L667.434 1556.3 Q667.434 1560.66 668.612 1561.9 Q669.821 1563.14 673.481 1563.14 L679.497 1563.14 L679.497 1568.04 L673.481 1568.04 Q666.702 1568.04 664.124 1565.53 Q661.546 1562.98 661.546 1556.3 L661.546 1536.95 L657.249 1536.95 L657.249 1532.4 L661.546 1532.4 L661.546 1522.27 L667.434 1522.27 Z" fill="#000000" fill-rule="nonzero" fill-opacity="1" /><polyline clip-path="url(#clip530)" style="stroke:#000000; stroke-linecap:round; stroke-linejoin:round; stroke-width:4; stroke-opacity:1; fill:none" points="219.033,1423.18 219.033,47.2441 "/>
<polyline clip-path="url(#clip530)" style="stroke:#000000; stroke-linecap:round; stroke-linejoin:round; stroke-width:4; stroke-opacity:1; fill:none" points="219.033,1332.08 237.931,1332.08 "/>
<polyline clip-path="url(#clip530)" style="stroke:#000000; stroke-linecap:round; stroke-linejoin:round; stroke-width:4; stroke-opacity:1; fill:none" points="219.033,1042.25 237.931,1042.25 "/>
<polyline clip-path="url(#clip530)" style="stroke:#000000; stroke-linecap:round; stroke-linejoin:round; stroke-width:4; stroke-opacity:1; fill:none" points="219.033,752.428 237.931,752.428 "/>
<polyline clip-path="url(#clip530)" style="stroke:#000000; stroke-linecap:round; stroke-linejoin:round; stroke-width:4; stroke-opacity:1; fill:none" points="219.033,462.603 237.931,462.603 "/>
<polyline clip-path="url(#clip530)" style="stroke:#000000; stroke-linecap:round; stroke-linejoin:round; stroke-width:4; stroke-opacity:1; fill:none" points="219.033,172.779 237.931,172.779 "/>
<path clip-path="url(#clip530)" d="M116.668 1345.42 L124.306 1345.42 L124.306 1319.06 L115.996 1320.72 L115.996 1316.46 L124.26 1314.8 L128.936 1314.8 L128.936 1345.42 L136.575 1345.42 L136.575 1349.36 L116.668 1349.36 L116.668 1345.42 Z" fill="#000000" fill-rule="nonzero" fill-opacity="1" /><path clip-path="url(#clip530)" d="M146.019 1343.48 L150.903 1343.48 L150.903 1349.36 L146.019 1349.36 L146.019 1343.48 Z" fill="#000000" fill-rule="nonzero" fill-opacity="1" /><path clip-path="url(#clip530)" d="M171.089 1317.88 Q167.477 1317.88 165.649 1321.44 Q163.843 1324.98 163.843 1332.11 Q163.843 1339.22 165.649 1342.78 Q167.477 1346.32 171.089 1346.32 Q174.723 1346.32 176.528 1342.78 Q178.357 1339.22 178.357 1332.11 Q178.357 1324.98 176.528 1321.44 Q174.723 1317.88 171.089 1317.88 M171.089 1314.17 Q176.899 1314.17 179.954 1318.78 Q183.033 1323.36 183.033 1332.11 Q183.033 1340.84 179.954 1345.44 Q176.899 1350.03 171.089 1350.03 Q165.278 1350.03 162.2 1345.44 Q159.144 1340.84 159.144 1332.11 Q159.144 1323.36 162.2 1318.78 Q165.278 1314.17 171.089 1314.17 Z" fill="#000000" fill-rule="nonzero" fill-opacity="1" /><path clip-path="url(#clip530)" d="M117.663 1055.6 L125.302 1055.6 L125.302 1029.23 L116.992 1030.9 L116.992 1026.64 L125.255 1024.97 L129.931 1024.97 L129.931 1055.6 L137.57 1055.6 L137.57 1059.53 L117.663 1059.53 L117.663 1055.6 Z" fill="#000000" fill-rule="nonzero" fill-opacity="1" /><path clip-path="url(#clip530)" d="M147.015 1053.65 L151.899 1053.65 L151.899 1059.53 L147.015 1059.53 L147.015 1053.65 Z" fill="#000000" fill-rule="nonzero" fill-opacity="1" /><path clip-path="url(#clip530)" d="M162.13 1024.97 L180.487 1024.97 L180.487 1028.91 L166.413 1028.91 L166.413 1037.38 Q167.431 1037.03 168.45 1036.87 Q169.468 1036.69 170.487 1036.69 Q176.274 1036.69 179.653 1039.86 Q183.033 1043.03 183.033 1048.44 Q183.033 1054.02 179.561 1057.12 Q176.089 1060.2 169.769 1060.2 Q167.593 1060.2 165.325 1059.83 Q163.079 1059.46 160.672 1058.72 L160.672 1054.02 Q162.755 1055.16 164.977 1055.71 Q167.2 1056.27 169.677 1056.27 Q173.681 1056.27 176.019 1054.16 Q178.357 1052.06 178.357 1048.44 Q178.357 1044.83 176.019 1042.73 Q173.681 1040.62 169.677 1040.62 Q167.802 1040.62 165.927 1041.04 Q164.075 1041.45 162.13 1042.33 L162.13 1024.97 Z" fill="#000000" fill-rule="nonzero" fill-opacity="1" /><path clip-path="url(#clip530)" d="M119.885 765.773 L136.204 765.773 L136.204 769.708 L114.26 769.708 L114.26 765.773 Q116.922 763.018 121.505 758.388 Q126.112 753.736 127.292 752.393 Q129.538 749.87 130.417 748.134 Q131.32 746.375 131.32 744.685 Q131.32 741.93 129.376 740.194 Q127.455 738.458 124.353 738.458 Q122.154 738.458 119.7 739.222 Q117.269 739.986 114.492 741.537 L114.492 736.814 Q117.316 735.68 119.769 735.101 Q122.223 734.523 124.26 734.523 Q129.63 734.523 132.825 737.208 Q136.019 739.893 136.019 744.384 Q136.019 746.513 135.209 748.435 Q134.422 750.333 132.316 752.925 Q131.737 753.597 128.635 756.814 Q125.533 760.009 119.885 765.773 Z" fill="#000000" fill-rule="nonzero" fill-opacity="1" /><path clip-path="url(#clip530)" d="M146.019 763.828 L150.903 763.828 L150.903 769.708 L146.019 769.708 L146.019 763.828 Z" fill="#000000" fill-rule="nonzero" fill-opacity="1" /><path clip-path="url(#clip530)" d="M171.089 738.226 Q167.477 738.226 165.649 741.791 Q163.843 745.333 163.843 752.462 Q163.843 759.569 165.649 763.134 Q167.477 766.675 171.089 766.675 Q174.723 766.675 176.528 763.134 Q178.357 759.569 178.357 752.462 Q178.357 745.333 176.528 741.791 Q174.723 738.226 171.089 738.226 M171.089 734.523 Q176.899 734.523 179.954 739.129 Q183.033 743.713 183.033 752.462 Q183.033 761.189 179.954 765.796 Q176.899 770.379 171.089 770.379 Q165.278 770.379 162.2 765.796 Q159.144 761.189 159.144 752.462 Q159.144 743.713 162.2 739.129 Q165.278 734.523 171.089 734.523 Z" fill="#000000" fill-rule="nonzero" fill-opacity="1" /><path clip-path="url(#clip530)" d="M120.88 475.948 L137.2 475.948 L137.2 479.883 L115.256 479.883 L115.256 475.948 Q117.918 473.194 122.501 468.564 Q127.107 463.911 128.288 462.569 Q130.533 460.046 131.413 458.309 Q132.316 456.55 132.316 454.86 Q132.316 452.106 130.371 450.37 Q128.45 448.634 125.348 448.634 Q123.149 448.634 120.695 449.397 Q118.265 450.161 115.487 451.712 L115.487 446.99 Q118.311 445.856 120.765 445.277 Q123.218 444.698 125.255 444.698 Q130.626 444.698 133.82 447.384 Q137.015 450.069 137.015 454.559 Q137.015 456.689 136.204 458.61 Q135.417 460.509 133.311 463.101 Q132.732 463.772 129.63 466.99 Q126.529 470.184 120.88 475.948 Z" fill="#000000" fill-rule="nonzero" fill-opacity="1" /><path clip-path="url(#clip530)" d="M147.015 474.004 L151.899 474.004 L151.899 479.883 L147.015 479.883 L147.015 474.004 Z" fill="#000000" fill-rule="nonzero" fill-opacity="1" /><path clip-path="url(#clip530)" d="M162.13 445.323 L180.487 445.323 L180.487 449.259 L166.413 449.259 L166.413 457.731 Q167.431 457.384 168.45 457.221 Q169.468 457.036 170.487 457.036 Q176.274 457.036 179.653 460.208 Q183.033 463.379 183.033 468.795 Q183.033 474.374 179.561 477.476 Q176.089 480.555 169.769 480.555 Q167.593 480.555 165.325 480.184 Q163.079 479.814 160.672 479.073 L160.672 474.374 Q162.755 475.508 164.977 476.064 Q167.2 476.62 169.677 476.62 Q173.681 476.62 176.019 474.513 Q178.357 472.407 178.357 468.795 Q178.357 465.184 176.019 463.078 Q173.681 460.971 169.677 460.971 Q167.802 460.971 165.927 461.388 Q164.075 461.805 162.13 462.684 L162.13 445.323 Z" fill="#000000" fill-rule="nonzero" fill-opacity="1" /><path clip-path="url(#clip530)" d="M130.024 171.425 Q133.38 172.142 135.255 174.411 Q137.154 176.679 137.154 180.013 Q137.154 185.129 133.635 187.929 Q130.117 190.73 123.635 190.73 Q121.459 190.73 119.144 190.291 Q116.853 189.874 114.399 189.017 L114.399 184.504 Q116.343 185.638 118.658 186.216 Q120.973 186.795 123.496 186.795 Q127.894 186.795 130.186 185.059 Q132.501 183.323 132.501 180.013 Q132.501 176.957 130.348 175.244 Q128.218 173.508 124.399 173.508 L120.371 173.508 L120.371 169.666 L124.584 169.666 Q128.033 169.666 129.862 168.3 Q131.691 166.911 131.691 164.318 Q131.691 161.656 129.792 160.244 Q127.917 158.809 124.399 158.809 Q122.478 158.809 120.279 159.226 Q118.08 159.643 115.441 160.522 L115.441 156.356 Q118.103 155.615 120.418 155.244 Q122.755 154.874 124.816 154.874 Q130.14 154.874 133.242 157.305 Q136.343 159.712 136.343 163.832 Q136.343 166.703 134.7 168.693 Q133.056 170.661 130.024 171.425 Z" fill="#000000" fill-rule="nonzero" fill-opacity="1" /><path clip-path="url(#clip530)" d="M146.019 184.179 L150.903 184.179 L150.903 190.059 L146.019 190.059 L146.019 184.179 Z" fill="#000000" fill-rule="nonzero" fill-opacity="1" /><path clip-path="url(#clip530)" d="M171.089 158.578 Q167.477 158.578 165.649 162.143 Q163.843 165.684 163.843 172.814 Q163.843 179.92 165.649 183.485 Q167.477 187.027 171.089 187.027 Q174.723 187.027 176.528 183.485 Q178.357 179.92 178.357 172.814 Q178.357 165.684 176.528 162.143 Q174.723 158.578 171.089 158.578 M171.089 154.874 Q176.899 154.874 179.954 159.481 Q183.033 164.064 183.033 172.814 Q183.033 181.541 179.954 186.147 Q176.899 190.73 171.089 190.73 Q165.278 190.73 162.2 186.147 Q159.144 181.541 159.144 172.814 Q159.144 164.064 162.2 159.481 Q165.278 154.874 171.089 154.874 Z" fill="#000000" fill-rule="nonzero" fill-opacity="1" /><path clip-path="url(#clip530)" d="M28.3562 833.292 L45.7028 846.182 L64.0042 832.623 L64.0042 839.53 L49.9996 849.906 L64.0042 860.282 L64.0042 867.189 L45.3526 853.344 L28.3562 866.011 L28.3562 859.105 L41.0558 849.651 L28.3562 840.198 L28.3562 833.292 Z" fill="#000000" fill-rule="nonzero" fill-opacity="1" /><path clip-path="url(#clip530)" d="M14.5426 810.28 Q21.8632 814.545 29.0246 816.613 Q36.186 818.682 43.5384 818.682 Q50.8908 818.682 58.1159 816.613 Q65.3091 814.513 72.5979 810.28 L72.5979 815.372 Q65.1182 820.146 57.8931 822.534 Q50.668 824.889 43.5384 824.889 Q36.4406 824.889 29.2474 822.534 Q22.0542 820.178 14.5426 815.372 L14.5426 810.28 Z" fill="#000000" fill-rule="nonzero" fill-opacity="1" /><path clip-path="url(#clip530)" d="M18.2347 793.124 L28.3562 793.124 L28.3562 781.061 L32.9077 781.061 L32.9077 793.124 L52.2594 793.124 Q56.6199 793.124 57.8613 791.946 Q59.1026 790.737 59.1026 787.077 L59.1026 781.061 L64.0042 781.061 L64.0042 787.077 Q64.0042 793.856 61.4897 796.434 Q58.9434 799.012 52.2594 799.012 L32.9077 799.012 L32.9077 803.309 L28.3562 803.309 L28.3562 799.012 L18.2347 799.012 L18.2347 793.124 Z" fill="#000000" fill-rule="nonzero" fill-opacity="1" /><path clip-path="url(#clip530)" d="M14.5426 774.281 L14.5426 769.189 Q22.0542 764.415 29.2474 762.059 Q36.4406 759.672 43.5384 759.672 Q50.668 759.672 57.8931 762.059 Q65.1182 764.415 72.5979 769.189 L72.5979 774.281 Q65.3091 770.048 58.1159 767.979 Q50.8908 765.879 43.5384 765.879 Q36.186 765.879 29.0246 767.979 Q21.8632 770.048 14.5426 774.281 Z" fill="#000000" fill-rule="nonzero" fill-opacity="1" /><path clip-path="url(#clip530)" d="M55.9197 746.432 L55.9197 739.716 L61.3942 739.716 L71.5793 744.936 L71.5793 749.041 L61.3942 746.432 L55.9197 746.432 Z" fill="#000000" fill-rule="nonzero" fill-opacity="1" /><path clip-path="url(#clip530)" d="M67.3143 691.655 Q73.68 694.137 75.6216 696.493 Q77.5631 698.848 77.5631 702.795 L77.5631 707.473 L72.6615 707.473 L72.6615 704.036 Q72.6615 701.617 71.5157 700.28 Q70.3699 698.943 66.1048 697.32 L63.4312 696.27 L28.3562 710.688 L28.3562 704.482 L56.238 693.342 L28.3562 682.202 L28.3562 675.995 L67.3143 691.655 Z" fill="#000000" fill-rule="nonzero" fill-opacity="1" /><path clip-path="url(#clip530)" d="M14.5426 653.842 Q21.8632 658.107 29.0246 660.176 Q36.186 662.245 43.5384 662.245 Q50.8908 662.245 58.1159 660.176 Q65.3091 658.076 72.5979 653.842 L72.5979 658.935 Q65.1182 663.709 57.8931 666.096 Q50.668 668.452 43.5384 668.452 Q36.4406 668.452 29.2474 666.096 Q22.0542 663.741 14.5426 658.935 L14.5426 653.842 Z" fill="#000000" fill-rule="nonzero" fill-opacity="1" /><path clip-path="url(#clip530)" d="M18.2347 636.687 L28.3562 636.687 L28.3562 624.624 L32.9077 624.624 L32.9077 636.687 L52.2594 636.687 Q56.6199 636.687 57.8613 635.509 Q59.1026 634.3 59.1026 630.639 L59.1026 624.624 L64.0042 624.624 L64.0042 630.639 Q64.0042 637.419 61.4897 639.997 Q58.9434 642.575 52.2594 642.575 L32.9077 642.575 L32.9077 646.872 L28.3562 646.872 L28.3562 642.575 L18.2347 642.575 L18.2347 636.687 Z" fill="#000000" fill-rule="nonzero" fill-opacity="1" /><path clip-path="url(#clip530)" d="M14.5426 617.844 L14.5426 612.752 Q22.0542 607.977 29.2474 605.622 Q36.4406 603.235 43.5384 603.235 Q50.668 603.235 57.8931 605.622 Q65.1182 607.977 72.5979 612.752 L72.5979 617.844 Q65.3091 613.611 58.1159 611.542 Q50.8908 609.442 43.5384 609.442 Q36.186 609.442 29.0246 611.542 Q21.8632 613.611 14.5426 617.844 Z" fill="#000000" fill-rule="nonzero" fill-opacity="1" /><polyline clip-path="url(#clip532)" style="stroke:#ff0000; stroke-linecap:round; stroke-linejoin:round; stroke-width:4; stroke-opacity:1; fill:none" points="244.467,87.9228 265.663,123.497 286.858,182.535 308.053,262.389 329.248,358.667 350.444,464.748 371.639,573.183 392.834,677.132 414.029,770.917 435.225,850.568 456.42,914.145 477.615,961.581 498.811,994.141 520.006,1013.67 541.201,1021.97 562.396,1020.44 583.592,1010.02 604.787,991.236 625.982,964.254 647.178,929.004 668.373,885.313 689.568,833.085 710.763,772.482 731.959,704.077 753.154,628.941 774.349,548.649 795.544,465.232 816.74,381.128 837.935,299.258 859.13,223.392 880.326,158.626 901.521,111.126 922.716,86.4507 943.911,87.5088 965.107,114.253 986.302,165.046 1007.5,237.572 1028.69,328.16 1049.89,430.879 1071.08,538.382 1092.28,643.566 "/>
<polyline clip-path="url(#clip532)" style="stroke:#ff0000; stroke-linecap:round; stroke-linejoin:round; stroke-width:4; stroke-opacity:1; fill:none" points="244.467,1017.72 265.663,935.795 286.858,856.17 308.053,783.638 329.248,724.244 350.444,684.295 371.639,667.219 392.834,672.524 414.029,697.38 435.225,738.018 456.42,790.361 477.615,850.405 498.811,914.504 520.006,979.558 541.201,1043.09 562.396,1103.25 583.592,1158.74 604.787,1208.8 625.982,1253.01 647.178,1291.18 668.373,1323.21 689.568,1348.9 710.763,1367.9 731.959,1379.8 753.154,1384.24 774.349,1381.02 795.544,1370.14 816.74,1351.61 837.935,1325.21 859.13,1290.21 880.326,1245.21 901.521,1188.81 922.716,1121.09 943.911,1044.71 965.107,964.16 986.302,884.199 1007.5,809.451 1028.69,745.492 1049.89,698.814 1071.08,674.09 1092.28,672.073 "/>
<circle clip-path="url(#clip532)" cx="244.467" cy="87.9228" r="14.4" fill="#000000" fill-rule="evenodd" fill-opacity="1" stroke="none"/>
<circle clip-path="url(#clip532)" cx="286.858" cy="184.981" r="14.4" fill="#000000" fill-rule="evenodd" fill-opacity="1" stroke="none"/>
<circle clip-path="url(#clip532)" cx="329.248" cy="367.885" r="14.4" fill="#000000" fill-rule="evenodd" fill-opacity="1" stroke="none"/>
<circle clip-path="url(#clip532)" cx="371.639" cy="567.326" r="14.4" fill="#000000" fill-rule="evenodd" fill-opacity="1" stroke="none"/>
<circle clip-path="url(#clip532)" cx="414.029" cy="769.838" r="14.4" fill="#000000" fill-rule="evenodd" fill-opacity="1" stroke="none"/>
<circle clip-path="url(#clip532)" cx="456.42" cy="913.377" r="14.4" fill="#000000" fill-rule="evenodd" fill-opacity="1" stroke="none"/>
<circle clip-path="url(#clip532)" cx="498.811" cy="992.84" r="14.4" fill="#000000" fill-rule="evenodd" fill-opacity="1" stroke="none"/>
<circle clip-path="url(#clip532)" cx="541.201" cy="1029.37" r="14.4" fill="#000000" fill-rule="evenodd" fill-opacity="1" stroke="none"/>
<circle clip-path="url(#clip532)" cx="583.592" cy="1003.51" r="14.4" fill="#000000" fill-rule="evenodd" fill-opacity="1" stroke="none"/>
<circle clip-path="url(#clip532)" cx="625.982" cy="962.062" r="14.4" fill="#000000" fill-rule="evenodd" fill-opacity="1" stroke="none"/>
<circle clip-path="url(#clip532)" cx="668.373" cy="886.024" r="14.4" fill="#000000" fill-rule="evenodd" fill-opacity="1" stroke="none"/>
<circle clip-path="url(#clip532)" cx="710.763" cy="780.736" r="14.4" fill="#000000" fill-rule="evenodd" fill-opacity="1" stroke="none"/>
<circle clip-path="url(#clip532)" cx="753.154" cy="622.153" r="14.4" fill="#000000" fill-rule="evenodd" fill-opacity="1" stroke="none"/>
<circle clip-path="url(#clip532)" cx="795.544" cy="463.814" r="14.4" fill="#000000" fill-rule="evenodd" fill-opacity="1" stroke="none"/>
<circle clip-path="url(#clip532)" cx="837.935" cy="301.645" r="14.4" fill="#000000" fill-rule="evenodd" fill-opacity="1" stroke="none"/>
<circle clip-path="url(#clip532)" cx="880.326" cy="160.379" r="14.4" fill="#000000" fill-rule="evenodd" fill-opacity="1" stroke="none"/>
<circle clip-path="url(#clip532)" cx="922.716" cy="86.1857" r="14.4" fill="#000000" fill-rule="evenodd" fill-opacity="1" stroke="none"/>
<circle clip-path="url(#clip532)" cx="965.107" cy="120.617" r="14.4" fill="#000000" fill-rule="evenodd" fill-opacity="1" stroke="none"/>
<circle clip-path="url(#clip532)" cx="1007.5" cy="230.186" r="14.4" fill="#000000" fill-rule="evenodd" fill-opacity="1" stroke="none"/>
<circle clip-path="url(#clip532)" cx="1049.89" cy="427.609" r="14.4" fill="#000000" fill-rule="evenodd" fill-opacity="1" stroke="none"/>
<circle clip-path="url(#clip532)" cx="1092.28" cy="649.331" r="14.4" fill="#000000" fill-rule="evenodd" fill-opacity="1" stroke="none"/>
<circle clip-path="url(#clip532)" cx="244.467" cy="1017.72" r="14.4" fill="#000000" fill-rule="evenodd" fill-opacity="1" stroke="none"/>
<circle clip-path="url(#clip532)" cx="286.858" cy="857.383" r="14.4" fill="#000000" fill-rule="evenodd" fill-opacity="1" stroke="none"/>
<circle clip-path="url(#clip532)" cx="329.248" cy="724.868" r="14.4" fill="#000000" fill-rule="evenodd" fill-opacity="1" stroke="none"/>
<circle clip-path="url(#clip532)" cx="371.639" cy="667.115" r="14.4" fill="#000000" fill-rule="evenodd" fill-opacity="1" stroke="none"/>
<circle clip-path="url(#clip532)" cx="414.029" cy="699.364" r="14.4" fill="#000000" fill-rule="evenodd" fill-opacity="1" stroke="none"/>
<circle clip-path="url(#clip532)" cx="456.42" cy="788.09" r="14.4" fill="#000000" fill-rule="evenodd" fill-opacity="1" stroke="none"/>
<circle clip-path="url(#clip532)" cx="498.811" cy="918.26" r="14.4" fill="#000000" fill-rule="evenodd" fill-opacity="1" stroke="none"/>
<circle clip-path="url(#clip532)" cx="541.201" cy="1039.94" r="14.4" fill="#000000" fill-rule="evenodd" fill-opacity="1" stroke="none"/>
<circle clip-path="url(#clip532)" cx="583.592" cy="1161.88" r="14.4" fill="#000000" fill-rule="evenodd" fill-opacity="1" stroke="none"/>
<circle clip-path="url(#clip532)" cx="625.982" cy="1247.42" r="14.4" fill="#000000" fill-rule="evenodd" fill-opacity="1" stroke="none"/>
<circle clip-path="url(#clip532)" cx="668.373" cy="1326.76" r="14.4" fill="#000000" fill-rule="evenodd" fill-opacity="1" stroke="none"/>
<circle clip-path="url(#clip532)" cx="710.763" cy="1370.97" r="14.4" fill="#000000" fill-rule="evenodd" fill-opacity="1" stroke="none"/>
<circle clip-path="url(#clip532)" cx="753.154" cy="1381.71" r="14.4" fill="#000000" fill-rule="evenodd" fill-opacity="1" stroke="none"/>
<circle clip-path="url(#clip532)" cx="795.544" cy="1365.9" r="14.4" fill="#000000" fill-rule="evenodd" fill-opacity="1" stroke="none"/>
<circle clip-path="url(#clip532)" cx="837.935" cy="1330.43" r="14.4" fill="#000000" fill-rule="evenodd" fill-opacity="1" stroke="none"/>
<circle clip-path="url(#clip532)" cx="880.326" cy="1247.09" r="14.4" fill="#000000" fill-rule="evenodd" fill-opacity="1" stroke="none"/>
<circle clip-path="url(#clip532)" cx="922.716" cy="1113.91" r="14.4" fill="#000000" fill-rule="evenodd" fill-opacity="1" stroke="none"/>
<circle clip-path="url(#clip532)" cx="965.107" cy="967.941" r="14.4" fill="#000000" fill-rule="evenodd" fill-opacity="1" stroke="none"/>
<circle clip-path="url(#clip532)" cx="1007.5" cy="805.202" r="14.4" fill="#000000" fill-rule="evenodd" fill-opacity="1" stroke="none"/>
<circle clip-path="url(#clip532)" cx="1049.89" cy="701.493" r="14.4" fill="#000000" fill-rule="evenodd" fill-opacity="1" stroke="none"/>
<circle clip-path="url(#clip532)" cx="1092.28" cy="669.03" r="14.4" fill="#000000" fill-rule="evenodd" fill-opacity="1" stroke="none"/>
<path clip-path="url(#clip530)" d="M248.989 1377.32 L792.813 1377.32 L792.813 1221.8 L248.989 1221.8  Z" fill="#ffffff" fill-rule="evenodd" fill-opacity="1"/>
<polyline clip-path="url(#clip530)" style="stroke:#000000; stroke-linecap:round; stroke-linejoin:round; stroke-width:4; stroke-opacity:1; fill:none" points="248.989,1377.32 792.813,1377.32 792.813,1221.8 248.989,1221.8 248.989,1377.32 "/>
<polyline clip-path="url(#clip530)" style="stroke:#ff0000; stroke-linecap:round; stroke-linejoin:round; stroke-width:4; stroke-opacity:1; fill:none" points="258.974,1273.64 318.886,1273.64 "/>
<path clip-path="url(#clip530)" d="M328.872 1256.36 L333.571 1256.36 L333.571 1277.35 Q333.571 1282.91 335.585 1285.36 Q337.598 1287.79 342.112 1287.79 Q346.603 1287.79 348.617 1285.36 Q350.631 1282.91 350.631 1277.35 L350.631 1256.36 L355.33 1256.36 L355.33 1277.93 Q355.33 1284.69 351.973 1288.14 Q348.64 1291.59 342.112 1291.59 Q335.561 1291.59 332.205 1288.14 Q328.872 1284.69 328.872 1277.93 L328.872 1256.36 Z" fill="#000000" fill-rule="nonzero" fill-opacity="1" /><path clip-path="url(#clip530)" d="M368.779 1260.2 L368.779 1287.07 L374.427 1287.07 Q381.58 1287.07 384.89 1283.83 Q388.223 1280.59 388.223 1273.6 Q388.223 1266.66 384.89 1263.44 Q381.58 1260.2 374.427 1260.2 L368.779 1260.2 M364.103 1256.36 L373.709 1256.36 Q383.756 1256.36 388.455 1260.55 Q393.154 1264.71 393.154 1273.6 Q393.154 1282.54 388.431 1286.73 Q383.709 1290.92 373.709 1290.92 L364.103 1290.92 L364.103 1256.36 Z" fill="#000000" fill-rule="nonzero" fill-opacity="1" /><path clip-path="url(#clip530)" d="M400.607 1256.36 L422.459 1256.36 L422.459 1260.29 L405.283 1260.29 L405.283 1270.52 L421.741 1270.52 L421.741 1274.46 L405.283 1274.46 L405.283 1286.98 L422.876 1286.98 L422.876 1290.92 L400.607 1290.92 L400.607 1256.36 Z" fill="#000000" fill-rule="nonzero" fill-opacity="1" /><path clip-path="url(#clip530)" d="M457.181 1260.96 L450.839 1278.16 L463.547 1278.16 L457.181 1260.96 M454.542 1256.36 L459.843 1256.36 L473.014 1290.92 L468.153 1290.92 L465.005 1282.05 L449.426 1282.05 L446.278 1290.92 L441.348 1290.92 L454.542 1256.36 Z" fill="#000000" fill-rule="nonzero" fill-opacity="1" /><path clip-path="url(#clip530)" d="M481.996 1287.03 L481.996 1300.78 L477.713 1300.78 L477.713 1264.99 L481.996 1264.99 L481.996 1268.92 Q483.338 1266.61 485.375 1265.5 Q487.436 1264.36 490.283 1264.36 Q495.005 1264.36 497.945 1268.11 Q500.908 1271.86 500.908 1277.98 Q500.908 1284.09 497.945 1287.84 Q495.005 1291.59 490.283 1291.59 Q487.436 1291.59 485.375 1290.48 Q483.338 1289.34 481.996 1287.03 M496.486 1277.98 Q496.486 1273.28 494.542 1270.61 Q492.621 1267.93 489.241 1267.93 Q485.861 1267.93 483.917 1270.61 Q481.996 1273.28 481.996 1277.98 Q481.996 1282.67 483.917 1285.36 Q485.861 1288.02 489.241 1288.02 Q492.621 1288.02 494.542 1285.36 Q496.486 1282.67 496.486 1277.98 Z" fill="#000000" fill-rule="nonzero" fill-opacity="1" /><path clip-path="url(#clip530)" d="M512.088 1287.03 L512.088 1300.78 L507.806 1300.78 L507.806 1264.99 L512.088 1264.99 L512.088 1268.92 Q513.431 1266.61 515.468 1265.5 Q517.528 1264.36 520.375 1264.36 Q525.097 1264.36 528.037 1268.11 Q531 1271.86 531 1277.98 Q531 1284.09 528.037 1287.84 Q525.097 1291.59 520.375 1291.59 Q517.528 1291.59 515.468 1290.48 Q513.431 1289.34 512.088 1287.03 M526.579 1277.98 Q526.579 1273.28 524.634 1270.61 Q522.713 1267.93 519.334 1267.93 Q515.954 1267.93 514.009 1270.61 Q512.088 1273.28 512.088 1277.98 Q512.088 1282.67 514.009 1285.36 Q515.954 1288.02 519.334 1288.02 Q522.713 1288.02 524.634 1285.36 Q526.579 1282.67 526.579 1277.98 Z" fill="#000000" fill-rule="nonzero" fill-opacity="1" /><path clip-path="url(#clip530)" d="M553.083 1268.97 Q552.366 1268.55 551.509 1268.37 Q550.676 1268.16 549.657 1268.16 Q546.046 1268.16 544.102 1270.52 Q542.181 1272.86 542.181 1277.26 L542.181 1290.92 L537.898 1290.92 L537.898 1264.99 L542.181 1264.99 L542.181 1269.02 Q543.523 1266.66 545.676 1265.52 Q547.829 1264.36 550.907 1264.36 Q551.347 1264.36 551.88 1264.43 Q552.412 1264.48 553.06 1264.6 L553.083 1268.97 Z" fill="#000000" fill-rule="nonzero" fill-opacity="1" /><path clip-path="url(#clip530)" d="M566.555 1267.98 Q563.13 1267.98 561.139 1270.66 Q559.148 1273.32 559.148 1277.98 Q559.148 1282.63 561.116 1285.31 Q563.106 1287.98 566.555 1287.98 Q569.958 1287.98 571.949 1285.29 Q573.94 1282.61 573.94 1277.98 Q573.94 1273.37 571.949 1270.68 Q569.958 1267.98 566.555 1267.98 M566.555 1264.36 Q572.111 1264.36 575.282 1267.98 Q578.454 1271.59 578.454 1277.98 Q578.454 1284.34 575.282 1287.98 Q572.111 1291.59 566.555 1291.59 Q560.977 1291.59 557.806 1287.98 Q554.657 1284.34 554.657 1277.98 Q554.657 1271.59 557.806 1267.98 Q560.977 1264.36 566.555 1264.36 Z" fill="#000000" fill-rule="nonzero" fill-opacity="1" /><path clip-path="url(#clip530)" d="M605.606 1264.99 L596.231 1277.61 L606.092 1290.92 L601.069 1290.92 L593.523 1280.73 L585.977 1290.92 L580.954 1290.92 L591.023 1277.35 L581.81 1264.99 L586.833 1264.99 L593.708 1274.23 L600.583 1264.99 L605.606 1264.99 Z" fill="#000000" fill-rule="nonzero" fill-opacity="1" /><path clip-path="url(#clip530)" d="M612.111 1264.99 L616.37 1264.99 L616.37 1290.92 L612.111 1290.92 L612.111 1264.99 M612.111 1254.9 L616.37 1254.9 L616.37 1260.29 L612.111 1260.29 L612.111 1254.9 Z" fill="#000000" fill-rule="nonzero" fill-opacity="1" /><path clip-path="url(#clip530)" d="M645.467 1269.97 Q647.064 1267.1 649.287 1265.73 Q651.509 1264.36 654.518 1264.36 Q658.569 1264.36 660.768 1267.21 Q662.967 1270.04 662.967 1275.27 L662.967 1290.92 L658.685 1290.92 L658.685 1275.41 Q658.685 1271.68 657.365 1269.87 Q656.046 1268.07 653.337 1268.07 Q650.027 1268.07 648.106 1270.27 Q646.185 1272.47 646.185 1276.26 L646.185 1290.92 L641.902 1290.92 L641.902 1275.41 Q641.902 1271.66 640.583 1269.87 Q639.263 1268.07 636.509 1268.07 Q633.245 1268.07 631.324 1270.29 Q629.402 1272.49 629.402 1276.26 L629.402 1290.92 L625.12 1290.92 L625.12 1264.99 L629.402 1264.99 L629.402 1269.02 Q630.861 1266.63 632.898 1265.5 Q634.935 1264.36 637.736 1264.36 Q640.56 1264.36 642.527 1265.8 Q644.518 1267.23 645.467 1269.97 Z" fill="#000000" fill-rule="nonzero" fill-opacity="1" /><path clip-path="url(#clip530)" d="M683.245 1277.88 Q678.083 1277.88 676.092 1279.06 Q674.101 1280.24 674.101 1283.09 Q674.101 1285.36 675.583 1286.7 Q677.087 1288.02 679.657 1288.02 Q683.198 1288.02 685.328 1285.52 Q687.481 1283 687.481 1278.83 L687.481 1277.88 L683.245 1277.88 M691.74 1276.12 L691.74 1290.92 L687.481 1290.92 L687.481 1286.98 Q686.022 1289.34 683.847 1290.48 Q681.671 1291.59 678.522 1291.59 Q674.541 1291.59 672.18 1289.36 Q669.842 1287.12 669.842 1283.37 Q669.842 1278.99 672.759 1276.77 Q675.698 1274.55 681.509 1274.55 L687.481 1274.55 L687.481 1274.13 Q687.481 1271.19 685.536 1269.6 Q683.615 1267.98 680.12 1267.98 Q677.897 1267.98 675.791 1268.51 Q673.685 1269.04 671.74 1270.11 L671.74 1266.17 Q674.078 1265.27 676.277 1264.83 Q678.476 1264.36 680.56 1264.36 Q686.184 1264.36 688.962 1267.28 Q691.74 1270.2 691.74 1276.12 Z" fill="#000000" fill-rule="nonzero" fill-opacity="1" /><path clip-path="url(#clip530)" d="M704.726 1257.63 L704.726 1264.99 L713.499 1264.99 L713.499 1268.3 L704.726 1268.3 L704.726 1282.37 Q704.726 1285.54 705.583 1286.45 Q706.462 1287.35 709.124 1287.35 L713.499 1287.35 L713.499 1290.92 L709.124 1290.92 Q704.194 1290.92 702.319 1289.09 Q700.444 1287.23 700.444 1282.37 L700.444 1268.3 L697.319 1268.3 L697.319 1264.99 L700.444 1264.99 L700.444 1257.63 L704.726 1257.63 Z" fill="#000000" fill-rule="nonzero" fill-opacity="1" /><path clip-path="url(#clip530)" d="M719.101 1264.99 L723.36 1264.99 L723.36 1290.92 L719.101 1290.92 L719.101 1264.99 M719.101 1254.9 L723.36 1254.9 L723.36 1260.29 L719.101 1260.29 L719.101 1254.9 Z" fill="#000000" fill-rule="nonzero" fill-opacity="1" /><path clip-path="url(#clip530)" d="M742.318 1267.98 Q738.893 1267.98 736.902 1270.66 Q734.911 1273.32 734.911 1277.98 Q734.911 1282.63 736.879 1285.31 Q738.869 1287.98 742.318 1287.98 Q745.721 1287.98 747.712 1285.29 Q749.703 1282.61 749.703 1277.98 Q749.703 1273.37 747.712 1270.68 Q745.721 1267.98 742.318 1267.98 M742.318 1264.36 Q747.874 1264.36 751.045 1267.98 Q754.217 1271.59 754.217 1277.98 Q754.217 1284.34 751.045 1287.98 Q747.874 1291.59 742.318 1291.59 Q736.74 1291.59 733.568 1287.98 Q730.42 1284.34 730.42 1277.98 Q730.42 1271.59 733.568 1267.98 Q736.74 1264.36 742.318 1264.36 Z" fill="#000000" fill-rule="nonzero" fill-opacity="1" /><path clip-path="url(#clip530)" d="M782.827 1275.27 L782.827 1290.92 L778.568 1290.92 L778.568 1275.41 Q778.568 1271.73 777.133 1269.9 Q775.698 1268.07 772.828 1268.07 Q769.378 1268.07 767.388 1270.27 Q765.397 1272.47 765.397 1276.26 L765.397 1290.92 L761.115 1290.92 L761.115 1264.99 L765.397 1264.99 L765.397 1269.02 Q766.925 1266.68 768.985 1265.52 Q771.068 1264.36 773.777 1264.36 Q778.244 1264.36 780.536 1267.14 Q782.827 1269.9 782.827 1275.27 Z" fill="#000000" fill-rule="nonzero" fill-opacity="1" /><circle clip-path="url(#clip530)" cx="288.93" cy="1325.48" r="20.48" fill="#000000" fill-rule="evenodd" fill-opacity="1" stroke="none"/>
<path clip-path="url(#clip530)" d="M328.872 1308.2 L335.839 1308.2 L344.659 1331.71 L353.524 1308.2 L360.492 1308.2 L360.492 1342.76 L355.932 1342.76 L355.932 1312.41 L347.02 1336.11 L342.321 1336.11 L333.409 1312.41 L333.409 1342.76 L328.872 1342.76 L328.872 1308.2 Z" fill="#000000" fill-rule="nonzero" fill-opacity="1" /><path clip-path="url(#clip530)" d="M391.765 1328.73 L391.765 1330.81 L372.182 1330.81 Q372.459 1335.21 374.82 1337.52 Q377.205 1339.82 381.441 1339.82 Q383.894 1339.82 386.186 1339.21 Q388.501 1338.61 390.769 1337.41 L390.769 1341.44 Q388.478 1342.41 386.07 1342.92 Q383.663 1343.43 381.186 1343.43 Q374.982 1343.43 371.348 1339.82 Q367.737 1336.2 367.737 1330.05 Q367.737 1323.68 371.163 1319.95 Q374.612 1316.2 380.445 1316.2 Q385.677 1316.2 388.709 1319.58 Q391.765 1322.94 391.765 1328.73 M387.506 1327.48 Q387.459 1323.98 385.538 1321.9 Q383.64 1319.82 380.492 1319.82 Q376.927 1319.82 374.774 1321.83 Q372.644 1323.84 372.32 1327.5 L387.506 1327.48 Z" fill="#000000" fill-rule="nonzero" fill-opacity="1" /><path clip-path="url(#clip530)" d="M410.538 1329.72 Q405.376 1329.72 403.385 1330.9 Q401.394 1332.08 401.394 1334.93 Q401.394 1337.2 402.876 1338.54 Q404.38 1339.86 406.95 1339.86 Q410.492 1339.86 412.621 1337.36 Q414.774 1334.84 414.774 1330.67 L414.774 1329.72 L410.538 1329.72 M419.033 1327.96 L419.033 1342.76 L414.774 1342.76 L414.774 1338.82 Q413.316 1341.18 411.14 1342.32 Q408.964 1343.43 405.816 1343.43 Q401.834 1343.43 399.473 1341.2 Q397.135 1338.96 397.135 1335.21 Q397.135 1330.83 400.052 1328.61 Q402.992 1326.39 408.802 1326.39 L414.774 1326.39 L414.774 1325.97 Q414.774 1323.03 412.829 1321.44 Q410.908 1319.82 407.413 1319.82 Q405.191 1319.82 403.084 1320.35 Q400.978 1320.88 399.033 1321.95 L399.033 1318.01 Q401.371 1317.11 403.57 1316.67 Q405.769 1316.2 407.853 1316.2 Q413.478 1316.2 416.255 1319.12 Q419.033 1322.04 419.033 1327.96 Z" fill="#000000" fill-rule="nonzero" fill-opacity="1" /><path clip-path="url(#clip530)" d="M444.334 1317.59 L444.334 1321.62 Q442.528 1320.7 440.584 1320.23 Q438.64 1319.77 436.556 1319.77 Q433.385 1319.77 431.788 1320.74 Q430.214 1321.71 430.214 1323.66 Q430.214 1325.14 431.348 1326 Q432.482 1326.83 435.908 1327.59 L437.366 1327.92 Q441.903 1328.89 443.802 1330.67 Q445.723 1332.43 445.723 1335.6 Q445.723 1339.21 442.852 1341.32 Q440.005 1343.43 435.005 1343.43 Q432.922 1343.43 430.653 1343.01 Q428.408 1342.62 425.908 1341.81 L425.908 1337.41 Q428.269 1338.63 430.561 1339.26 Q432.852 1339.86 435.098 1339.86 Q438.107 1339.86 439.727 1338.84 Q441.348 1337.8 441.348 1335.93 Q441.348 1334.19 440.167 1333.26 Q439.01 1332.34 435.052 1331.48 L433.57 1331.14 Q429.612 1330.3 427.853 1328.59 Q426.093 1326.85 426.093 1323.84 Q426.093 1320.19 428.686 1318.2 Q431.278 1316.2 436.047 1316.2 Q438.408 1316.2 440.491 1316.55 Q442.575 1316.9 444.334 1317.59 Z" fill="#000000" fill-rule="nonzero" fill-opacity="1" /><path clip-path="url(#clip530)" d="M452.065 1332.52 L452.065 1316.83 L456.325 1316.83 L456.325 1332.36 Q456.325 1336.04 457.76 1337.89 Q459.195 1339.72 462.065 1339.72 Q465.514 1339.72 467.505 1337.52 Q469.519 1335.32 469.519 1331.53 L469.519 1316.83 L473.778 1316.83 L473.778 1342.76 L469.519 1342.76 L469.519 1338.77 Q467.968 1341.13 465.908 1342.29 Q463.871 1343.43 461.163 1343.43 Q456.695 1343.43 454.38 1340.65 Q452.065 1337.87 452.065 1332.52 M462.783 1316.2 L462.783 1316.2 Z" fill="#000000" fill-rule="nonzero" fill-opacity="1" /><path clip-path="url(#clip530)" d="M497.574 1320.81 Q496.857 1320.39 496 1320.21 Q495.167 1320 494.148 1320 Q490.537 1320 488.593 1322.36 Q486.672 1324.7 486.672 1329.1 L486.672 1342.76 L482.389 1342.76 L482.389 1316.83 L486.672 1316.83 L486.672 1320.86 Q488.014 1318.5 490.167 1317.36 Q492.32 1316.2 495.398 1316.2 Q495.838 1316.2 496.371 1316.27 Q496.903 1316.32 497.551 1316.44 L497.574 1320.81 Z" fill="#000000" fill-rule="nonzero" fill-opacity="1" /><path clip-path="url(#clip530)" d="M523.176 1328.73 L523.176 1330.81 L503.593 1330.81 Q503.871 1335.21 506.232 1337.52 Q508.616 1339.82 512.852 1339.82 Q515.306 1339.82 517.597 1339.21 Q519.912 1338.61 522.181 1337.41 L522.181 1341.44 Q519.889 1342.41 517.482 1342.92 Q515.074 1343.43 512.597 1343.43 Q506.394 1343.43 502.76 1339.82 Q499.148 1336.2 499.148 1330.05 Q499.148 1323.68 502.574 1319.95 Q506.023 1316.2 511.857 1316.2 Q517.088 1316.2 520.121 1319.58 Q523.176 1322.94 523.176 1328.73 M518.917 1327.48 Q518.871 1323.98 516.949 1321.9 Q515.051 1319.82 511.903 1319.82 Q508.338 1319.82 506.185 1321.83 Q504.056 1323.84 503.732 1327.5 L518.917 1327.48 Z" fill="#000000" fill-rule="nonzero" fill-opacity="1" /><path clip-path="url(#clip530)" d="M550.352 1321.81 Q551.949 1318.94 554.171 1317.57 Q556.394 1316.2 559.403 1316.2 Q563.454 1316.2 565.653 1319.05 Q567.852 1321.88 567.852 1327.11 L567.852 1342.76 L563.569 1342.76 L563.569 1327.25 Q563.569 1323.52 562.25 1321.71 Q560.931 1319.91 558.222 1319.91 Q554.912 1319.91 552.991 1322.11 Q551.069 1324.31 551.069 1328.1 L551.069 1342.76 L546.787 1342.76 L546.787 1327.25 Q546.787 1323.5 545.468 1321.71 Q544.148 1319.91 541.394 1319.91 Q538.13 1319.91 536.208 1322.13 Q534.287 1324.33 534.287 1328.1 L534.287 1342.76 L530.005 1342.76 L530.005 1316.83 L534.287 1316.83 L534.287 1320.86 Q535.745 1318.47 537.782 1317.34 Q539.82 1316.2 542.62 1316.2 Q545.444 1316.2 547.412 1317.64 Q549.403 1319.07 550.352 1321.81 Z" fill="#000000" fill-rule="nonzero" fill-opacity="1" /><path clip-path="url(#clip530)" d="M598.523 1328.73 L598.523 1330.81 L578.94 1330.81 Q579.217 1335.21 581.579 1337.52 Q583.963 1339.82 588.199 1339.82 Q590.653 1339.82 592.944 1339.21 Q595.259 1338.61 597.528 1337.41 L597.528 1341.44 Q595.236 1342.41 592.828 1342.92 Q590.421 1343.43 587.944 1343.43 Q581.741 1343.43 578.106 1339.82 Q574.495 1336.2 574.495 1330.05 Q574.495 1323.68 577.921 1319.95 Q581.37 1316.2 587.204 1316.2 Q592.435 1316.2 595.467 1319.58 Q598.523 1322.94 598.523 1328.73 M594.264 1327.48 Q594.217 1323.98 592.296 1321.9 Q590.398 1319.82 587.25 1319.82 Q583.685 1319.82 581.532 1321.83 Q579.403 1323.84 579.079 1327.5 L594.264 1327.48 Z" fill="#000000" fill-rule="nonzero" fill-opacity="1" /><path clip-path="url(#clip530)" d="M627.064 1327.11 L627.064 1342.76 L622.805 1342.76 L622.805 1327.25 Q622.805 1323.57 621.37 1321.74 Q619.935 1319.91 617.064 1319.91 Q613.615 1319.91 611.625 1322.11 Q609.634 1324.31 609.634 1328.1 L609.634 1342.76 L605.352 1342.76 L605.352 1316.83 L609.634 1316.83 L609.634 1320.86 Q611.162 1318.52 613.222 1317.36 Q615.305 1316.2 618.014 1316.2 Q622.481 1316.2 624.773 1318.98 Q627.064 1321.74 627.064 1327.11 Z" fill="#000000" fill-rule="nonzero" fill-opacity="1" /><path clip-path="url(#clip530)" d="M639.773 1309.47 L639.773 1316.83 L648.546 1316.83 L648.546 1320.14 L639.773 1320.14 L639.773 1334.21 Q639.773 1337.38 640.629 1338.29 Q641.509 1339.19 644.171 1339.19 L648.546 1339.19 L648.546 1342.76 L644.171 1342.76 Q639.24 1342.76 637.365 1340.93 Q635.49 1339.07 635.49 1334.21 L635.49 1320.14 L632.365 1320.14 L632.365 1316.83 L635.49 1316.83 L635.49 1309.47 L639.773 1309.47 Z" fill="#000000" fill-rule="nonzero" fill-opacity="1" /><path clip-path="url(#clip530)" d="M670.675 1317.59 L670.675 1321.62 Q668.87 1320.7 666.925 1320.23 Q664.981 1319.77 662.898 1319.77 Q659.726 1319.77 658.129 1320.74 Q656.555 1321.71 656.555 1323.66 Q656.555 1325.14 657.689 1326 Q658.824 1326.83 662.249 1327.59 L663.708 1327.92 Q668.245 1328.89 670.143 1330.67 Q672.064 1332.43 672.064 1335.6 Q672.064 1339.21 669.194 1341.32 Q666.347 1343.43 661.347 1343.43 Q659.263 1343.43 656.995 1343.01 Q654.749 1342.62 652.249 1341.81 L652.249 1337.41 Q654.611 1338.63 656.902 1339.26 Q659.194 1339.86 661.439 1339.86 Q664.448 1339.86 666.069 1338.84 Q667.689 1337.8 667.689 1335.93 Q667.689 1334.19 666.509 1333.26 Q665.351 1332.34 661.393 1331.48 L659.911 1331.14 Q655.953 1330.3 654.194 1328.59 Q652.435 1326.85 652.435 1323.84 Q652.435 1320.19 655.027 1318.2 Q657.62 1316.2 662.388 1316.2 Q664.749 1316.2 666.833 1316.55 Q668.916 1316.9 670.675 1317.59 Z" fill="#000000" fill-rule="nonzero" fill-opacity="1" /><path clip-path="url(#clip530)" d="M1454.08 623.18 L2352.76 623.18 L2352.76 47.2441 L1454.08 47.2441  Z" fill="#ffffff" fill-rule="evenodd" fill-opacity="1"/>
<defs>
  <clipPath id="clip533">
    <rect x="1454" y="47" width="900" height="577"/>
  </clipPath>
</defs>
<polyline clip-path="url(#clip533)" style="stroke:#000000; stroke-linecap:round; stroke-linejoin:round; stroke-width:2; stroke-opacity:0.1; fill:none" points="1479.51,623.18 1479.51,47.2441 "/>
<polyline clip-path="url(#clip533)" style="stroke:#000000; stroke-linecap:round; stroke-linejoin:round; stroke-width:2; stroke-opacity:0.1; fill:none" points="1649.07,623.18 1649.07,47.2441 "/>
<polyline clip-path="url(#clip533)" style="stroke:#000000; stroke-linecap:round; stroke-linejoin:round; stroke-width:2; stroke-opacity:0.1; fill:none" points="1818.63,623.18 1818.63,47.2441 "/>
<polyline clip-path="url(#clip533)" style="stroke:#000000; stroke-linecap:round; stroke-linejoin:round; stroke-width:2; stroke-opacity:0.1; fill:none" points="1988.2,623.18 1988.2,47.2441 "/>
<polyline clip-path="url(#clip533)" style="stroke:#000000; stroke-linecap:round; stroke-linejoin:round; stroke-width:2; stroke-opacity:0.1; fill:none" points="2157.76,623.18 2157.76,47.2441 "/>
<polyline clip-path="url(#clip533)" style="stroke:#000000; stroke-linecap:round; stroke-linejoin:round; stroke-width:2; stroke-opacity:0.1; fill:none" points="2327.32,623.18 2327.32,47.2441 "/>
<polyline clip-path="url(#clip533)" style="stroke:#000000; stroke-linecap:round; stroke-linejoin:round; stroke-width:2; stroke-opacity:0.1; fill:none" points="1454.08,550.096 2352.76,550.096 "/>
<polyline clip-path="url(#clip533)" style="stroke:#000000; stroke-linecap:round; stroke-linejoin:round; stroke-width:2; stroke-opacity:0.1; fill:none" points="1454.08,434.664 2352.76,434.664 "/>
<polyline clip-path="url(#clip533)" style="stroke:#000000; stroke-linecap:round; stroke-linejoin:round; stroke-width:2; stroke-opacity:0.1; fill:none" points="1454.08,319.232 2352.76,319.232 "/>
<polyline clip-path="url(#clip533)" style="stroke:#000000; stroke-linecap:round; stroke-linejoin:round; stroke-width:2; stroke-opacity:0.1; fill:none" points="1454.08,203.799 2352.76,203.799 "/>
<polyline clip-path="url(#clip533)" style="stroke:#000000; stroke-linecap:round; stroke-linejoin:round; stroke-width:2; stroke-opacity:0.1; fill:none" points="1454.08,88.367 2352.76,88.367 "/>
<polyline clip-path="url(#clip530)" style="stroke:#000000; stroke-linecap:round; stroke-linejoin:round; stroke-width:4; stroke-opacity:1; fill:none" points="1454.08,623.18 2352.76,623.18 "/>
<polyline clip-path="url(#clip530)" style="stroke:#000000; stroke-linecap:round; stroke-linejoin:round; stroke-width:4; stroke-opacity:1; fill:none" points="1479.51,623.18 1479.51,604.282 "/>
<polyline clip-path="url(#clip530)" style="stroke:#000000; stroke-linecap:round; stroke-linejoin:round; stroke-width:4; stroke-opacity:1; fill:none" points="1649.07,623.18 1649.07,604.282 "/>
<polyline clip-path="url(#clip530)" style="stroke:#000000; stroke-linecap:round; stroke-linejoin:round; stroke-width:4; stroke-opacity:1; fill:none" points="1818.63,623.18 1818.63,604.282 "/>
<polyline clip-path="url(#clip530)" style="stroke:#000000; stroke-linecap:round; stroke-linejoin:round; stroke-width:4; stroke-opacity:1; fill:none" points="1988.2,623.18 1988.2,604.282 "/>
<polyline clip-path="url(#clip530)" style="stroke:#000000; stroke-linecap:round; stroke-linejoin:round; stroke-width:4; stroke-opacity:1; fill:none" points="2157.76,623.18 2157.76,604.282 "/>
<polyline clip-path="url(#clip530)" style="stroke:#000000; stroke-linecap:round; stroke-linejoin:round; stroke-width:4; stroke-opacity:1; fill:none" points="2327.32,623.18 2327.32,604.282 "/>
<path clip-path="url(#clip530)" d="M1479.51 654.099 Q1475.9 654.099 1474.07 657.663 Q1472.27 661.205 1472.27 668.335 Q1472.27 675.441 1474.07 679.006 Q1475.9 682.547 1479.51 682.547 Q1483.14 682.547 1484.95 679.006 Q1486.78 675.441 1486.78 668.335 Q1486.78 661.205 1484.95 657.663 Q1483.14 654.099 1479.51 654.099 M1479.51 650.395 Q1485.32 650.395 1488.38 655.001 Q1491.45 659.585 1491.45 668.335 Q1491.45 677.061 1488.38 681.668 Q1485.32 686.251 1479.51 686.251 Q1473.7 686.251 1470.62 681.668 Q1467.57 677.061 1467.57 668.335 Q1467.57 659.585 1470.62 655.001 Q1473.7 650.395 1479.51 650.395 Z" fill="#000000" fill-rule="nonzero" fill-opacity="1" /><path clip-path="url(#clip530)" d="M1639.45 681.645 L1647.09 681.645 L1647.09 655.279 L1638.78 656.946 L1638.78 652.687 L1647.05 651.02 L1651.72 651.02 L1651.72 681.645 L1659.36 681.645 L1659.36 685.58 L1639.45 685.58 L1639.45 681.645 Z" fill="#000000" fill-rule="nonzero" fill-opacity="1" /><path clip-path="url(#clip530)" d="M1813.29 681.645 L1829.61 681.645 L1829.61 685.58 L1807.66 685.58 L1807.66 681.645 Q1810.32 678.89 1814.91 674.26 Q1819.51 669.608 1820.7 668.265 Q1822.94 665.742 1823.82 664.006 Q1824.72 662.247 1824.72 660.557 Q1824.72 657.802 1822.78 656.066 Q1820.86 654.33 1817.76 654.33 Q1815.56 654.33 1813.1 655.094 Q1810.67 655.858 1807.89 657.409 L1807.89 652.687 Q1810.72 651.552 1813.17 650.974 Q1815.63 650.395 1817.66 650.395 Q1823.03 650.395 1826.23 653.08 Q1829.42 655.765 1829.42 660.256 Q1829.42 662.386 1828.61 664.307 Q1827.82 666.205 1825.72 668.798 Q1825.14 669.469 1822.04 672.686 Q1818.94 675.881 1813.29 681.645 Z" fill="#000000" fill-rule="nonzero" fill-opacity="1" /><path clip-path="url(#clip530)" d="M1992.44 666.946 Q1995.8 667.663 1997.68 669.932 Q1999.57 672.2 1999.57 675.534 Q1999.57 680.649 1996.06 683.45 Q1992.54 686.251 1986.06 686.251 Q1983.88 686.251 1981.57 685.811 Q1979.27 685.395 1976.82 684.538 L1976.82 680.024 Q1978.76 681.159 1981.08 681.737 Q1983.39 682.316 1985.92 682.316 Q1990.32 682.316 1992.61 680.58 Q1994.92 678.844 1994.92 675.534 Q1994.92 672.478 1992.77 670.765 Q1990.64 669.029 1986.82 669.029 L1982.79 669.029 L1982.79 665.186 L1987.01 665.186 Q1990.45 665.186 1992.28 663.821 Q1994.11 662.432 1994.11 659.839 Q1994.11 657.177 1992.21 655.765 Q1990.34 654.33 1986.82 654.33 Q1984.9 654.33 1982.7 654.747 Q1980.5 655.163 1977.86 656.043 L1977.86 651.876 Q1980.52 651.136 1982.84 650.765 Q1985.18 650.395 1987.24 650.395 Q1992.56 650.395 1995.66 652.825 Q1998.76 655.233 1998.76 659.353 Q1998.76 662.223 1997.12 664.214 Q1995.48 666.182 1992.44 666.946 Z" fill="#000000" fill-rule="nonzero" fill-opacity="1" /><path clip-path="url(#clip530)" d="M2160.77 655.094 L2148.96 673.543 L2160.77 673.543 L2160.77 655.094 M2159.54 651.02 L2165.42 651.02 L2165.42 673.543 L2170.35 673.543 L2170.35 677.432 L2165.42 677.432 L2165.42 685.58 L2160.77 685.58 L2160.77 677.432 L2145.17 677.432 L2145.17 672.918 L2159.54 651.02 Z" fill="#000000" fill-rule="nonzero" fill-opacity="1" /><path clip-path="url(#clip530)" d="M2317.6 651.02 L2335.96 651.02 L2335.96 654.955 L2321.88 654.955 L2321.88 663.427 Q2322.9 663.08 2323.92 662.918 Q2324.94 662.733 2325.96 662.733 Q2331.74 662.733 2335.12 665.904 Q2338.5 669.075 2338.5 674.492 Q2338.5 680.071 2335.03 683.172 Q2331.56 686.251 2325.24 686.251 Q2323.06 686.251 2320.79 685.881 Q2318.55 685.51 2316.14 684.77 L2316.14 680.071 Q2318.22 681.205 2320.45 681.76 Q2322.67 682.316 2325.15 682.316 Q2329.15 682.316 2331.49 680.21 Q2333.83 678.103 2333.83 674.492 Q2333.83 670.881 2331.49 668.774 Q2329.15 666.668 2325.15 666.668 Q2323.27 666.668 2321.4 667.085 Q2319.54 667.501 2317.6 668.381 L2317.6 651.02 Z" fill="#000000" fill-rule="nonzero" fill-opacity="1" /><path clip-path="url(#clip530)" d="M1902.48 722.274 L1902.48 732.396 L1914.54 732.396 L1914.54 736.947 L1902.48 736.947 L1902.48 756.299 Q1902.48 760.66 1903.65 761.901 Q1904.86 763.142 1908.52 763.142 L1914.54 763.142 L1914.54 768.044 L1908.52 768.044 Q1901.75 768.044 1899.17 765.529 Q1896.59 762.983 1896.59 756.299 L1896.59 736.947 L1892.29 736.947 L1892.29 732.396 L1896.59 732.396 L1896.59 722.274 L1902.48 722.274 Z" fill="#000000" fill-rule="nonzero" fill-opacity="1" /><polyline clip-path="url(#clip530)" style="stroke:#000000; stroke-linecap:round; stroke-linejoin:round; stroke-width:4; stroke-opacity:1; fill:none" points="1454.08,623.18 1454.08,47.2441 "/>
<polyline clip-path="url(#clip530)" style="stroke:#000000; stroke-linecap:round; stroke-linejoin:round; stroke-width:4; stroke-opacity:1; fill:none" points="1454.08,550.096 1472.97,550.096 "/>
<polyline clip-path="url(#clip530)" style="stroke:#000000; stroke-linecap:round; stroke-linejoin:round; stroke-width:4; stroke-opacity:1; fill:none" points="1454.08,434.664 1472.97,434.664 "/>
<polyline clip-path="url(#clip530)" style="stroke:#000000; stroke-linecap:round; stroke-linejoin:round; stroke-width:4; stroke-opacity:1; fill:none" points="1454.08,319.232 1472.97,319.232 "/>
<polyline clip-path="url(#clip530)" style="stroke:#000000; stroke-linecap:round; stroke-linejoin:round; stroke-width:4; stroke-opacity:1; fill:none" points="1454.08,203.799 1472.97,203.799 "/>
<polyline clip-path="url(#clip530)" style="stroke:#000000; stroke-linecap:round; stroke-linejoin:round; stroke-width:4; stroke-opacity:1; fill:none" points="1454.08,88.367 1472.97,88.367 "/>
<path clip-path="url(#clip530)" d="M1355.88 550.547 L1385.55 550.547 L1385.55 554.483 L1355.88 554.483 L1355.88 550.547 Z" fill="#000000" fill-rule="nonzero" fill-opacity="1" /><path clip-path="url(#clip530)" d="M1408.49 536.89 L1396.69 555.339 L1408.49 555.339 L1408.49 536.89 M1407.27 532.816 L1413.15 532.816 L1413.15 555.339 L1418.08 555.339 L1418.08 559.228 L1413.15 559.228 L1413.15 567.376 L1408.49 567.376 L1408.49 559.228 L1392.89 559.228 L1392.89 554.714 L1407.27 532.816 Z" fill="#000000" fill-rule="nonzero" fill-opacity="1" /><path clip-path="url(#clip530)" d="M1357.96 435.115 L1387.64 435.115 L1387.64 439.05 L1357.96 439.05 L1357.96 435.115 Z" fill="#000000" fill-rule="nonzero" fill-opacity="1" /><path clip-path="url(#clip530)" d="M1401.76 448.009 L1418.08 448.009 L1418.08 451.944 L1396.13 451.944 L1396.13 448.009 Q1398.79 445.254 1403.38 440.624 Q1407.98 435.972 1409.16 434.629 Q1411.41 432.106 1412.29 430.37 Q1413.19 428.611 1413.19 426.921 Q1413.19 424.166 1411.25 422.43 Q1409.33 420.694 1406.22 420.694 Q1404.03 420.694 1401.57 421.458 Q1399.14 422.222 1396.36 423.773 L1396.36 419.05 Q1399.19 417.916 1401.64 417.337 Q1404.09 416.759 1406.13 416.759 Q1411.5 416.759 1414.7 419.444 Q1417.89 422.129 1417.89 426.62 Q1417.89 428.749 1417.08 430.671 Q1416.29 432.569 1414.19 435.161 Q1413.61 435.833 1410.51 439.05 Q1407.4 442.245 1401.76 448.009 Z" fill="#000000" fill-rule="nonzero" fill-opacity="1" /><path clip-path="url(#clip530)" d="M1406.13 305.03 Q1402.52 305.03 1400.69 308.595 Q1398.89 312.137 1398.89 319.266 Q1398.89 326.373 1400.69 329.937 Q1402.52 333.479 1406.13 333.479 Q1409.77 333.479 1411.57 329.937 Q1413.4 326.373 1413.4 319.266 Q1413.4 312.137 1411.57 308.595 Q1409.77 305.03 1406.13 305.03 M1406.13 301.327 Q1411.94 301.327 1415 305.933 Q1418.08 310.516 1418.08 319.266 Q1418.08 327.993 1415 332.599 Q1411.94 337.183 1406.13 337.183 Q1400.32 337.183 1397.24 332.599 Q1394.19 327.993 1394.19 319.266 Q1394.19 310.516 1397.24 305.933 Q1400.32 301.327 1406.13 301.327 Z" fill="#000000" fill-rule="nonzero" fill-opacity="1" /><path clip-path="url(#clip530)" d="M1401.76 217.144 L1418.08 217.144 L1418.08 221.079 L1396.13 221.079 L1396.13 217.144 Q1398.79 214.389 1403.38 209.76 Q1407.98 205.107 1409.16 203.765 Q1411.41 201.241 1412.29 199.505 Q1413.19 197.746 1413.19 196.056 Q1413.19 193.302 1411.25 191.566 Q1409.33 189.829 1406.22 189.829 Q1404.03 189.829 1401.57 190.593 Q1399.14 191.357 1396.36 192.908 L1396.36 188.186 Q1399.19 187.052 1401.64 186.473 Q1404.09 185.894 1406.13 185.894 Q1411.5 185.894 1414.7 188.579 Q1417.89 191.265 1417.89 195.755 Q1417.89 197.885 1417.08 199.806 Q1416.29 201.704 1414.19 204.297 Q1413.61 204.968 1410.51 208.186 Q1407.4 211.38 1401.76 217.144 Z" fill="#000000" fill-rule="nonzero" fill-opacity="1" /><path clip-path="url(#clip530)" d="M1408.49 75.161 L1396.69 93.61 L1408.49 93.61 L1408.49 75.161 M1407.27 71.087 L1413.15 71.087 L1413.15 93.61 L1418.08 93.61 L1418.08 97.4989 L1413.15 97.4989 L1413.15 105.647 L1408.49 105.647 L1408.49 97.4989 L1392.89 97.4989 L1392.89 92.985 L1407.27 71.087 Z" fill="#000000" fill-rule="nonzero" fill-opacity="1" /><path clip-path="url(#clip530)" d="M1258.1 427.801 L1258.1 421.34 L1286.97 421.34 Q1294.61 421.34 1297.98 418.571 Q1301.32 415.802 1301.32 409.595 Q1301.32 403.421 1297.98 400.651 Q1294.61 397.882 1286.97 397.882 L1258.1 397.882 L1258.1 391.421 L1287.77 391.421 Q1297.06 391.421 1301.8 396.036 Q1306.54 400.62 1306.54 409.595 Q1306.54 418.603 1301.8 423.218 Q1297.06 427.801 1287.77 427.801 L1258.1 427.801 Z" fill="#000000" fill-rule="nonzero" fill-opacity="1" /><path clip-path="url(#clip530)" d="M1256.16 365.545 Q1263.48 369.81 1270.64 371.878 Q1277.8 373.947 1285.16 373.947 Q1292.51 373.947 1299.73 371.878 Q1306.93 369.778 1314.22 365.545 L1314.22 370.637 Q1306.74 375.411 1299.51 377.799 Q1292.29 380.154 1285.16 380.154 Q1278.06 380.154 1270.86 377.799 Q1263.67 375.443 1256.16 370.637 L1256.16 365.545 Z" fill="#000000" fill-rule="nonzero" fill-opacity="1" /><path clip-path="url(#clip530)" d="M1269.97 324.549 L1287.32 337.44 L1305.62 323.881 L1305.62 330.788 L1291.62 341.164 L1305.62 351.54 L1305.62 358.447 L1286.97 344.601 L1269.97 357.269 L1269.97 350.362 L1282.67 340.909 L1269.97 331.456 L1269.97 324.549 Z" fill="#000000" fill-rule="nonzero" fill-opacity="1" /><path clip-path="url(#clip530)" d="M1297.54 314.11 L1297.54 307.394 L1303.01 307.394 L1313.2 312.614 L1313.2 316.72 L1303.01 314.11 L1297.54 314.11 Z" fill="#000000" fill-rule="nonzero" fill-opacity="1" /><path clip-path="url(#clip530)" d="M1308.93 280.053 Q1315.3 282.536 1317.24 284.891 Q1319.18 287.246 1319.18 291.193 L1319.18 295.872 L1314.28 295.872 L1314.28 292.434 Q1314.28 290.015 1313.13 288.679 Q1311.99 287.342 1307.72 285.719 L1305.05 284.668 L1269.97 299.087 L1269.97 292.88 L1297.86 281.74 L1269.97 270.6 L1269.97 264.393 L1308.93 280.053 Z" fill="#000000" fill-rule="nonzero" fill-opacity="1" /><path clip-path="url(#clip530)" d="M1256.16 257.232 L1256.16 252.139 Q1263.67 247.365 1270.86 245.01 Q1278.06 242.623 1285.16 242.623 Q1292.29 242.623 1299.51 245.01 Q1306.74 247.365 1314.22 252.139 L1314.22 257.232 Q1306.93 252.999 1299.73 250.93 Q1292.51 248.829 1285.16 248.829 Q1277.8 248.829 1270.64 250.93 Q1263.48 252.999 1256.16 257.232 Z" fill="#000000" fill-rule="nonzero" fill-opacity="1" /><polyline clip-path="url(#clip533)" style="stroke:#ff0000; stroke-linecap:round; stroke-linejoin:round; stroke-width:4; stroke-opacity:1; fill:none" points="1479.51,573.742 1500.71,588.677 1521.9,598.811 1543.1,603.622 1564.29,601.846 1585.49,592.94 1606.68,577.927 1627.88,558.45 1649.07,536.371 1670.27,513.758 1691.46,492.477 1712.66,473.854 1733.85,458.498 1755.05,446.344 1776.24,436.941 1797.44,429.747 1818.63,424.277 1839.83,420.151 1861.03,417.109 1882.22,415.019 1903.42,413.89 1924.61,413.869 1945.81,415.208 1967,418.206 1988.2,423.132 2009.39,430.171 2030.59,439.397 2051.78,450.82 2072.98,464.55 2094.17,480.989 2115.37,500.602 2136.56,522.956 2157.76,545.926 2178.95,566.59 2200.15,583.047 2221.35,594.803 2242.54,601.534 2263.74,602.133 2284.93,595.637 2306.13,582.595 2327.32,564.551 "/>
<polyline clip-path="url(#clip533)" style="stroke:#ff0000; stroke-linecap:round; stroke-linejoin:round; stroke-width:4; stroke-opacity:1; fill:none" points="1479.51,94.0452 1500.71,79.3799 1521.9,68.7454 1543.1,63.6097 1564.29,66.109 1585.49,76.3599 1606.68,91.7657 1627.88,109.606 1649.07,128.205 1670.27,146.449 1691.46,163.528 1712.66,178.909 1733.85,192.312 1755.05,203.662 1776.24,213.018 1797.44,220.527 1818.63,226.391 1839.83,230.825 1861.03,233.999 1882.22,235.994 1903.42,236.775 1924.61,236.208 1945.81,234.128 1967,230.443 1988.2,225.189 2009.39,218.495 2030.59,210.454 2051.78,201.002 2072.98,189.801 2094.17,176.192 2115.37,159.524 2136.56,140.057 2157.76,119.614 2178.95,100.686 2200.15,84.8694 2221.35,72.8087 2242.54,65.5873 2263.74,65.3091 2284.93,73.0364 2306.13,86.9118 2327.32,104.023 "/>
<polyline clip-path="url(#clip533)" style="stroke:#000000; stroke-linecap:round; stroke-linejoin:round; stroke-width:4; stroke-opacity:1; fill:none" points="1479.51,571.307 1500.71,589.038 1521.9,601.416 1543.1,606.88 1564.29,604.349 1585.49,593.811 1606.68,576.768 1627.88,555.756 1649.07,533.405 1670.27,511.784 1691.46,492.175 1712.66,475.131 1733.85,460.696 1755.05,448.653 1776.24,438.718 1797.44,430.635 1818.63,424.2 1839.83,419.263 1861.03,415.72 1882.22,413.51 1903.42,412.619 1924.61,413.088 1945.81,415.014 1967,418.543 1988.2,423.842 2009.39,431.067 2030.59,440.345 2051.78,451.773 2072.98,465.443 2094.17,481.458 2115.37,499.877 2136.56,520.471 2157.76,542.339 2178.95,563.752 2200.15,582.55 2221.35,596.702 2242.54,604.527 2263.74,604.748 2284.93,596.914 2306.13,582.005 2327.32,562.275 "/>
<polyline clip-path="url(#clip533)" style="stroke:#000000; stroke-linecap:round; stroke-linejoin:round; stroke-width:4; stroke-opacity:1; fill:none" points="1479.51,95.1647 1500.71,79.4039 1521.9,68.4004 1543.1,63.5442 1564.29,65.7934 1585.49,75.1605 1606.68,90.3101 1627.88,108.988 1649.07,128.855 1670.27,148.074 1691.46,165.504 1712.66,180.654 1733.85,193.485 1755.05,204.191 1776.24,213.022 1797.44,220.207 1818.63,225.926 1839.83,230.314 1861.03,233.464 1882.22,235.429 1903.42,236.221 1924.61,235.804 1945.81,234.091 1967,230.954 1988.2,226.244 2009.39,219.822 2030.59,211.575 2051.78,201.417 2072.98,189.266 2094.17,175.03 2115.37,158.658 2136.56,140.352 2157.76,120.914 2178.95,101.88 2200.15,85.1706 2221.35,72.5914 2242.54,65.6356 2263.74,65.439 2284.93,72.4024 2306.13,85.655 2327.32,103.193 "/>
<path clip-path="url(#clip530)" d="M1778.98 603.982 L2322.8 603.982 L2322.8 448.462 L1778.98 448.462  Z" fill="#ffffff" fill-rule="evenodd" fill-opacity="1"/>
<polyline clip-path="url(#clip530)" style="stroke:#000000; stroke-linecap:round; stroke-linejoin:round; stroke-width:4; stroke-opacity:1; fill:none" points="1778.98,603.982 2322.8,603.982 2322.8,448.462 1778.98,448.462 1778.98,603.982 "/>
<polyline clip-path="url(#clip530)" style="stroke:#ff0000; stroke-linecap:round; stroke-linejoin:round; stroke-width:4; stroke-opacity:1; fill:none" points="1788.96,500.302 1848.87,500.302 "/>
<path clip-path="url(#clip530)" d="M1858.86 483.022 L1863.56 483.022 L1863.56 504.017 Q1863.56 509.573 1865.57 512.026 Q1867.59 514.457 1872.1 514.457 Q1876.59 514.457 1878.6 512.026 Q1880.62 509.573 1880.62 504.017 L1880.62 483.022 L1885.32 483.022 L1885.32 504.596 Q1885.32 511.355 1881.96 514.804 Q1878.63 518.253 1872.1 518.253 Q1865.55 518.253 1862.19 514.804 Q1858.86 511.355 1858.86 504.596 L1858.86 483.022 Z" fill="#000000" fill-rule="nonzero" fill-opacity="1" /><path clip-path="url(#clip530)" d="M1898.77 486.865 L1898.77 513.739 L1904.41 513.739 Q1911.57 513.739 1914.88 510.499 Q1918.21 507.258 1918.21 500.267 Q1918.21 493.323 1914.88 490.105 Q1911.57 486.865 1904.41 486.865 L1898.77 486.865 M1894.09 483.022 L1903.7 483.022 Q1913.74 483.022 1918.44 487.212 Q1923.14 491.378 1923.14 500.267 Q1923.14 509.202 1918.42 513.392 Q1913.7 517.582 1903.7 517.582 L1894.09 517.582 L1894.09 483.022 Z" fill="#000000" fill-rule="nonzero" fill-opacity="1" /><path clip-path="url(#clip530)" d="M1930.59 483.022 L1952.45 483.022 L1952.45 486.957 L1935.27 486.957 L1935.27 497.189 L1951.73 497.189 L1951.73 501.124 L1935.27 501.124 L1935.27 513.647 L1952.86 513.647 L1952.86 517.582 L1930.59 517.582 L1930.59 483.022 Z" fill="#000000" fill-rule="nonzero" fill-opacity="1" /><path clip-path="url(#clip530)" d="M1987.17 487.628 L1980.83 504.827 L1993.53 504.827 L1987.17 487.628 M1984.53 483.022 L1989.83 483.022 L2003 517.582 L1998.14 517.582 L1994.99 508.716 L1979.41 508.716 L1976.27 517.582 L1971.33 517.582 L1984.53 483.022 Z" fill="#000000" fill-rule="nonzero" fill-opacity="1" /><path clip-path="url(#clip530)" d="M2011.98 513.693 L2011.98 527.443 L2007.7 527.443 L2007.7 491.656 L2011.98 491.656 L2011.98 495.591 Q2013.33 493.277 2015.36 492.165 Q2017.42 491.031 2020.27 491.031 Q2024.99 491.031 2027.93 494.781 Q2030.89 498.531 2030.89 504.642 Q2030.89 510.753 2027.93 514.503 Q2024.99 518.253 2020.27 518.253 Q2017.42 518.253 2015.36 517.142 Q2013.33 516.008 2011.98 513.693 M2026.47 504.642 Q2026.47 499.943 2024.53 497.281 Q2022.61 494.596 2019.23 494.596 Q2015.85 494.596 2013.9 497.281 Q2011.98 499.943 2011.98 504.642 Q2011.98 509.341 2013.9 512.026 Q2015.85 514.688 2019.23 514.688 Q2022.61 514.688 2024.53 512.026 Q2026.47 509.341 2026.47 504.642 Z" fill="#000000" fill-rule="nonzero" fill-opacity="1" /><path clip-path="url(#clip530)" d="M2042.08 513.693 L2042.08 527.443 L2037.79 527.443 L2037.79 491.656 L2042.08 491.656 L2042.08 495.591 Q2043.42 493.277 2045.45 492.165 Q2047.52 491.031 2050.36 491.031 Q2055.08 491.031 2058.02 494.781 Q2060.99 498.531 2060.99 504.642 Q2060.99 510.753 2058.02 514.503 Q2055.08 518.253 2050.36 518.253 Q2047.52 518.253 2045.45 517.142 Q2043.42 516.008 2042.08 513.693 M2056.57 504.642 Q2056.57 499.943 2054.62 497.281 Q2052.7 494.596 2049.32 494.596 Q2045.94 494.596 2044 497.281 Q2042.08 499.943 2042.08 504.642 Q2042.08 509.341 2044 512.026 Q2045.94 514.688 2049.32 514.688 Q2052.7 514.688 2054.62 512.026 Q2056.57 509.341 2056.57 504.642 Z" fill="#000000" fill-rule="nonzero" fill-opacity="1" /><path clip-path="url(#clip530)" d="M2083.07 495.638 Q2082.35 495.221 2081.5 495.036 Q2080.66 494.827 2079.64 494.827 Q2076.03 494.827 2074.09 497.189 Q2072.17 499.527 2072.17 503.925 L2072.17 517.582 L2067.89 517.582 L2067.89 491.656 L2072.17 491.656 L2072.17 495.684 Q2073.51 493.323 2075.66 492.189 Q2077.82 491.031 2080.89 491.031 Q2081.33 491.031 2081.87 491.101 Q2082.4 491.147 2083.05 491.263 L2083.07 495.638 Z" fill="#000000" fill-rule="nonzero" fill-opacity="1" /><path clip-path="url(#clip530)" d="M2096.54 494.642 Q2093.12 494.642 2091.13 497.327 Q2089.14 499.989 2089.14 504.642 Q2089.14 509.295 2091.1 511.98 Q2093.09 514.642 2096.54 514.642 Q2099.95 514.642 2101.94 511.957 Q2103.93 509.272 2103.93 504.642 Q2103.93 500.036 2101.94 497.351 Q2099.95 494.642 2096.54 494.642 M2096.54 491.031 Q2102.1 491.031 2105.27 494.642 Q2108.44 498.253 2108.44 504.642 Q2108.44 511.008 2105.27 514.642 Q2102.1 518.253 2096.54 518.253 Q2090.96 518.253 2087.79 514.642 Q2084.64 511.008 2084.64 504.642 Q2084.64 498.253 2087.79 494.642 Q2090.96 491.031 2096.54 491.031 Z" fill="#000000" fill-rule="nonzero" fill-opacity="1" /><path clip-path="url(#clip530)" d="M2135.59 491.656 L2126.22 504.272 L2136.08 517.582 L2131.06 517.582 L2123.51 507.397 L2115.96 517.582 L2110.94 517.582 L2121.01 504.017 L2111.8 491.656 L2116.82 491.656 L2123.7 500.892 L2130.57 491.656 L2135.59 491.656 Z" fill="#000000" fill-rule="nonzero" fill-opacity="1" /><path clip-path="url(#clip530)" d="M2142.1 491.656 L2146.36 491.656 L2146.36 517.582 L2142.1 517.582 L2142.1 491.656 M2142.1 481.564 L2146.36 481.564 L2146.36 486.957 L2142.1 486.957 L2142.1 481.564 Z" fill="#000000" fill-rule="nonzero" fill-opacity="1" /><path clip-path="url(#clip530)" d="M2175.45 496.633 Q2177.05 493.763 2179.27 492.397 Q2181.5 491.031 2184.51 491.031 Q2188.56 491.031 2190.76 493.878 Q2192.95 496.702 2192.95 501.934 L2192.95 517.582 L2188.67 517.582 L2188.67 502.073 Q2188.67 498.346 2187.35 496.54 Q2186.03 494.735 2183.32 494.735 Q2180.01 494.735 2178.09 496.934 Q2176.17 499.133 2176.17 502.929 L2176.17 517.582 L2171.89 517.582 L2171.89 502.073 Q2171.89 498.323 2170.57 496.54 Q2169.25 494.735 2166.5 494.735 Q2163.23 494.735 2161.31 496.957 Q2159.39 499.156 2159.39 502.929 L2159.39 517.582 L2155.11 517.582 L2155.11 491.656 L2159.39 491.656 L2159.39 495.684 Q2160.85 493.3 2162.88 492.165 Q2164.92 491.031 2167.72 491.031 Q2170.55 491.031 2172.51 492.466 Q2174.51 493.902 2175.45 496.633 Z" fill="#000000" fill-rule="nonzero" fill-opacity="1" /><path clip-path="url(#clip530)" d="M2213.23 504.55 Q2208.07 504.55 2206.08 505.73 Q2204.09 506.911 2204.09 509.758 Q2204.09 512.026 2205.57 513.369 Q2207.07 514.688 2209.64 514.688 Q2213.19 514.688 2215.32 512.188 Q2217.47 509.665 2217.47 505.499 L2217.47 504.55 L2213.23 504.55 M2221.73 502.79 L2221.73 517.582 L2217.47 517.582 L2217.47 513.647 Q2216.01 516.008 2213.83 517.142 Q2211.66 518.253 2208.51 518.253 Q2204.53 518.253 2202.17 516.031 Q2199.83 513.786 2199.83 510.036 Q2199.83 505.661 2202.75 503.439 Q2205.69 501.216 2211.5 501.216 L2217.47 501.216 L2217.47 500.8 Q2217.47 497.86 2215.52 496.263 Q2213.6 494.642 2210.11 494.642 Q2207.88 494.642 2205.78 495.175 Q2203.67 495.707 2201.73 496.772 L2201.73 492.837 Q2204.07 491.934 2206.26 491.494 Q2208.46 491.031 2210.55 491.031 Q2216.17 491.031 2218.95 493.948 Q2221.73 496.865 2221.73 502.79 Z" fill="#000000" fill-rule="nonzero" fill-opacity="1" /><path clip-path="url(#clip530)" d="M2234.71 484.295 L2234.71 491.656 L2243.49 491.656 L2243.49 494.966 L2234.71 494.966 L2234.71 509.04 Q2234.71 512.212 2235.57 513.114 Q2236.45 514.017 2239.11 514.017 L2243.49 514.017 L2243.49 517.582 L2239.11 517.582 Q2234.18 517.582 2232.31 515.753 Q2230.43 513.901 2230.43 509.04 L2230.43 494.966 L2227.31 494.966 L2227.31 491.656 L2230.43 491.656 L2230.43 484.295 L2234.71 484.295 Z" fill="#000000" fill-rule="nonzero" fill-opacity="1" /><path clip-path="url(#clip530)" d="M2249.09 491.656 L2253.35 491.656 L2253.35 517.582 L2249.09 517.582 L2249.09 491.656 M2249.09 481.564 L2253.35 481.564 L2253.35 486.957 L2249.09 486.957 L2249.09 481.564 Z" fill="#000000" fill-rule="nonzero" fill-opacity="1" /><path clip-path="url(#clip530)" d="M2272.31 494.642 Q2268.88 494.642 2266.89 497.327 Q2264.9 499.989 2264.9 504.642 Q2264.9 509.295 2266.87 511.98 Q2268.86 514.642 2272.31 514.642 Q2275.71 514.642 2277.7 511.957 Q2279.69 509.272 2279.69 504.642 Q2279.69 500.036 2277.7 497.351 Q2275.71 494.642 2272.31 494.642 M2272.31 491.031 Q2277.86 491.031 2281.03 494.642 Q2284.2 498.253 2284.2 504.642 Q2284.2 511.008 2281.03 514.642 Q2277.86 518.253 2272.31 518.253 Q2266.73 518.253 2263.56 514.642 Q2260.41 511.008 2260.41 504.642 Q2260.41 498.253 2263.56 494.642 Q2266.73 491.031 2272.31 491.031 Z" fill="#000000" fill-rule="nonzero" fill-opacity="1" /><path clip-path="url(#clip530)" d="M2312.81 501.934 L2312.81 517.582 L2308.56 517.582 L2308.56 502.073 Q2308.56 498.392 2307.12 496.564 Q2305.68 494.735 2302.81 494.735 Q2299.37 494.735 2297.37 496.934 Q2295.38 499.133 2295.38 502.929 L2295.38 517.582 L2291.1 517.582 L2291.1 491.656 L2295.38 491.656 L2295.38 495.684 Q2296.91 493.346 2298.97 492.189 Q2301.06 491.031 2303.76 491.031 Q2308.23 491.031 2310.52 493.809 Q2312.81 496.564 2312.81 501.934 Z" fill="#000000" fill-rule="nonzero" fill-opacity="1" /><polyline clip-path="url(#clip530)" style="stroke:#000000; stroke-linecap:round; stroke-linejoin:round; stroke-width:4; stroke-opacity:1; fill:none" points="1788.96,552.142 1848.87,552.142 "/>
<path clip-path="url(#clip530)" d="M1858.86 534.862 L1888.09 534.862 L1888.09 538.797 L1875.83 538.797 L1875.83 569.422 L1871.13 569.422 L1871.13 538.797 L1858.86 538.797 L1858.86 534.862 Z" fill="#000000" fill-rule="nonzero" fill-opacity="1" /><path clip-path="url(#clip530)" d="M1900.48 547.478 Q1899.76 547.061 1898.9 546.876 Q1898.07 546.667 1897.05 546.667 Q1893.44 546.667 1891.5 549.029 Q1889.58 551.367 1889.58 555.765 L1889.58 569.422 L1885.29 569.422 L1885.29 543.496 L1889.58 543.496 L1889.58 547.524 Q1890.92 545.163 1893.07 544.029 Q1895.22 542.871 1898.3 542.871 Q1898.74 542.871 1899.28 542.941 Q1899.81 542.987 1900.46 543.103 L1900.48 547.478 Z" fill="#000000" fill-rule="nonzero" fill-opacity="1" /><path clip-path="url(#clip530)" d="M1904.51 559.191 L1904.51 543.496 L1908.77 543.496 L1908.77 559.029 Q1908.77 562.709 1910.2 564.561 Q1911.64 566.39 1914.51 566.39 Q1917.96 566.39 1919.95 564.191 Q1921.96 561.991 1921.96 558.195 L1921.96 543.496 L1926.22 543.496 L1926.22 569.422 L1921.96 569.422 L1921.96 565.441 Q1920.41 567.802 1918.35 568.959 Q1916.31 570.093 1913.6 570.093 Q1909.14 570.093 1906.82 567.316 Q1904.51 564.538 1904.51 559.191 M1915.22 542.871 L1915.22 542.871 Z" fill="#000000" fill-rule="nonzero" fill-opacity="1" /><path clip-path="url(#clip530)" d="M1957.17 555.394 L1957.17 557.478 L1937.59 557.478 Q1937.86 561.876 1940.22 564.191 Q1942.61 566.482 1946.84 566.482 Q1949.3 566.482 1951.59 565.88 Q1953.9 565.278 1956.17 564.075 L1956.17 568.103 Q1953.88 569.075 1951.47 569.584 Q1949.07 570.093 1946.59 570.093 Q1940.39 570.093 1936.75 566.482 Q1933.14 562.871 1933.14 556.714 Q1933.14 550.348 1936.57 546.621 Q1940.02 542.871 1945.85 542.871 Q1951.08 542.871 1954.11 546.251 Q1957.17 549.607 1957.17 555.394 M1952.91 554.144 Q1952.86 550.649 1950.94 548.566 Q1949.04 546.482 1945.9 546.482 Q1942.33 546.482 1940.18 548.496 Q1938.05 550.51 1937.72 554.167 L1952.91 554.144 Z" fill="#000000" fill-rule="nonzero" fill-opacity="1" /><path clip-path="url(#clip530)" d="M1979.41 534.862 L1984.09 534.862 L1984.09 569.422 L1979.41 569.422 L1979.41 534.862 Z" fill="#000000" fill-rule="nonzero" fill-opacity="1" /><path clip-path="url(#clip530)" d="M2014.76 553.774 L2014.76 569.422 L2010.5 569.422 L2010.5 553.913 Q2010.5 550.232 2009.07 548.404 Q2007.63 546.575 2004.76 546.575 Q2001.31 546.575 1999.32 548.774 Q1997.33 550.973 1997.33 554.769 L1997.33 569.422 L1993.05 569.422 L1993.05 543.496 L1997.33 543.496 L1997.33 547.524 Q1998.86 545.186 2000.92 544.029 Q2003 542.871 2005.71 542.871 Q2010.18 542.871 2012.47 545.649 Q2014.76 548.404 2014.76 553.774 Z" fill="#000000" fill-rule="nonzero" fill-opacity="1" /><path clip-path="url(#clip530)" d="M2027.47 536.135 L2027.47 543.496 L2036.24 543.496 L2036.24 546.806 L2027.47 546.806 L2027.47 560.88 Q2027.47 564.052 2028.33 564.954 Q2029.2 565.857 2031.87 565.857 L2036.24 565.857 L2036.24 569.422 L2031.87 569.422 Q2026.94 569.422 2025.06 567.593 Q2023.19 565.741 2023.19 560.88 L2023.19 546.806 L2020.06 546.806 L2020.06 543.496 L2023.19 543.496 L2023.19 536.135 L2027.47 536.135 Z" fill="#000000" fill-rule="nonzero" fill-opacity="1" /><path clip-path="url(#clip530)" d="M2064.02 555.394 L2064.02 557.478 L2044.44 557.478 Q2044.71 561.876 2047.08 564.191 Q2049.46 566.482 2053.7 566.482 Q2056.15 566.482 2058.44 565.88 Q2060.76 565.278 2063.02 564.075 L2063.02 568.103 Q2060.73 569.075 2058.33 569.584 Q2055.92 570.093 2053.44 570.093 Q2047.24 570.093 2043.6 566.482 Q2039.99 562.871 2039.99 556.714 Q2039.99 550.348 2043.42 546.621 Q2046.87 542.871 2052.7 542.871 Q2057.93 542.871 2060.96 546.251 Q2064.02 549.607 2064.02 555.394 M2059.76 554.144 Q2059.71 550.649 2057.79 548.566 Q2055.89 546.482 2052.75 546.482 Q2049.18 546.482 2047.03 548.496 Q2044.9 550.51 2044.58 554.167 L2059.76 554.144 Z" fill="#000000" fill-rule="nonzero" fill-opacity="1" /><path clip-path="url(#clip530)" d="M2086.03 547.478 Q2085.32 547.061 2084.46 546.876 Q2083.63 546.667 2082.61 546.667 Q2079 546.667 2077.05 549.029 Q2075.13 551.367 2075.13 555.765 L2075.13 569.422 L2070.85 569.422 L2070.85 543.496 L2075.13 543.496 L2075.13 547.524 Q2076.47 545.163 2078.63 544.029 Q2080.78 542.871 2083.86 542.871 Q2084.3 542.871 2084.83 542.941 Q2085.36 542.987 2086.01 543.103 L2086.03 547.478 Z" fill="#000000" fill-rule="nonzero" fill-opacity="1" /><path clip-path="url(#clip530)" d="M2102.28 556.39 Q2097.12 556.39 2095.13 557.57 Q2093.14 558.751 2093.14 561.598 Q2093.14 563.866 2094.62 565.209 Q2096.13 566.528 2098.7 566.528 Q2102.24 566.528 2104.37 564.028 Q2106.52 561.505 2106.52 557.339 L2106.52 556.39 L2102.28 556.39 M2110.78 554.63 L2110.78 569.422 L2106.52 569.422 L2106.52 565.487 Q2105.06 567.848 2102.89 568.982 Q2100.71 570.093 2097.56 570.093 Q2093.58 570.093 2091.22 567.871 Q2088.88 565.626 2088.88 561.876 Q2088.88 557.501 2091.8 555.279 Q2094.74 553.056 2100.55 553.056 L2106.52 553.056 L2106.52 552.64 Q2106.52 549.7 2104.57 548.103 Q2102.65 546.482 2099.16 546.482 Q2096.94 546.482 2094.83 547.015 Q2092.72 547.547 2090.78 548.612 L2090.78 544.677 Q2093.12 543.774 2095.32 543.334 Q2097.51 542.871 2099.6 542.871 Q2105.22 542.871 2108 545.788 Q2110.78 548.705 2110.78 554.63 Z" fill="#000000" fill-rule="nonzero" fill-opacity="1" /><path clip-path="url(#clip530)" d="M2138.21 544.492 L2138.21 548.473 Q2136.4 547.478 2134.57 546.992 Q2132.77 546.482 2130.92 546.482 Q2126.77 546.482 2124.48 549.121 Q2122.19 551.737 2122.19 556.482 Q2122.19 561.228 2124.48 563.866 Q2126.77 566.482 2130.92 566.482 Q2132.77 566.482 2134.57 565.996 Q2136.4 565.487 2138.21 564.491 L2138.21 568.427 Q2136.43 569.26 2134.51 569.677 Q2132.61 570.093 2130.45 570.093 Q2124.6 570.093 2121.15 566.413 Q2117.7 562.732 2117.7 556.482 Q2117.7 550.14 2121.17 546.505 Q2124.67 542.871 2130.73 542.871 Q2132.7 542.871 2134.57 543.288 Q2136.45 543.681 2138.21 544.492 Z" fill="#000000" fill-rule="nonzero" fill-opacity="1" /><path clip-path="url(#clip530)" d="M2149.83 536.135 L2149.83 543.496 L2158.6 543.496 L2158.6 546.806 L2149.83 546.806 L2149.83 560.88 Q2149.83 564.052 2150.69 564.954 Q2151.57 565.857 2154.23 565.857 L2158.6 565.857 L2158.6 569.422 L2154.23 569.422 Q2149.3 569.422 2147.42 567.593 Q2145.55 565.741 2145.55 560.88 L2145.55 546.806 L2142.42 546.806 L2142.42 543.496 L2145.55 543.496 L2145.55 536.135 L2149.83 536.135 Z" fill="#000000" fill-rule="nonzero" fill-opacity="1" /><path clip-path="url(#clip530)" d="M2164.2 543.496 L2168.46 543.496 L2168.46 569.422 L2164.2 569.422 L2164.2 543.496 M2164.2 533.404 L2168.46 533.404 L2168.46 538.797 L2164.2 538.797 L2164.2 533.404 Z" fill="#000000" fill-rule="nonzero" fill-opacity="1" /><path clip-path="url(#clip530)" d="M2187.42 546.482 Q2184 546.482 2182.01 549.167 Q2180.01 551.829 2180.01 556.482 Q2180.01 561.135 2181.98 563.82 Q2183.97 566.482 2187.42 566.482 Q2190.82 566.482 2192.82 563.797 Q2194.81 561.112 2194.81 556.482 Q2194.81 551.876 2192.82 549.191 Q2190.82 546.482 2187.42 546.482 M2187.42 542.871 Q2192.98 542.871 2196.15 546.482 Q2199.32 550.093 2199.32 556.482 Q2199.32 562.848 2196.15 566.482 Q2192.98 570.093 2187.42 570.093 Q2181.84 570.093 2178.67 566.482 Q2175.52 562.848 2175.52 556.482 Q2175.52 550.093 2178.67 546.482 Q2181.84 542.871 2187.42 542.871 Z" fill="#000000" fill-rule="nonzero" fill-opacity="1" /><path clip-path="url(#clip530)" d="M2227.93 553.774 L2227.93 569.422 L2223.67 569.422 L2223.67 553.913 Q2223.67 550.232 2222.24 548.404 Q2220.8 546.575 2217.93 546.575 Q2214.48 546.575 2212.49 548.774 Q2210.5 550.973 2210.5 554.769 L2210.5 569.422 L2206.22 569.422 L2206.22 543.496 L2210.5 543.496 L2210.5 547.524 Q2212.03 545.186 2214.09 544.029 Q2216.17 542.871 2218.88 542.871 Q2223.35 542.871 2225.64 545.649 Q2227.93 548.404 2227.93 553.774 Z" fill="#000000" fill-rule="nonzero" fill-opacity="1" /><path clip-path="url(#clip530)" d="M1454.08 1423.18 L2352.76 1423.18 L2352.76 847.244 L1454.08 847.244  Z" fill="#ffffff" fill-rule="evenodd" fill-opacity="1"/>
<polyline clip-path="url(#clip531)" style="stroke:#000000; stroke-linecap:round; stroke-linejoin:round; stroke-width:2; stroke-opacity:0.1; fill:none" points="1479.51,1423.18 1479.51,847.244 "/>
<polyline clip-path="url(#clip531)" style="stroke:#000000; stroke-linecap:round; stroke-linejoin:round; stroke-width:2; stroke-opacity:0.1; fill:none" points="1649.07,1423.18 1649.07,847.244 "/>
<polyline clip-path="url(#clip531)" style="stroke:#000000; stroke-linecap:round; stroke-linejoin:round; stroke-width:2; stroke-opacity:0.1; fill:none" points="1818.63,1423.18 1818.63,847.244 "/>
<polyline clip-path="url(#clip531)" style="stroke:#000000; stroke-linecap:round; stroke-linejoin:round; stroke-width:2; stroke-opacity:0.1; fill:none" points="1988.2,1423.18 1988.2,847.244 "/>
<polyline clip-path="url(#clip531)" style="stroke:#000000; stroke-linecap:round; stroke-linejoin:round; stroke-width:2; stroke-opacity:0.1; fill:none" points="2157.76,1423.18 2157.76,847.244 "/>
<polyline clip-path="url(#clip531)" style="stroke:#000000; stroke-linecap:round; stroke-linejoin:round; stroke-width:2; stroke-opacity:0.1; fill:none" points="2327.32,1423.18 2327.32,847.244 "/>
<polyline clip-path="url(#clip531)" style="stroke:#000000; stroke-linecap:round; stroke-linejoin:round; stroke-width:2; stroke-opacity:0.1; fill:none" points="1454.08,1421.12 2352.76,1421.12 "/>
<polyline clip-path="url(#clip531)" style="stroke:#000000; stroke-linecap:round; stroke-linejoin:round; stroke-width:2; stroke-opacity:0.1; fill:none" points="1454.08,1209.96 2352.76,1209.96 "/>
<polyline clip-path="url(#clip531)" style="stroke:#000000; stroke-linecap:round; stroke-linejoin:round; stroke-width:2; stroke-opacity:0.1; fill:none" points="1454.08,998.796 2352.76,998.796 "/>
<polyline clip-path="url(#clip530)" style="stroke:#000000; stroke-linecap:round; stroke-linejoin:round; stroke-width:4; stroke-opacity:1; fill:none" points="1454.08,1423.18 2352.76,1423.18 "/>
<polyline clip-path="url(#clip530)" style="stroke:#000000; stroke-linecap:round; stroke-linejoin:round; stroke-width:4; stroke-opacity:1; fill:none" points="1479.51,1423.18 1479.51,1404.28 "/>
<polyline clip-path="url(#clip530)" style="stroke:#000000; stroke-linecap:round; stroke-linejoin:round; stroke-width:4; stroke-opacity:1; fill:none" points="1649.07,1423.18 1649.07,1404.28 "/>
<polyline clip-path="url(#clip530)" style="stroke:#000000; stroke-linecap:round; stroke-linejoin:round; stroke-width:4; stroke-opacity:1; fill:none" points="1818.63,1423.18 1818.63,1404.28 "/>
<polyline clip-path="url(#clip530)" style="stroke:#000000; stroke-linecap:round; stroke-linejoin:round; stroke-width:4; stroke-opacity:1; fill:none" points="1988.2,1423.18 1988.2,1404.28 "/>
<polyline clip-path="url(#clip530)" style="stroke:#000000; stroke-linecap:round; stroke-linejoin:round; stroke-width:4; stroke-opacity:1; fill:none" points="2157.76,1423.18 2157.76,1404.28 "/>
<polyline clip-path="url(#clip530)" style="stroke:#000000; stroke-linecap:round; stroke-linejoin:round; stroke-width:4; stroke-opacity:1; fill:none" points="2327.32,1423.18 2327.32,1404.28 "/>
<path clip-path="url(#clip530)" d="M1479.51 1454.1 Q1475.9 1454.1 1474.07 1457.66 Q1472.27 1461.2 1472.27 1468.33 Q1472.27 1475.44 1474.07 1479.01 Q1475.9 1482.55 1479.51 1482.55 Q1483.14 1482.55 1484.95 1479.01 Q1486.78 1475.44 1486.78 1468.33 Q1486.78 1461.2 1484.95 1457.66 Q1483.14 1454.1 1479.51 1454.1 M1479.51 1450.39 Q1485.32 1450.39 1488.38 1455 Q1491.45 1459.58 1491.45 1468.33 Q1491.45 1477.06 1488.38 1481.67 Q1485.32 1486.25 1479.51 1486.25 Q1473.7 1486.25 1470.62 1481.67 Q1467.57 1477.06 1467.57 1468.33 Q1467.57 1459.58 1470.62 1455 Q1473.7 1450.39 1479.51 1450.39 Z" fill="#000000" fill-rule="nonzero" fill-opacity="1" /><path clip-path="url(#clip530)" d="M1639.45 1481.64 L1647.09 1481.64 L1647.09 1455.28 L1638.78 1456.95 L1638.78 1452.69 L1647.05 1451.02 L1651.72 1451.02 L1651.72 1481.64 L1659.36 1481.64 L1659.36 1485.58 L1639.45 1485.58 L1639.45 1481.64 Z" fill="#000000" fill-rule="nonzero" fill-opacity="1" /><path clip-path="url(#clip530)" d="M1813.29 1481.64 L1829.61 1481.64 L1829.61 1485.58 L1807.66 1485.58 L1807.66 1481.64 Q1810.32 1478.89 1814.91 1474.26 Q1819.51 1469.61 1820.7 1468.27 Q1822.94 1465.74 1823.82 1464.01 Q1824.72 1462.25 1824.72 1460.56 Q1824.72 1457.8 1822.78 1456.07 Q1820.86 1454.33 1817.76 1454.33 Q1815.56 1454.33 1813.1 1455.09 Q1810.67 1455.86 1807.89 1457.41 L1807.89 1452.69 Q1810.72 1451.55 1813.17 1450.97 Q1815.63 1450.39 1817.66 1450.39 Q1823.03 1450.39 1826.23 1453.08 Q1829.42 1455.77 1829.42 1460.26 Q1829.42 1462.39 1828.61 1464.31 Q1827.82 1466.2 1825.72 1468.8 Q1825.14 1469.47 1822.04 1472.69 Q1818.94 1475.88 1813.29 1481.64 Z" fill="#000000" fill-rule="nonzero" fill-opacity="1" /><path clip-path="url(#clip530)" d="M1992.44 1466.95 Q1995.8 1467.66 1997.68 1469.93 Q1999.57 1472.2 1999.57 1475.53 Q1999.57 1480.65 1996.06 1483.45 Q1992.54 1486.25 1986.06 1486.25 Q1983.88 1486.25 1981.57 1485.81 Q1979.27 1485.39 1976.82 1484.54 L1976.82 1480.02 Q1978.76 1481.16 1981.08 1481.74 Q1983.39 1482.32 1985.92 1482.32 Q1990.32 1482.32 1992.61 1480.58 Q1994.92 1478.84 1994.92 1475.53 Q1994.92 1472.48 1992.77 1470.77 Q1990.64 1469.03 1986.82 1469.03 L1982.79 1469.03 L1982.79 1465.19 L1987.01 1465.19 Q1990.45 1465.19 1992.28 1463.82 Q1994.11 1462.43 1994.11 1459.84 Q1994.11 1457.18 1992.21 1455.77 Q1990.34 1454.33 1986.82 1454.33 Q1984.9 1454.33 1982.7 1454.75 Q1980.5 1455.16 1977.86 1456.04 L1977.86 1451.88 Q1980.52 1451.14 1982.84 1450.77 Q1985.18 1450.39 1987.24 1450.39 Q1992.56 1450.39 1995.66 1452.83 Q1998.76 1455.23 1998.76 1459.35 Q1998.76 1462.22 1997.12 1464.21 Q1995.48 1466.18 1992.44 1466.95 Z" fill="#000000" fill-rule="nonzero" fill-opacity="1" /><path clip-path="url(#clip530)" d="M2160.77 1455.09 L2148.96 1473.54 L2160.77 1473.54 L2160.77 1455.09 M2159.54 1451.02 L2165.42 1451.02 L2165.42 1473.54 L2170.35 1473.54 L2170.35 1477.43 L2165.42 1477.43 L2165.42 1485.58 L2160.77 1485.58 L2160.77 1477.43 L2145.17 1477.43 L2145.17 1472.92 L2159.54 1451.02 Z" fill="#000000" fill-rule="nonzero" fill-opacity="1" /><path clip-path="url(#clip530)" d="M2317.6 1451.02 L2335.96 1451.02 L2335.96 1454.96 L2321.88 1454.96 L2321.88 1463.43 Q2322.9 1463.08 2323.92 1462.92 Q2324.94 1462.73 2325.96 1462.73 Q2331.74 1462.73 2335.12 1465.9 Q2338.5 1469.08 2338.5 1474.49 Q2338.5 1480.07 2335.03 1483.17 Q2331.56 1486.25 2325.24 1486.25 Q2323.06 1486.25 2320.79 1485.88 Q2318.55 1485.51 2316.14 1484.77 L2316.14 1480.07 Q2318.22 1481.2 2320.45 1481.76 Q2322.67 1482.32 2325.15 1482.32 Q2329.15 1482.32 2331.49 1480.21 Q2333.83 1478.1 2333.83 1474.49 Q2333.83 1470.88 2331.49 1468.77 Q2329.15 1466.67 2325.15 1466.67 Q2323.27 1466.67 2321.4 1467.08 Q2319.54 1467.5 2317.6 1468.38 L2317.6 1451.02 Z" fill="#000000" fill-rule="nonzero" fill-opacity="1" /><path clip-path="url(#clip530)" d="M1902.48 1522.27 L1902.48 1532.4 L1914.54 1532.4 L1914.54 1536.95 L1902.48 1536.95 L1902.48 1556.3 Q1902.48 1560.66 1903.65 1561.9 Q1904.86 1563.14 1908.52 1563.14 L1914.54 1563.14 L1914.54 1568.04 L1908.52 1568.04 Q1901.75 1568.04 1899.17 1565.53 Q1896.59 1562.98 1896.59 1556.3 L1896.59 1536.95 L1892.29 1536.95 L1892.29 1532.4 L1896.59 1532.4 L1896.59 1522.27 L1902.48 1522.27 Z" fill="#000000" fill-rule="nonzero" fill-opacity="1" /><polyline clip-path="url(#clip530)" style="stroke:#000000; stroke-linecap:round; stroke-linejoin:round; stroke-width:4; stroke-opacity:1; fill:none" points="1454.08,1423.18 1454.08,847.244 "/>
<polyline clip-path="url(#clip530)" style="stroke:#000000; stroke-linecap:round; stroke-linejoin:round; stroke-width:4; stroke-opacity:1; fill:none" points="1454.08,1421.12 1472.97,1421.12 "/>
<polyline clip-path="url(#clip530)" style="stroke:#000000; stroke-linecap:round; stroke-linejoin:round; stroke-width:4; stroke-opacity:1; fill:none" points="1454.08,1209.96 1472.97,1209.96 "/>
<polyline clip-path="url(#clip530)" style="stroke:#000000; stroke-linecap:round; stroke-linejoin:round; stroke-width:4; stroke-opacity:1; fill:none" points="1454.08,998.796 1472.97,998.796 "/>
<path clip-path="url(#clip530)" d="M1280.7 1440.92 L1288.34 1440.92 L1288.34 1414.55 L1280.03 1416.22 L1280.03 1411.96 L1288.29 1410.29 L1292.97 1410.29 L1292.97 1440.92 L1300.6 1440.92 L1300.6 1444.85 L1280.7 1444.85 L1280.7 1440.92 Z" fill="#000000" fill-rule="nonzero" fill-opacity="1" /><path clip-path="url(#clip530)" d="M1320.05 1413.37 Q1316.44 1413.37 1314.61 1416.93 Q1312.8 1420.48 1312.8 1427.61 Q1312.8 1434.71 1314.61 1438.28 Q1316.44 1441.82 1320.05 1441.82 Q1323.68 1441.82 1325.49 1438.28 Q1327.32 1434.71 1327.32 1427.61 Q1327.32 1420.48 1325.49 1416.93 Q1323.68 1413.37 1320.05 1413.37 M1320.05 1409.67 Q1325.86 1409.67 1328.91 1414.27 Q1331.99 1418.86 1331.99 1427.61 Q1331.99 1436.33 1328.91 1440.94 Q1325.86 1445.52 1320.05 1445.52 Q1314.24 1445.52 1311.16 1440.94 Q1308.1 1436.33 1308.1 1427.61 Q1308.1 1418.86 1311.16 1414.27 Q1314.24 1409.67 1320.05 1409.67 Z" fill="#000000" fill-rule="nonzero" fill-opacity="1" /><path clip-path="url(#clip530)" d="M1331.99 1403.77 L1356.1 1403.77 L1356.1 1406.96 L1331.99 1406.96 L1331.99 1403.77 Z" fill="#000000" fill-rule="nonzero" fill-opacity="1" /><path clip-path="url(#clip530)" d="M1367.58 1414.24 L1380.84 1414.24 L1380.84 1417.44 L1363.01 1417.44 L1363.01 1414.24 Q1365.17 1412 1368.89 1408.24 Q1372.64 1404.46 1373.6 1403.37 Q1375.42 1401.32 1376.13 1399.91 Q1376.87 1398.48 1376.87 1397.11 Q1376.87 1394.87 1375.29 1393.46 Q1373.73 1392.05 1371.21 1392.05 Q1369.42 1392.05 1367.43 1392.67 Q1365.45 1393.29 1363.2 1394.55 L1363.2 1390.71 Q1365.49 1389.79 1367.48 1389.32 Q1369.48 1388.85 1371.13 1388.85 Q1375.5 1388.85 1378.09 1391.03 Q1380.69 1393.22 1380.69 1396.86 Q1380.69 1398.59 1380.03 1400.16 Q1379.39 1401.7 1377.68 1403.8 Q1377.21 1404.35 1374.69 1406.96 Q1372.17 1409.56 1367.58 1414.24 Z" fill="#000000" fill-rule="nonzero" fill-opacity="1" /><path clip-path="url(#clip530)" d="M1388.81 1412.66 L1392.78 1412.66 L1392.78 1417.44 L1388.81 1417.44 L1388.81 1412.66 Z" fill="#000000" fill-rule="nonzero" fill-opacity="1" /><path clip-path="url(#clip530)" d="M1401.09 1389.36 L1416.01 1389.36 L1416.01 1392.56 L1404.57 1392.56 L1404.57 1399.44 Q1405.4 1399.16 1406.23 1399.03 Q1407.05 1398.88 1407.88 1398.88 Q1412.58 1398.88 1415.33 1401.45 Q1418.08 1404.03 1418.08 1408.43 Q1418.08 1412.96 1415.25 1415.48 Q1412.43 1417.99 1407.3 1417.99 Q1405.53 1417.99 1403.69 1417.68 Q1401.86 1417.38 1399.91 1416.78 L1399.91 1412.96 Q1401.6 1413.89 1403.41 1414.34 Q1405.21 1414.79 1407.22 1414.79 Q1410.48 1414.79 1412.38 1413.08 Q1414.28 1411.37 1414.28 1408.43 Q1414.28 1405.5 1412.38 1403.79 Q1410.48 1402.07 1407.22 1402.07 Q1405.7 1402.07 1404.18 1402.41 Q1402.67 1402.75 1401.09 1403.47 L1401.09 1389.36 Z" fill="#000000" fill-rule="nonzero" fill-opacity="1" /><path clip-path="url(#clip530)" d="M1279.89 1229.75 L1287.53 1229.75 L1287.53 1203.39 L1279.22 1205.05 L1279.22 1200.79 L1287.48 1199.13 L1292.16 1199.13 L1292.16 1229.75 L1299.8 1229.75 L1299.8 1233.69 L1279.89 1233.69 L1279.89 1229.75 Z" fill="#000000" fill-rule="nonzero" fill-opacity="1" /><path clip-path="url(#clip530)" d="M1319.24 1202.21 Q1315.63 1202.21 1313.8 1205.77 Q1311.99 1209.31 1311.99 1216.44 Q1311.99 1223.55 1313.8 1227.11 Q1315.63 1230.65 1319.24 1230.65 Q1322.87 1230.65 1324.68 1227.11 Q1326.51 1223.55 1326.51 1216.44 Q1326.51 1209.31 1324.68 1205.77 Q1322.87 1202.21 1319.24 1202.21 M1319.24 1198.5 Q1325.05 1198.5 1328.11 1203.11 Q1331.18 1207.69 1331.18 1216.44 Q1331.18 1225.17 1328.11 1229.78 Q1325.05 1234.36 1319.24 1234.36 Q1313.43 1234.36 1310.35 1229.78 Q1307.3 1225.17 1307.3 1216.44 Q1307.3 1207.69 1310.35 1203.11 Q1313.43 1198.5 1319.24 1198.5 Z" fill="#000000" fill-rule="nonzero" fill-opacity="1" /><path clip-path="url(#clip530)" d="M1331.18 1192.6 L1355.3 1192.6 L1355.3 1195.8 L1331.18 1195.8 L1331.18 1192.6 Z" fill="#000000" fill-rule="nonzero" fill-opacity="1" /><path clip-path="url(#clip530)" d="M1366.77 1203.08 L1380.03 1203.08 L1380.03 1206.28 L1362.2 1206.28 L1362.2 1203.08 Q1364.36 1200.84 1368.09 1197.08 Q1371.83 1193.3 1372.79 1192.21 Q1374.61 1190.16 1375.33 1188.75 Q1376.06 1187.32 1376.06 1185.95 Q1376.06 1183.71 1374.48 1182.3 Q1372.92 1180.89 1370.4 1180.89 Q1368.61 1180.89 1366.62 1181.51 Q1364.64 1182.13 1362.39 1183.39 L1362.39 1179.55 Q1364.68 1178.63 1366.67 1178.16 Q1368.67 1177.69 1370.32 1177.69 Q1374.69 1177.69 1377.28 1179.87 Q1379.88 1182.05 1379.88 1185.7 Q1379.88 1187.43 1379.22 1188.99 Q1378.58 1190.53 1376.87 1192.64 Q1376.4 1193.19 1373.88 1195.8 Q1371.36 1198.4 1366.77 1203.08 Z" fill="#000000" fill-rule="nonzero" fill-opacity="1" /><path clip-path="url(#clip530)" d="M1388 1201.5 L1391.97 1201.5 L1391.97 1206.28 L1388 1206.28 L1388 1201.5 Z" fill="#000000" fill-rule="nonzero" fill-opacity="1" /><path clip-path="url(#clip530)" d="M1408.37 1180.7 Q1405.44 1180.7 1403.95 1183.59 Q1402.48 1186.47 1402.48 1192.27 Q1402.48 1198.04 1403.95 1200.94 Q1405.44 1203.81 1408.37 1203.81 Q1411.32 1203.81 1412.79 1200.94 Q1414.28 1198.04 1414.28 1192.27 Q1414.28 1186.47 1412.79 1183.59 Q1411.32 1180.7 1408.37 1180.7 M1408.37 1177.69 Q1413.09 1177.69 1415.57 1181.43 Q1418.08 1185.16 1418.08 1192.27 Q1418.08 1199.36 1415.57 1203.1 Q1413.09 1206.82 1408.37 1206.82 Q1403.65 1206.82 1401.15 1203.1 Q1398.67 1199.36 1398.67 1192.27 Q1398.67 1185.16 1401.15 1181.43 Q1403.65 1177.69 1408.37 1177.69 Z" fill="#000000" fill-rule="nonzero" fill-opacity="1" /><path clip-path="url(#clip530)" d="M1280.7 1018.59 L1288.34 1018.59 L1288.34 992.223 L1280.03 993.89 L1280.03 989.63 L1288.29 987.964 L1292.97 987.964 L1292.97 1018.59 L1300.6 1018.59 L1300.6 1022.52 L1280.7 1022.52 L1280.7 1018.59 Z" fill="#000000" fill-rule="nonzero" fill-opacity="1" /><path clip-path="url(#clip530)" d="M1320.05 991.042 Q1316.44 991.042 1314.61 994.607 Q1312.8 998.149 1312.8 1005.28 Q1312.8 1012.38 1314.61 1015.95 Q1316.44 1019.49 1320.05 1019.49 Q1323.68 1019.49 1325.49 1015.95 Q1327.32 1012.38 1327.32 1005.28 Q1327.32 998.149 1325.49 994.607 Q1323.68 991.042 1320.05 991.042 M1320.05 987.339 Q1325.86 987.339 1328.91 991.945 Q1331.99 996.529 1331.99 1005.28 Q1331.99 1014.01 1328.91 1018.61 Q1325.86 1023.2 1320.05 1023.2 Q1314.24 1023.2 1311.16 1018.61 Q1308.1 1014.01 1308.1 1005.28 Q1308.1 996.529 1311.16 991.945 Q1314.24 987.339 1320.05 987.339 Z" fill="#000000" fill-rule="nonzero" fill-opacity="1" /><path clip-path="url(#clip530)" d="M1331.99 981.44 L1356.1 981.44 L1356.1 984.637 L1331.99 984.637 L1331.99 981.44 Z" fill="#000000" fill-rule="nonzero" fill-opacity="1" /><path clip-path="url(#clip530)" d="M1364.96 991.916 L1371.17 991.916 L1371.17 970.494 L1364.42 971.848 L1364.42 968.388 L1371.13 967.033 L1374.93 967.033 L1374.93 991.916 L1381.14 991.916 L1381.14 995.113 L1364.96 995.113 L1364.96 991.916 Z" fill="#000000" fill-rule="nonzero" fill-opacity="1" /><path clip-path="url(#clip530)" d="M1388.81 990.336 L1392.78 990.336 L1392.78 995.113 L1388.81 995.113 L1388.81 990.336 Z" fill="#000000" fill-rule="nonzero" fill-opacity="1" /><path clip-path="url(#clip530)" d="M1401.09 967.033 L1416.01 967.033 L1416.01 970.231 L1404.57 970.231 L1404.57 977.114 Q1405.4 976.832 1406.23 976.701 Q1407.05 976.55 1407.88 976.55 Q1412.58 976.55 1415.33 979.127 Q1418.08 981.703 1418.08 986.104 Q1418.08 990.637 1415.25 993.157 Q1412.43 995.659 1407.3 995.659 Q1405.53 995.659 1403.69 995.358 Q1401.86 995.057 1399.91 994.455 L1399.91 990.637 Q1401.6 991.559 1403.41 992.01 Q1405.21 992.462 1407.22 992.462 Q1410.48 992.462 1412.38 990.75 Q1414.28 989.038 1414.28 986.104 Q1414.28 983.17 1412.38 981.459 Q1410.48 979.747 1407.22 979.747 Q1405.7 979.747 1404.18 980.086 Q1402.67 980.425 1401.09 981.139 L1401.09 967.033 Z" fill="#000000" fill-rule="nonzero" fill-opacity="1" /><path clip-path="url(#clip530)" d="M1181.44 1262.11 L1181.44 1255.68 L1223.55 1255.68 L1223.55 1232.54 L1228.96 1232.54 L1228.96 1262.11 L1181.44 1262.11 Z" fill="#000000" fill-rule="nonzero" fill-opacity="1" /><path clip-path="url(#clip530)" d="M1223.55 1219.68 L1223.55 1197.25 L1228.96 1197.25 L1228.96 1227.42 L1223.55 1227.42 Q1219.76 1223.76 1213.4 1217.46 Q1207 1211.12 1205.15 1209.5 Q1201.68 1206.41 1199.3 1205.2 Q1196.88 1203.96 1194.55 1203.96 Q1190.77 1203.96 1188.38 1206.64 Q1185.99 1209.28 1185.99 1213.54 Q1185.99 1216.57 1187.04 1219.94 Q1188.09 1223.28 1190.23 1227.1 L1183.73 1227.1 Q1182.17 1223.22 1181.38 1219.84 Q1180.58 1216.47 1180.58 1213.67 Q1180.58 1206.29 1184.27 1201.89 Q1187.97 1197.5 1194.14 1197.5 Q1197.07 1197.5 1199.71 1198.61 Q1202.32 1199.7 1205.89 1202.59 Q1206.81 1203.39 1211.23 1207.65 Q1215.62 1211.92 1223.55 1219.68 Z" fill="#000000" fill-rule="nonzero" fill-opacity="1" /><path clip-path="url(#clip530)" d="M1208.5 1187.54 L1208.5 1170.38 L1213.72 1170.38 L1213.72 1187.54 L1208.5 1187.54 Z" fill="#000000" fill-rule="nonzero" fill-opacity="1" /><path clip-path="url(#clip530)" d="M1181.44 1160.8 L1181.44 1130.76 L1186.85 1130.76 L1186.85 1154.37 L1200.92 1154.37 L1200.92 1131.74 L1206.33 1131.74 L1206.33 1154.37 L1223.55 1154.37 L1223.55 1130.18 L1228.96 1130.18 L1228.96 1160.8 L1181.44 1160.8 Z" fill="#000000" fill-rule="nonzero" fill-opacity="1" /><path clip-path="url(#clip530)" d="M1198.79 1099.21 Q1198.21 1100.2 1197.96 1101.38 Q1197.67 1102.52 1197.67 1103.92 Q1197.67 1108.89 1200.92 1111.56 Q1204.13 1114.21 1210.18 1114.21 L1228.96 1114.21 L1228.96 1120.09 L1193.31 1120.09 L1193.31 1114.21 L1198.85 1114.21 Q1195.6 1112.36 1194.05 1109.4 Q1192.45 1106.44 1192.45 1102.21 Q1192.45 1101.6 1192.55 1100.87 Q1192.61 1100.14 1192.77 1099.25 L1198.79 1099.21 Z" fill="#000000" fill-rule="nonzero" fill-opacity="1" /><path clip-path="url(#clip530)" d="M1198.79 1073.56 Q1198.21 1074.55 1197.96 1075.72 Q1197.67 1076.87 1197.67 1078.27 Q1197.67 1083.24 1200.92 1085.91 Q1204.13 1088.55 1210.18 1088.55 L1228.96 1088.55 L1228.96 1094.44 L1193.31 1094.44 L1193.31 1088.55 L1198.85 1088.55 Q1195.6 1086.71 1194.05 1083.75 Q1192.45 1080.79 1192.45 1076.55 Q1192.45 1075.95 1192.55 1075.22 Q1192.61 1074.48 1192.77 1073.59 L1198.79 1073.56 Z" fill="#000000" fill-rule="nonzero" fill-opacity="1" /><path clip-path="url(#clip530)" d="M1197.42 1055.04 Q1197.42 1059.75 1201.11 1062.48 Q1204.77 1065.22 1211.17 1065.22 Q1217.57 1065.22 1221.26 1062.52 Q1224.92 1059.78 1224.92 1055.04 Q1224.92 1050.36 1221.23 1047.62 Q1217.53 1044.88 1211.17 1044.88 Q1204.83 1044.88 1201.14 1047.62 Q1197.42 1050.36 1197.42 1055.04 M1192.45 1055.04 Q1192.45 1047.4 1197.42 1043.04 Q1202.38 1038.68 1211.17 1038.68 Q1219.92 1038.68 1224.92 1043.04 Q1229.88 1047.4 1229.88 1055.04 Q1229.88 1062.71 1224.92 1067.07 Q1219.92 1071.4 1211.17 1071.4 Q1202.38 1071.4 1197.42 1067.07 Q1192.45 1062.71 1192.45 1055.04 Z" fill="#000000" fill-rule="nonzero" fill-opacity="1" /><path clip-path="url(#clip530)" d="M1198.79 1008.31 Q1198.21 1009.3 1197.96 1010.48 Q1197.67 1011.62 1197.67 1013.02 Q1197.67 1017.99 1200.92 1020.66 Q1204.13 1023.3 1210.18 1023.3 L1228.96 1023.3 L1228.96 1029.19 L1193.31 1029.19 L1193.31 1023.3 L1198.85 1023.3 Q1195.6 1021.46 1194.05 1018.5 Q1192.45 1015.54 1192.45 1011.3 Q1192.45 1010.7 1192.55 1009.97 Q1192.61 1009.23 1192.77 1008.34 L1198.79 1008.31 Z" fill="#000000" fill-rule="nonzero" fill-opacity="1" /><polyline clip-path="url(#clip531)" style="stroke:#ff0000; stroke-linecap:round; stroke-linejoin:round; stroke-width:4; stroke-opacity:1; fill:none" points="1479.51,928.311 1500.71,1295.93 1521.9,931.899 1543.1,892.485 1564.29,939.366 1585.49,1036.92 1606.68,995.27 1627.88,922.668 1649.07,905.39 1670.27,936.988 1691.46,982.134 1712.66,967.695 1733.85,941.746 1755.05,951.029 1776.24,1003.73 1797.44,1119.77 1818.63,1247.02 1839.83,1104.75 1861.03,1036.24 1882.22,1021.66 1903.42,1049.19 1924.61,1132.76 1945.81,1406.88 1967,1198.91 1988.2,1065.03 2009.39,1022.78 2030.59,1038.78 2051.78,1102.14 2072.98,1101.84 2094.17,1067.72 2115.37,1086.81 2136.56,940.951 2157.76,863.544 2178.95,902.875 2200.15,1208.76 2221.35,990.392 2242.54,908.036 2263.74,932.625 2284.93,1044.03 2306.13,1048.99 2327.32,946.865 "/>
</svg>
