<?xml version="1.0" encoding="utf-8"?>
<svg xmlns="http://www.w3.org/2000/svg" xmlns:xlink="http://www.w3.org/1999/xlink" width="600" height="400" viewBox="0 0 2400 1600">
<defs>
  <clipPath id="clip740">
    <rect x="0" y="0" width="2400" height="1600"/>
  </clipPath>
</defs>
<path clip-path="url(#clip740)" d="M0 1600 L2400 1600 L2400 0 L0 0  Z" fill="#ffffff" fill-rule="evenodd" fill-opacity="1"/>
<defs>
  <clipPath id="clip741">
    <rect x="155" y="47" width="2198" height="1377"/>
  </clipPath>
</defs>
<path clip-path="url(#clip740)" d="M155.765 1423.18 L2352.76 1423.18 L2352.76 47.2441 L155.765 47.2441  Z" fill="#ffffff" fill-rule="evenodd" fill-opacity="1"/>
<polyline clip-path="url(#clip741)" style="stroke:#000000; stroke-linecap:round; stroke-linejoin:round; stroke-width:2; stroke-opacity:0.1; fill:none" points="155.765,1423.18 155.765,47.2441 "/>
<polyline clip-path="url(#clip741)" style="stroke:#000000; stroke-linecap:round; stroke-linejoin:round; stroke-width:2; stroke-opacity:0.1; fill:none" points="595.163,1423.18 595.163,47.2441 "/>
<polyline clip-path="url(#clip741)" style="stroke:#000000; stroke-linecap:round; stroke-linejoin:round; stroke-width:2; stroke-opacity:0.1; fill:none" points="1034.56,1423.18 1034.56,47.2441 "/>
<polyline clip-path="url(#clip741)" style="stroke:#000000; stroke-linecap:round; stroke-linejoin:round; stroke-width:2; stroke-opacity:0.1; fill:none" points="1473.96,1423.18 1473.96,47.2441 "/>
<polyline clip-path="url(#clip741)" style="stroke:#000000; stroke-linecap:round; stroke-linejoin:round; stroke-width:2; stroke-opacity:0.1; fill:none" points="1913.36,1423.18 1913.36,47.2441 "/>
<polyline clip-path="url(#clip741)" style="stroke:#000000; stroke-linecap:round; stroke-linejoin:round; stroke-width:2; stroke-opacity:0.1; fill:none" points="2352.76,1423.18 2352.76,47.2441 "/>
<polyline clip-path="url(#clip741)" style="stroke:#000000; stroke-linecap:round; stroke-linejoin:round; stroke-width:2; stroke-opacity:0.1; fill:none" points="155.765,1336.21 2352.76,1336.21 "/>
<polyline clip-path="url(#clip741)" style="stroke:#000000; stroke-linecap:round; stroke-linejoin:round; stroke-width:2; stroke-opacity:0.1; fill:none" points="155.765,1046.26 2352.76,1046.26 "/>
<polyline clip-path="url(#clip741)" style="stroke:#000000; stroke-linecap:round; stroke-linejoin:round; stroke-width:2; stroke-opacity:0.1; fill:none" points="155.765,756.32 2352.76,756.32 "/>
<polyline clip-path="url(#clip741)" style="stroke:#000000; stroke-linecap:round; stroke-linejoin:round; stroke-width:2; stroke-opacity:0.1; fill:none" points="155.765,466.377 2352.76,466.377 "/>
<polyline clip-path="url(#clip741)" style="stroke:#000000; stroke-linecap:round; stroke-linejoin:round; stroke-width:2; stroke-opacity:0.1; fill:none" points="155.765,176.434 2352.76,176.434 "/>
<polyline clip-path="url(#clip740)" style="stroke:#000000; stroke-linecap:round; stroke-linejoin:round; stroke-width:4; stroke-opacity:1; fill:none" points="155.765,1423.18 2352.76,1423.18 "/>
<polyline clip-path="url(#clip740)" style="stroke:#000000; stroke-linecap:round; stroke-linejoin:round; stroke-width:4; stroke-opacity:1; fill:none" points="155.765,1423.18 155.765,1404.28 "/>
<polyline clip-path="url(#clip740)" style="stroke:#000000; stroke-linecap:round; stroke-linejoin:round; stroke-width:4; stroke-opacity:1; fill:none" points="595.163,1423.18 595.163,1404.28 "/>
<polyline clip-path="url(#clip740)" style="stroke:#000000; stroke-linecap:round; stroke-linejoin:round; stroke-width:4; stroke-opacity:1; fill:none" points="1034.56,1423.18 1034.56,1404.28 "/>
<polyline clip-path="url(#clip740)" style="stroke:#000000; stroke-linecap:round; stroke-linejoin:round; stroke-width:4; stroke-opacity:1; fill:none" points="1473.96,1423.18 1473.96,1404.28 "/>
<polyline clip-path="url(#clip740)" style="stroke:#000000; stroke-linecap:round; stroke-linejoin:round; stroke-width:4; stroke-opacity:1; fill:none" points="1913.36,1423.18 1913.36,1404.28 "/>
<polyline clip-path="url(#clip740)" style="stroke:#000000; stroke-linecap:round; stroke-linejoin:round; stroke-width:4; stroke-opacity:1; fill:none" points="2352.76,1423.18 2352.76,1404.28 "/>
<path clip-path="url(#clip740)" d="M155.765 1454.1 Q152.154 1454.1 150.325 1457.66 Q148.52 1461.2 148.52 1468.33 Q148.52 1475.44 150.325 1479.01 Q152.154 1482.55 155.765 1482.55 Q159.399 1482.55 161.205 1479.01 Q163.033 1475.44 163.033 1468.33 Q163.033 1461.2 161.205 1457.66 Q159.399 1454.1 155.765 1454.1 M155.765 1450.39 Q161.575 1450.39 164.631 1455 Q167.709 1459.58 167.709 1468.33 Q167.709 1477.06 164.631 1481.67 Q161.575 1486.25 155.765 1486.25 Q149.955 1486.25 146.876 1481.67 Q143.821 1477.06 143.821 1468.33 Q143.821 1459.58 146.876 1455 Q149.955 1450.39 155.765 1450.39 Z" fill="#000000" fill-rule="nonzero" fill-opacity="1" /><path clip-path="url(#clip740)" d="M569.851 1481.64 L577.49 1481.64 L577.49 1455.28 L569.179 1456.95 L569.179 1452.69 L577.443 1451.02 L582.119 1451.02 L582.119 1481.64 L589.758 1481.64 L589.758 1485.58 L569.851 1485.58 L569.851 1481.64 Z" fill="#000000" fill-rule="nonzero" fill-opacity="1" /><path clip-path="url(#clip740)" d="M609.202 1454.1 Q605.591 1454.1 603.763 1457.66 Q601.957 1461.2 601.957 1468.33 Q601.957 1475.44 603.763 1479.01 Q605.591 1482.55 609.202 1482.55 Q612.837 1482.55 614.642 1479.01 Q616.471 1475.44 616.471 1468.33 Q616.471 1461.2 614.642 1457.66 Q612.837 1454.1 609.202 1454.1 M609.202 1450.39 Q615.013 1450.39 618.068 1455 Q621.147 1459.58 621.147 1468.33 Q621.147 1477.06 618.068 1481.67 Q615.013 1486.25 609.202 1486.25 Q603.392 1486.25 600.314 1481.67 Q597.258 1477.06 597.258 1468.33 Q597.258 1459.58 600.314 1455 Q603.392 1450.39 609.202 1450.39 Z" fill="#000000" fill-rule="nonzero" fill-opacity="1" /><path clip-path="url(#clip740)" d="M1013.33 1481.64 L1029.65 1481.64 L1029.65 1485.58 L1007.71 1485.58 L1007.71 1481.64 Q1010.37 1478.89 1014.95 1474.26 Q1019.56 1469.61 1020.74 1468.27 Q1022.99 1465.74 1023.87 1464.01 Q1024.77 1462.25 1024.77 1460.56 Q1024.77 1457.8 1022.83 1456.07 Q1020.9 1454.33 1017.8 1454.33 Q1015.6 1454.33 1013.15 1455.09 Q1010.72 1455.86 1007.94 1457.41 L1007.94 1452.69 Q1010.77 1451.55 1013.22 1450.97 Q1015.67 1450.39 1017.71 1450.39 Q1023.08 1450.39 1026.27 1453.08 Q1029.47 1455.77 1029.47 1460.26 Q1029.47 1462.39 1028.66 1464.31 Q1027.87 1466.2 1025.77 1468.8 Q1025.19 1469.47 1022.08 1472.69 Q1018.98 1475.88 1013.33 1481.64 Z" fill="#000000" fill-rule="nonzero" fill-opacity="1" /><path clip-path="url(#clip740)" d="M1049.47 1454.1 Q1045.86 1454.1 1044.03 1457.66 Q1042.22 1461.2 1042.22 1468.33 Q1042.22 1475.44 1044.03 1479.01 Q1045.86 1482.55 1049.47 1482.55 Q1053.1 1482.55 1054.91 1479.01 Q1056.74 1475.44 1056.74 1468.33 Q1056.74 1461.2 1054.91 1457.66 Q1053.1 1454.1 1049.47 1454.1 M1049.47 1450.39 Q1055.28 1450.39 1058.33 1455 Q1061.41 1459.58 1061.41 1468.33 Q1061.41 1477.06 1058.33 1481.67 Q1055.28 1486.25 1049.47 1486.25 Q1043.66 1486.25 1040.58 1481.67 Q1037.52 1477.06 1037.52 1468.33 Q1037.52 1459.58 1040.58 1455 Q1043.66 1450.39 1049.47 1450.39 Z" fill="#000000" fill-rule="nonzero" fill-opacity="1" /><path clip-path="url(#clip740)" d="M1462.8 1466.95 Q1466.16 1467.66 1468.03 1469.93 Q1469.93 1472.2 1469.93 1475.53 Q1469.93 1480.65 1466.41 1483.45 Q1462.89 1486.25 1456.41 1486.25 Q1454.24 1486.25 1451.92 1485.81 Q1449.63 1485.39 1447.18 1484.54 L1447.18 1480.02 Q1449.12 1481.16 1451.44 1481.74 Q1453.75 1482.32 1456.27 1482.32 Q1460.67 1482.32 1462.96 1480.58 Q1465.28 1478.84 1465.28 1475.53 Q1465.28 1472.48 1463.13 1470.77 Q1461 1469.03 1457.18 1469.03 L1453.15 1469.03 L1453.15 1465.19 L1457.36 1465.19 Q1460.81 1465.19 1462.64 1463.82 Q1464.47 1462.43 1464.47 1459.84 Q1464.47 1457.18 1462.57 1455.77 Q1460.7 1454.33 1457.18 1454.33 Q1455.26 1454.33 1453.06 1454.75 Q1450.86 1455.16 1448.22 1456.04 L1448.22 1451.88 Q1450.88 1451.14 1453.2 1450.77 Q1455.53 1450.39 1457.59 1450.39 Q1462.92 1450.39 1466.02 1452.83 Q1469.12 1455.23 1469.12 1459.35 Q1469.12 1462.22 1467.48 1464.21 Q1465.83 1466.18 1462.8 1466.95 Z" fill="#000000" fill-rule="nonzero" fill-opacity="1" /><path clip-path="url(#clip740)" d="M1488.8 1454.1 Q1485.19 1454.1 1483.36 1457.66 Q1481.55 1461.2 1481.55 1468.33 Q1481.55 1475.44 1483.36 1479.01 Q1485.19 1482.55 1488.8 1482.55 Q1492.43 1482.55 1494.24 1479.01 Q1496.07 1475.44 1496.07 1468.33 Q1496.07 1461.2 1494.24 1457.66 Q1492.43 1454.1 1488.8 1454.1 M1488.8 1450.39 Q1494.61 1450.39 1497.66 1455 Q1500.74 1459.58 1500.74 1468.33 Q1500.74 1477.06 1497.66 1481.67 Q1494.61 1486.25 1488.8 1486.25 Q1482.99 1486.25 1479.91 1481.67 Q1476.85 1477.06 1476.85 1468.33 Q1476.85 1459.58 1479.91 1455 Q1482.99 1450.39 1488.8 1450.39 Z" fill="#000000" fill-rule="nonzero" fill-opacity="1" /><path clip-path="url(#clip740)" d="M1901.53 1455.09 L1889.72 1473.54 L1901.53 1473.54 L1901.53 1455.09 M1900.3 1451.02 L1906.18 1451.02 L1906.18 1473.54 L1911.11 1473.54 L1911.11 1477.43 L1906.18 1477.43 L1906.18 1485.58 L1901.53 1485.58 L1901.53 1477.43 L1885.93 1477.43 L1885.93 1472.92 L1900.3 1451.02 Z" fill="#000000" fill-rule="nonzero" fill-opacity="1" /><path clip-path="url(#clip740)" d="M1928.84 1454.1 Q1925.23 1454.1 1923.4 1457.66 Q1921.6 1461.2 1921.6 1468.33 Q1921.6 1475.44 1923.4 1479.01 Q1925.23 1482.55 1928.84 1482.55 Q1932.48 1482.55 1934.28 1479.01 Q1936.11 1475.44 1936.11 1468.33 Q1936.11 1461.2 1934.28 1457.66 Q1932.48 1454.1 1928.84 1454.1 M1928.84 1450.39 Q1934.65 1450.39 1937.71 1455 Q1940.79 1459.58 1940.79 1468.33 Q1940.79 1477.06 1937.71 1481.67 Q1934.65 1486.25 1928.84 1486.25 Q1923.03 1486.25 1919.95 1481.67 Q1916.9 1477.06 1916.9 1468.33 Q1916.9 1459.58 1919.95 1455 Q1923.03 1450.39 1928.84 1450.39 Z" fill="#000000" fill-rule="nonzero" fill-opacity="1" /><path clip-path="url(#clip740)" d="M2327.46 1451.02 L2345.81 1451.02 L2345.81 1454.96 L2331.74 1454.96 L2331.74 1463.43 Q2332.76 1463.08 2333.77 1462.92 Q2334.79 1462.73 2335.81 1462.73 Q2341.6 1462.73 2344.98 1465.9 Q2348.36 1469.08 2348.36 1474.49 Q2348.36 1480.07 2344.89 1483.17 Q2341.41 1486.25 2335.09 1486.25 Q2332.92 1486.25 2330.65 1485.88 Q2328.4 1485.51 2326 1484.77 L2326 1480.07 Q2328.08 1481.2 2330.3 1481.76 Q2332.52 1482.32 2335 1482.32 Q2339.01 1482.32 2341.34 1480.21 Q2343.68 1478.1 2343.68 1474.49 Q2343.68 1470.88 2341.34 1468.77 Q2339.01 1466.67 2335 1466.67 Q2333.13 1466.67 2331.25 1467.08 Q2329.4 1467.5 2327.46 1468.38 L2327.46 1451.02 Z" fill="#000000" fill-rule="nonzero" fill-opacity="1" /><path clip-path="url(#clip740)" d="M2367.57 1454.1 Q2363.96 1454.1 2362.13 1457.66 Q2360.33 1461.2 2360.33 1468.33 Q2360.33 1475.44 2362.13 1479.01 Q2363.96 1482.55 2367.57 1482.55 Q2371.2 1482.55 2373.01 1479.01 Q2374.84 1475.44 2374.84 1468.33 Q2374.84 1461.2 2373.01 1457.66 Q2371.2 1454.1 2367.57 1454.1 M2367.57 1450.39 Q2373.38 1450.39 2376.44 1455 Q2379.52 1459.58 2379.52 1468.33 Q2379.52 1477.06 2376.44 1481.67 Q2373.38 1486.25 2367.57 1486.25 Q2361.76 1486.25 2358.68 1481.67 Q2355.63 1477.06 2355.63 1468.33 Q2355.63 1459.58 2358.68 1455 Q2361.76 1450.39 2367.57 1450.39 Z" fill="#000000" fill-rule="nonzero" fill-opacity="1" /><path clip-path="url(#clip740)" d="M1253.32 1522.27 L1253.32 1532.4 L1265.38 1532.4 L1265.38 1536.95 L1253.32 1536.95 L1253.32 1556.3 Q1253.32 1560.66 1254.5 1561.9 Q1255.71 1563.14 1259.37 1563.14 L1265.38 1563.14 L1265.38 1568.04 L1259.37 1568.04 Q1252.59 1568.04 1250.01 1565.53 Q1247.43 1562.98 1247.43 1556.3 L1247.43 1536.95 L1243.14 1536.95 L1243.14 1532.4 L1247.43 1532.4 L1247.43 1522.27 L1253.32 1522.27 Z" fill="#000000" fill-rule="nonzero" fill-opacity="1" /><polyline clip-path="url(#clip740)" style="stroke:#000000; stroke-linecap:round; stroke-linejoin:round; stroke-width:4; stroke-opacity:1; fill:none" points="155.765,1423.18 155.765,47.2441 "/>
<polyline clip-path="url(#clip740)" style="stroke:#000000; stroke-linecap:round; stroke-linejoin:round; stroke-width:4; stroke-opacity:1; fill:none" points="155.765,1336.21 174.663,1336.21 "/>
<polyline clip-path="url(#clip740)" style="stroke:#000000; stroke-linecap:round; stroke-linejoin:round; stroke-width:4; stroke-opacity:1; fill:none" points="155.765,1046.26 174.663,1046.26 "/>
<polyline clip-path="url(#clip740)" style="stroke:#000000; stroke-linecap:round; stroke-linejoin:round; stroke-width:4; stroke-opacity:1; fill:none" points="155.765,756.32 174.663,756.32 "/>
<polyline clip-path="url(#clip740)" style="stroke:#000000; stroke-linecap:round; stroke-linejoin:round; stroke-width:4; stroke-opacity:1; fill:none" points="155.765,466.377 174.663,466.377 "/>
<polyline clip-path="url(#clip740)" style="stroke:#000000; stroke-linecap:round; stroke-linejoin:round; stroke-width:4; stroke-opacity:1; fill:none" points="155.765,176.434 174.663,176.434 "/>
<path clip-path="url(#clip740)" d="M53.3995 1349.55 L61.0384 1349.55 L61.0384 1323.18 L52.7282 1324.85 L52.7282 1320.59 L60.9921 1318.93 L65.668 1318.93 L65.668 1349.55 L73.3068 1349.55 L73.3068 1353.49 L53.3995 1353.49 L53.3995 1349.55 Z" fill="#000000" fill-rule="nonzero" fill-opacity="1" /><path clip-path="url(#clip740)" d="M82.7512 1347.61 L87.6354 1347.61 L87.6354 1353.49 L82.7512 1353.49 L82.7512 1347.61 Z" fill="#000000" fill-rule="nonzero" fill-opacity="1" /><path clip-path="url(#clip740)" d="M107.821 1322 Q104.209 1322 102.381 1325.57 Q100.575 1329.11 100.575 1336.24 Q100.575 1343.35 102.381 1346.91 Q104.209 1350.45 107.821 1350.45 Q111.455 1350.45 113.26 1346.91 Q115.089 1343.35 115.089 1336.24 Q115.089 1329.11 113.26 1325.57 Q111.455 1322 107.821 1322 M107.821 1318.3 Q113.631 1318.3 116.686 1322.91 Q119.765 1327.49 119.765 1336.24 Q119.765 1344.97 116.686 1349.57 Q113.631 1354.16 107.821 1354.16 Q102.01 1354.16 98.9317 1349.57 Q95.8761 1344.97 95.8761 1336.24 Q95.8761 1327.49 98.9317 1322.91 Q102.01 1318.3 107.821 1318.3 Z" fill="#000000" fill-rule="nonzero" fill-opacity="1" /><path clip-path="url(#clip740)" d="M54.3949 1059.61 L62.0337 1059.61 L62.0337 1033.24 L53.7236 1034.91 L53.7236 1030.65 L61.9874 1028.98 L66.6633 1028.98 L66.6633 1059.61 L74.3022 1059.61 L74.3022 1063.54 L54.3949 1063.54 L54.3949 1059.61 Z" fill="#000000" fill-rule="nonzero" fill-opacity="1" /><path clip-path="url(#clip740)" d="M83.7466 1057.66 L88.6308 1057.66 L88.6308 1063.54 L83.7466 1063.54 L83.7466 1057.66 Z" fill="#000000" fill-rule="nonzero" fill-opacity="1" /><path clip-path="url(#clip740)" d="M98.8622 1028.98 L117.219 1028.98 L117.219 1032.92 L103.145 1032.92 L103.145 1041.39 Q104.163 1041.04 105.182 1040.88 Q106.2 1040.7 107.219 1040.7 Q113.006 1040.7 116.385 1043.87 Q119.765 1047.04 119.765 1052.45 Q119.765 1058.03 116.293 1061.14 Q112.82 1064.21 106.501 1064.21 Q104.325 1064.21 102.057 1063.84 Q99.8113 1063.47 97.4039 1062.73 L97.4039 1058.03 Q99.4872 1059.17 101.709 1059.72 Q103.932 1060.28 106.408 1060.28 Q110.413 1060.28 112.751 1058.17 Q115.089 1056.07 115.089 1052.45 Q115.089 1048.84 112.751 1046.74 Q110.413 1044.63 106.408 1044.63 Q104.534 1044.63 102.659 1045.05 Q100.807 1045.46 98.8622 1046.34 L98.8622 1028.98 Z" fill="#000000" fill-rule="nonzero" fill-opacity="1" /><path clip-path="url(#clip740)" d="M56.6171 769.665 L72.9365 769.665 L72.9365 773.6 L50.9921 773.6 L50.9921 769.665 Q53.6541 766.91 58.2375 762.28 Q62.8439 757.628 64.0245 756.285 Q66.2698 753.762 67.1494 752.026 Q68.0522 750.266 68.0522 748.577 Q68.0522 745.822 66.1078 744.086 Q64.1865 742.35 61.0847 742.35 Q58.8856 742.35 56.4319 743.114 Q54.0014 743.878 51.2236 745.429 L51.2236 740.706 Q54.0477 739.572 56.5014 738.993 Q58.955 738.415 60.9921 738.415 Q66.3624 738.415 69.5568 741.1 Q72.7513 743.785 72.7513 748.276 Q72.7513 750.405 71.9411 752.327 Q71.1541 754.225 69.0476 756.817 Q68.4689 757.489 65.367 760.706 Q62.2652 763.901 56.6171 769.665 Z" fill="#000000" fill-rule="nonzero" fill-opacity="1" /><path clip-path="url(#clip740)" d="M82.7512 767.72 L87.6354 767.72 L87.6354 773.6 L82.7512 773.6 L82.7512 767.72 Z" fill="#000000" fill-rule="nonzero" fill-opacity="1" /><path clip-path="url(#clip740)" d="M107.821 742.118 Q104.209 742.118 102.381 745.683 Q100.575 749.225 100.575 756.354 Q100.575 763.461 102.381 767.026 Q104.209 770.567 107.821 770.567 Q111.455 770.567 113.26 767.026 Q115.089 763.461 115.089 756.354 Q115.089 749.225 113.26 745.683 Q111.455 742.118 107.821 742.118 M107.821 738.415 Q113.631 738.415 116.686 743.021 Q119.765 747.604 119.765 756.354 Q119.765 765.081 116.686 769.688 Q113.631 774.271 107.821 774.271 Q102.01 774.271 98.9317 769.688 Q95.8761 765.081 95.8761 756.354 Q95.8761 747.604 98.9317 743.021 Q102.01 738.415 107.821 738.415 Z" fill="#000000" fill-rule="nonzero" fill-opacity="1" /><path clip-path="url(#clip740)" d="M57.6125 479.722 L73.9318 479.722 L73.9318 483.657 L51.9875 483.657 L51.9875 479.722 Q54.6495 476.967 59.2328 472.338 Q63.8393 467.685 65.0198 466.342 Q67.2652 463.819 68.1448 462.083 Q69.0476 460.324 69.0476 458.634 Q69.0476 455.879 67.1032 454.143 Q65.1819 452.407 62.08 452.407 Q59.881 452.407 57.4273 453.171 Q54.9967 453.935 52.219 455.486 L52.219 450.764 Q55.043 449.629 57.4967 449.051 Q59.9504 448.472 61.9874 448.472 Q67.3578 448.472 70.5522 451.157 Q73.7466 453.842 73.7466 458.333 Q73.7466 460.463 72.9365 462.384 Q72.1494 464.282 70.0429 466.875 Q69.4642 467.546 66.3624 470.763 Q63.2606 473.958 57.6125 479.722 Z" fill="#000000" fill-rule="nonzero" fill-opacity="1" /><path clip-path="url(#clip740)" d="M83.7466 477.777 L88.6308 477.777 L88.6308 483.657 L83.7466 483.657 L83.7466 477.777 Z" fill="#000000" fill-rule="nonzero" fill-opacity="1" /><path clip-path="url(#clip740)" d="M98.8622 449.097 L117.219 449.097 L117.219 453.032 L103.145 453.032 L103.145 461.504 Q104.163 461.157 105.182 460.995 Q106.2 460.81 107.219 460.81 Q113.006 460.81 116.385 463.981 Q119.765 467.152 119.765 472.569 Q119.765 478.148 116.293 481.25 Q112.82 484.328 106.501 484.328 Q104.325 484.328 102.057 483.958 Q99.8113 483.587 97.4039 482.847 L97.4039 478.148 Q99.4872 479.282 101.709 479.838 Q103.932 480.393 106.408 480.393 Q110.413 480.393 112.751 478.287 Q115.089 476.18 115.089 472.569 Q115.089 468.958 112.751 466.851 Q110.413 464.745 106.408 464.745 Q104.534 464.745 102.659 465.162 Q100.807 465.578 98.8622 466.458 L98.8622 449.097 Z" fill="#000000" fill-rule="nonzero" fill-opacity="1" /><path clip-path="url(#clip740)" d="M66.7559 175.08 Q70.1124 175.798 71.9874 178.066 Q73.8855 180.335 73.8855 183.668 Q73.8855 188.784 70.367 191.585 Q66.8485 194.385 60.3671 194.385 Q58.1912 194.385 55.8764 193.946 Q53.5847 193.529 51.131 192.673 L51.131 188.159 Q53.0754 189.293 55.3903 189.872 Q57.7051 190.45 60.2282 190.45 Q64.6263 190.45 66.918 188.714 Q69.2328 186.978 69.2328 183.668 Q69.2328 180.612 67.08 178.899 Q64.9504 177.163 61.131 177.163 L57.1032 177.163 L57.1032 173.321 L61.3161 173.321 Q64.7652 173.321 66.5939 171.955 Q68.4226 170.566 68.4226 167.974 Q68.4226 165.312 66.5245 163.9 Q64.6495 162.464 61.131 162.464 Q59.2097 162.464 57.0106 162.881 Q54.8115 163.298 52.1727 164.177 L52.1727 160.011 Q54.8347 159.27 57.1495 158.9 Q59.4875 158.529 61.5476 158.529 Q66.8717 158.529 69.9735 160.96 Q73.0753 163.367 73.0753 167.487 Q73.0753 170.358 71.4318 172.349 Q69.7883 174.316 66.7559 175.08 Z" fill="#000000" fill-rule="nonzero" fill-opacity="1" /><path clip-path="url(#clip740)" d="M82.7512 187.835 L87.6354 187.835 L87.6354 193.714 L82.7512 193.714 L82.7512 187.835 Z" fill="#000000" fill-rule="nonzero" fill-opacity="1" /><path clip-path="url(#clip740)" d="M107.821 162.233 Q104.209 162.233 102.381 165.798 Q100.575 169.339 100.575 176.469 Q100.575 183.575 102.381 187.14 Q104.209 190.682 107.821 190.682 Q111.455 190.682 113.26 187.14 Q115.089 183.575 115.089 176.469 Q115.089 169.339 113.26 165.798 Q111.455 162.233 107.821 162.233 M107.821 158.529 Q113.631 158.529 116.686 163.136 Q119.765 167.719 119.765 176.469 Q119.765 185.196 116.686 189.802 Q113.631 194.385 107.821 194.385 Q102.01 194.385 98.9317 189.802 Q95.8761 185.196 95.8761 176.469 Q95.8761 167.719 98.9317 163.136 Q102.01 158.529 107.821 158.529 Z" fill="#000000" fill-rule="nonzero" fill-opacity="1" /><polyline clip-path="url(#clip741)" style="stroke:#009af9; stroke-linecap:round; stroke-linejoin:round; stroke-width:4; stroke-opacity:1; fill:none" points="155.765,91.6842 160.159,115.677 164.553,157.238 168.947,214.755 173.341,285.405 177.735,365.44 182.129,450.709 186.523,537.087 190.917,620.925 195.311,699.387 199.705,770.467 204.099,832.972 208.493,886.337 212.887,930.497 217.281,965.708 221.675,992.387 226.069,1011.01 230.463,1022.1 234.857,1026.12 239.251,1023.48 243.645,1014.54 248.039,999.584 252.433,978.865 256.826,952.579 261.22,920.88 265.614,883.937 270.008,841.935 274.402,795.089 278.796,743.673 283.19,687.989 287.584,628.51 291.978,565.903 296.372,501.023 300.766,434.916 305.16,368.934 309.554,304.816 313.948,244.561 318.342,190.415 322.736,144.874 327.13,110.654 331.524,90.3986 335.918,86.297 340.312,99.5613 344.706,130.376 349.1,177.896 353.494,240.249 357.888,314.535 362.282,396.886 366.676,482.947 371.07,568.695 375.464,650.821 379.858,726.744 384.252,794.65 388.646,853.708 393.04,903.601 397.434,944.301 401.828,976.073 406.222,999.47 410.616,1015.19 415.01,1023.58 419.404,1025.07 423.798,1020.04 428.192,1008.82 432.586,991.698 436.98,968.901 441.374,940.641 445.768,907.037 450.162,868.231 454.556,824.423 458.95,775.864 463.344,722.863 467.738,665.832 472.132,605.307 476.526,541.914 480.92,476.569 485.314,410.479 489.708,345.149 494.102,282.374 498.496,224.171 502.889,172.744 507.283,131.252 511.677,102.442 516.071,88.4663 520.465,90.8771 524.859,110.63 529.253,148.074 533.647,202.128 538.041,269.724 542.435,347.385 546.829,431.407 551.223,517.86 555.617,602.59 560.011,682.333 564.405,755.291 568.799,819.937 573.193,875.321 577.587,921.069 581.981,957.386 586.375,985.051 590.769,1005.13 595.163,1017.68 599.557,1023.1 603.951,1021.81 608.345,1014.16 612.739,1000.46 617.133,981.015 621.527,956.009 625.921,925.557 630.315,889.806 634.709,848.95 639.103,803.225 643.497,752.91 647.891,698.339 652.285,639.998 656.679,578.41 661.073,514.338 665.467,448.829 669.861,383.218 674.255,319.121 678.649,258.427 683.043,202.996 687.437,155.838 691.831,119.915 696.225,97.6171 700.619,90.7613 705.013,100.593 709.407,127.785 713.801,172.323 718.195,232.19 722.589,304.038 726.983,384.306 731.377,469.245 735.771,554.914 740.165,637.28 744.558,713.918 748.952,783.158 753.346,843.681 757.74,894.728 762.134,936.103 766.528,968.17 770.922,991.857 775.316,1008.39 779.71,1017.73 784.104,1020.16 788.498,1016.06 792.892,1005.77 797.286,989.571 801.68,967.728 806.074,940.455 810.468,907.84 814.862,870.021 819.256,827.201 823.65,779.643 828.044,727.673 832.438,671.679 836.832,612.193 841.226,549.874 845.62,485.57 850.014,420.428 854.408,355.893 858.802,293.709 863.196,235.914 867.59,184.65 871.984,142.452 876.378,112.477 880.772,97.1262 885.166,97.9847 889.56,115.825 893.954,150.604 898.348,201.466 902.742,266.455 907.136,341.901 911.53,423.874 915.924,508.598 920.318,592.444 924.712,671.932 929.106,744.495 933.5,809.113 937.894,864.927 942.288,911.51 946.682,948.867 951.076,977.439 955.47,998.101 959.864,1011.53 964.258,1017.84 968.652,1017.42 973.046,1010.64 977.44,997.802 981.834,979.179 986.228,954.997 990.621,925.47 995.015,890.699 999.409,850.829 1003.8,806.077 1008.2,756.731 1012.59,703.15 1016.99,645.769 1021.38,585.202 1025.77,522.177 1030.17,457.666 1034.56,392.935 1038.96,329.551 1043.35,269.373 1047.74,214.556 1052.14,167.352 1056.53,130.369 1060.93,106.585 1065.32,98.1466 1069.71,106.323 1074.11,131.514 1078.5,173.245 1082.9,230.168 1087.29,299.748 1091.68,378.064 1096.08,461.196 1100.47,545.461 1104.87,627.413 1109.26,703.845 1113.65,772.733 1118.05,833.306 1122.44,884.962 1126.83,927.483 1131.23,961.033 1135.62,986.157 1140.02,1003.71 1144.41,1014.01 1148.8,1017.37 1153.2,1014.17 1157.59,1004.76 1161.99,989.422 1166.38,968.405 1170.77,941.931 1175.17,910.177 1179.56,873.248 1183.96,831.32 1188.35,784.637 1192.74,733.518 1197.14,678.355 1201.53,619.648 1205.93,558.074 1210.32,494.445 1214.71,429.862 1219.11,365.718 1223.5,303.7 1227.9,245.791 1232.29,194.259 1236.68,151.312 1241.08,119.899 1245.47,102.661 1249.87,101.364 1254.26,116.899 1258.65,149.285 1263.05,197.662 1267.44,260.263 1271.84,333.85 1276.23,414.419 1280.62,498.172 1285.02,581.548 1289.41,661.23 1293.81,734.288 1298.2,799.478 1302.59,856.086 1306.99,903.679 1311.38,942.199 1315.78,971.968 1320.17,993.682 1324.56,1008.07 1328.96,1015.3 1333.35,1015.77 1337.75,1009.85 1342.14,997.849 1346.53,980.044 1350.93,956.661 1355.32,927.925 1359.72,893.958 1364.11,854.893 1368.5,810.937 1372.9,762.368 1377.29,709.538 1381.69,652.872 1386.08,592.964 1390.47,530.527 1394.87,466.497 1399.26,402.099 1403.66,338.852 1408.05,278.569 1412.44,223.351 1416.84,175.477 1421.23,137.363 1425.63,112.005 1430.02,101.649 1434.41,107.67 1438.81,130.57 1443.2,169.984 1447.6,224.674 1451.99,292.329 1456.38,369.175 1460.78,451.299 1465.17,535.026 1469.57,616.919 1473.96,693.78 1478.35,763.284 1482.75,824.649 1487.14,877.233 1491.54,920.763 1495.93,955.342 1500.32,981.447 1504.72,999.901 1509.11,1011.1 1513.51,1015.33 1517.9,1012.98 1522.29,1004.38 1526.69,989.835 1531.08,969.596 1535.48,943.885 1539.87,912.896 1544.26,876.735 1548.66,835.567 1553.05,789.632 1557.45,739.24 1561.84,684.778 1566.23,626.726 1570.63,565.749 1575.02,502.635 1579.42,438.445 1583.81,374.534 1588.2,312.543 1592.6,254.407 1596.99,202.35 1601.38,158.584 1605.78,125.899 1610.17,107.019 1614.57,103.798 1618.96,117.223 1623.35,147.407 1627.75,193.597 1632.14,254.157 1636.54,326.096 1640.93,405.453 1645.32,488.435 1649.72,571.489 1654.11,651.307 1658.51,724.886 1662.9,790.741 1667.29,848.168 1671.69,896.686 1676.08,936.183 1680.48,966.919 1684.87,989.521 1689.26,1004.77 1693.66,1012.85 1698.05,1014.14 1702.45,1009.02 1706.84,997.79 1711.23,980.739 1715.63,958.098 1720.02,930.09 1724.42,896.861 1728.81,858.532 1733.2,815.303 1737.6,767.444 1741.99,715.301 1746.39,659.295 1750.78,599.99 1755.17,538.097 1759.57,474.517 1763.96,410.438 1768.36,347.338 1772.75,286.985 1777.14,231.434 1781.54,182.968 1785.93,143.878 1790.33,117.136 1794.72,105.077 1799.11,109.167 1803.51,130.002 1807.9,167.306 1812.3,219.932 1816.69,285.76 1821.08,361.206 1825.48,442.347 1829.87,525.509 1834.27,607.269 1838.66,684.457 1843.05,754.52 1847.45,816.582 1851.84,869.994 1856.24,914.441 1860.63,949.97 1865.02,976.989 1869.42,996.264 1873.81,1008.3 1878.21,1013.33 1882.6,1011.76 1886.99,1003.92 1891.39,990.104 1895.78,970.584 1900.18,945.576 1904.57,915.292 1908.96,879.841 1913.36,839.378 1917.75,794.134 1922.15,744.416 1926.54,690.602 1930.93,633.16 1935.33,572.738 1939.72,510.109 1944.12,446.299 1948.51,382.625 1952.9,320.688 1957.3,262.377 1961.69,209.869 1966.09,165.415 1970.48,131.607 1974.87,111.245 1979.27,106.276 1983.66,117.777 1988.06,145.95 1992.45,190.126 1996.84,248.761 2001.24,319.126 2005.63,397.32 2010.03,479.536 2014.42,562.225 2018.81,642.102 2023.21,716.155 2027.6,782.595 2032,840.75 2036.39,890.108 2040.78,930.513 2045.18,962.163 2049.57,985.612 2053.97,1001.65 2058.36,1010.52 2062.75,1012.58 2067.15,1008.2 2071.54,997.686 2075.94,981.334 2080.33,959.38 2084.72,932.045 2089.12,899.496 2093.51,861.849 2097.9,819.293 2102.3,772.091 2106.69,720.584 2111.09,665.188 2115.48,606.44 2119.87,545.051 2124.27,481.891 2128.66,418.116 2133.06,355.165 2137.45,294.764 2141.84,238.926 2146.24,189.928 2150.63,149.989 2155.03,121.995 2159.42,108.377 2163.81,110.694 2168.21,129.628 2172.6,164.988 2177,215.705 2181.39,279.8 2185.78,353.915 2190.18,434.116 2194.57,516.717 2198.97,598.307 2203.36,675.748 2207.75,746.346 2212.15,809.039 2216.54,863.208 2220.94,908.502 2225.33,944.92 2229.72,972.806 2234.12,992.852 2238.51,1005.66 2242.91,1011.45 2247.3,1010.61 2251.69,1003.47 2256.09,990.342 2260.48,971.49 2264.88,947.137 2269.27,917.503 2273.66,882.71 2278.06,842.901 2282.45,798.299 2286.85,749.203 2291.24,695.988 2295.63,639.11 2300.03,579.199 2304.42,517.017 2308.82,453.56 2313.21,390.109 2317.6,328.227 2322,269.764 2326.39,216.852 2330.79,171.828 2335.18,137.164 2339.57,115.45 2343.97,108.646 2348.36,118.036 2352.76,144.221 "/>
<polyline clip-path="url(#clip741)" style="stroke:#e26f46; stroke-linecap:round; stroke-linejoin:round; stroke-width:4; stroke-opacity:1; fill:none" points="155.765,1024.78 160.159,959.832 164.553,894.793 168.947,832.792 173.341,777.185 177.735,731.17 182.129,697.326 186.523,677.306 190.917,671.721 195.311,680.118 199.705,701.061 204.099,732.606 208.493,772.526 212.887,818.513 217.281,868.402 221.675,920.27 226.069,972.513 230.463,1023.85 234.857,1073.27 239.251,1120.04 243.645,1163.59 248.039,1203.56 252.433,1239.76 256.826,1272.04 261.22,1300.33 265.614,1324.57 270.008,1344.74 274.402,1360.83 278.796,1372.8 283.19,1380.57 287.584,1384.01 291.978,1382.95 296.372,1377.16 300.766,1366.37 305.16,1350.23 309.554,1328.3 313.948,1300.21 318.342,1265.67 322.736,1224.51 327.13,1176.51 331.524,1121.55 335.918,1061.28 340.312,997.746 344.706,933.217 349.1,870.165 353.494,811.267 357.888,759.41 362.282,717.675 366.676,688.71 371.07,673.935 375.464,673.634 379.858,686.961 384.252,712.126 388.646,747.082 393.04,789.481 397.434,837.119 401.828,887.962 406.222,940.147 410.616,992.089 415.01,1042.75 419.404,1091.2 423.798,1136.74 428.192,1178.86 432.586,1217.27 436.98,1251.92 441.374,1282.66 445.768,1309.41 450.162,1332.11 454.556,1350.74 458.95,1365.26 463.344,1375.62 467.738,1381.76 472.132,1383.53 476.526,1380.71 480.92,1373.05 485.314,1360.26 489.708,1342 494.102,1317.89 498.496,1287.52 502.889,1250.53 507.283,1206.7 511.677,1156.26 516.071,1099.92 520.465,1038.88 524.859,974.808 529.253,909.875 533.647,847.106 538.041,790.135 542.435,742.065 546.829,705.372 551.223,681.906 555.617,672.887 560.011,677.991 564.405,695.679 568.799,724.48 573.193,762.615 577.587,807.996 581.981,858.229 586.375,910.61 590.769,962.633 595.163,1013.9 599.557,1063.46 603.951,1110.51 608.345,1154.43 612.739,1194.88 617.133,1231.66 621.527,1264.59 625.921,1293.58 630.315,1318.54 634.709,1339.44 639.103,1356.22 643.497,1368.89 647.891,1377.42 652.285,1381.69 656.679,1381.5 661.073,1376.64 665.467,1366.83 669.861,1351.78 674.255,1331.1 678.649,1304.42 683.043,1271.31 687.437,1231.43 691.831,1184.81 696.225,1131.95 700.619,1073.76 705.013,1011.64 709.407,947.425 713.801,883.476 718.195,823.225 722.589,770.134 726.983,727.027 731.377,696.077 735.771,678.815 740.165,676.032 744.558,686.583 748.952,708.968 753.346,741.636 757.74,782.76 762.134,830.234 766.528,881.675 770.922,934.425 775.316,985.959 779.71,1036.16 784.104,1084.34 788.498,1129.76 792.892,1171.91 797.286,1210.49 801.68,1245.35 806.074,1276.35 810.468,1303.39 814.862,1326.44 819.256,1345.43 823.65,1360.33 828.044,1371.07 832.438,1377.63 836.832,1379.89 841.226,1377.62 845.62,1370.56 850.014,1358.42 854.408,1340.89 858.802,1317.63 863.196,1288.27 867.59,1252.34 871.984,1209.54 876.378,1160.2 880.772,1105.12 885.166,1045.5 889.56,983 893.954,919.672 898.348,858.009 902.742,801.09 907.136,752.459 911.53,714.923 915.924,690.372 920.318,679.777 924.712,683.194 929.106,699.609 933.5,727.053 937.894,763.467 942.288,806.785 946.682,854.929 951.076,905.815 955.47,957.346 959.864,1008.06 964.258,1057.3 968.652,1104.19 973.046,1148.09 977.44,1188.55 981.834,1225.34 986.228,1258.4 990.621,1287.58 995.015,1312.81 999.409,1334.04 1003.8,1351.22 1008.2,1364.29 1012.59,1373.2 1016.99,1377.89 1021.38,1378.19 1025.77,1373.87 1030.17,1364.63 1034.56,1350.18 1038.96,1330.2 1043.35,1304.37 1047.74,1272.33 1052.14,1233.64 1056.53,1188.12 1060.93,1136.34 1065.32,1079.33 1069.71,1018.52 1074.11,955.749 1078.5,893.265 1082.9,833.74 1087.29,780.366 1091.68,736.474 1096.08,704.538 1100.47,686.072 1104.87,681.625 1109.26,690.782 1113.65,712.142 1118.05,743.61 1122.44,783.046 1126.83,828.361 1131.23,877.522 1135.62,928.549 1140.02,979.585 1144.41,1029.64 1148.8,1077.84 1153.2,1123.4 1157.59,1165.76 1161.99,1204.55 1166.38,1239.63 1170.77,1270.96 1175.17,1298.38 1179.56,1321.83 1183.96,1341.27 1188.35,1356.65 1192.74,1367.91 1197.14,1374.98 1201.53,1377.78 1205.93,1376.1 1210.32,1369.67 1214.71,1358.21 1219.11,1341.41 1223.5,1318.95 1227.9,1290.51 1232.29,1255.72 1236.68,1214.14 1241.08,1165.95 1245.47,1111.92 1249.87,1053.24 1254.26,991.525 1258.65,928.79 1263.05,867.468 1267.44,810.422 1271.84,761.007 1276.23,722.216 1280.62,696.101 1285.02,683.752 1289.41,685.299 1293.81,699.91 1298.2,725.816 1302.59,760.863 1306.99,802.94 1311.38,849.993 1315.78,900.024 1320.17,951.092 1324.56,1001.64 1328.96,1050.88 1333.35,1097.9 1337.75,1142.03 1342.14,1182.78 1346.53,1219.89 1350.93,1253.28 1355.32,1282.87 1359.72,1308.52 1364.11,1330.19 1368.5,1347.84 1372.9,1361.4 1377.29,1370.82 1381.69,1376.02 1386.08,1376.88 1390.47,1373.16 1394.87,1364.57 1399.26,1350.82 1403.66,1331.6 1408.05,1306.6 1412.44,1275.48 1416.84,1237.83 1421.23,1193.39 1425.63,1142.65 1430.02,1086.58 1434.41,1026.53 1438.81,964.3 1443.2,902.076 1447.6,842.466 1451.99,788.543 1456.38,743.634 1460.78,710.316 1465.17,690.212 1469.57,683.989 1473.96,691.361 1478.35,711.08 1482.75,741.122 1487.14,779.353 1491.54,823.696 1495.93,872.13 1500.32,922.694 1504.72,973.509 1509.11,1023.47 1513.51,1071.72 1517.9,1117.44 1522.29,1160.05 1526.69,1199.15 1531.08,1234.56 1535.48,1266.26 1539.87,1294.07 1544.26,1317.94 1548.66,1337.82 1553.05,1353.66 1557.45,1365.38 1561.84,1372.94 1566.23,1376.25 1570.63,1375.12 1575.02,1369.28 1579.42,1358.46 1583.81,1342.36 1588.2,1320.66 1592.6,1293.04 1596.99,1259.17 1601.38,1218.6 1605.78,1171.39 1610.17,1118.29 1614.57,1060.44 1618.96,999.381 1623.35,937.075 1627.75,875.885 1632.14,818.586 1636.54,768.442 1640.93,728.517 1645.32,700.963 1649.72,686.98 1654.11,686.814 1658.51,699.761 1662.9,724.184 1667.29,757.958 1671.69,798.979 1676.08,845.203 1680.48,894.648 1684.87,945.39 1689.26,995.778 1693.66,1044.98 1698.05,1092.09 1702.45,1136.41 1706.84,1177.43 1711.23,1214.84 1715.63,1248.56 1720.02,1278.51 1724.42,1304.55 1728.81,1326.63 1733.2,1344.7 1737.6,1358.71 1741.99,1368.58 1746.39,1374.26 1750.78,1375.62 1755.17,1372.44 1759.57,1364.44 1763.96,1351.33 1768.36,1332.8 1772.75,1308.55 1777.14,1278.25 1781.54,1241.54 1785.93,1198.06 1790.33,1148.24 1794.72,1093.01 1799.11,1033.69 1803.51,972.01 1807.9,910.102 1812.3,850.493 1816.69,796.145 1821.08,750.356 1825.48,715.808 1829.87,694.23 1834.27,686.397 1838.66,692.135 1843.05,710.322 1847.45,739.034 1851.84,776.134 1856.24,819.551 1860.63,867.276 1865.02,917.369 1869.42,967.96 1873.81,1017.81 1878.21,1066.08 1882.6,1111.94 1886.99,1154.76 1891.39,1194.14 1895.78,1229.85 1900.18,1261.87 1904.57,1290.05 1908.96,1314.3 1913.36,1334.58 1917.75,1350.83 1922.15,1362.99 1926.54,1370.99 1930.93,1374.76 1935.33,1374.13 1939.72,1368.85 1944.12,1358.61 1948.51,1343.14 1952.9,1322.13 1957.3,1295.26 1961.69,1262.22 1966.09,1222.58 1970.48,1176.28 1974.87,1124.03 1979.27,1066.94 1983.66,1006.5 1988.06,944.636 1992.45,883.629 1996.84,826.177 2001.24,775.421 2005.63,734.484 2010.03,705.627 2014.42,690.155 2018.81,688.42 2023.21,699.821 2027.6,722.857 2032,755.442 2036.39,795.465 2040.78,840.886 2045.18,889.741 2049.57,940.136 2053.97,990.365 2058.36,1039.52 2062.75,1086.71 2067.15,1131.2 2071.54,1172.46 2075.94,1210.16 2080.33,1244.16 2084.72,1274.45 2089.12,1300.85 2093.51,1323.31 2097.9,1341.77 2102.3,1356.19 2106.69,1366.49 2111.09,1372.6 2115.48,1374.43 2119.87,1371.75 2124.27,1364.29 2128.66,1351.76 2133.06,1333.87 2137.45,1310.31 2141.84,1280.76 2146.24,1244.9 2150.63,1202.31 2155.03,1153.34 2159.42,1098.88 2163.81,1040.23 2168.21,979.076 2172.6,917.483 2177,857.915 2181.39,803.23 2185.78,756.664 2190.18,720.997 2194.57,698.065 2198.97,688.75 2203.36,692.975 2207.75,709.725 2212.15,737.19 2216.54,773.233 2220.94,815.775 2225.33,862.818 2229.72,912.443 2234.12,962.81 2238.51,1012.55 2242.91,1060.83 2247.3,1106.81 2251.69,1149.84 2256.09,1189.47 2260.48,1225.47 2264.88,1257.78 2269.27,1286.3 2273.66,1310.91 2278.06,1331.55 2282.45,1348.19 2286.85,1360.76 2291.24,1369.18 2295.63,1373.38 2300.03,1373.22 2304.42,1368.44 2308.82,1358.75 2313.21,1343.86 2317.6,1323.48 2322,1297.3 2326.39,1265.01 2330.79,1226.35 2335.18,1181.33 2339.57,1130.26 2343.97,1073.98 2348.36,1013.87 2352.76,951.826 "/>
<polyline clip-path="url(#clip741)" style="stroke:#3da44d; stroke-linecap:round; stroke-linejoin:round; stroke-width:4; stroke-opacity:1; fill:none" points="155.765,91.6842 160.159,115.874 164.553,157.604 168.947,215.25 173.341,285.977 177.735,366.038 182.129,451.283 186.523,537.595 190.917,621.338 195.311,699.685 199.705,770.642 204.099,833.023 208.493,886.269 212.887,930.318 217.281,965.425 221.675,992.01 226.069,1010.54 230.463,1021.55 234.857,1025.5 239.251,1022.79 243.645,1013.78 248.039,998.76 252.433,977.979 256.826,951.632 261.22,919.876 265.614,882.878 270.008,840.824 274.402,793.93 278.796,742.472 283.19,686.753 287.584,627.249 291.978,564.63 296.372,499.752 300.766,433.667 305.16,367.729 309.554,303.681 313.948,243.526 318.342,189.51 322.736,144.129 327.13,110.099 331.524,90.0612 335.918,86.1857 340.312,99.6674 344.706,130.676 349.1,178.354 353.494,240.821 357.888,315.168 362.282,397.527 366.676,483.547 371.07,569.213 375.464,651.232 379.858,727.03 384.252,794.806 388.646,853.737 393.04,903.507 397.434,944.094 401.828,975.761 406.222,999.063 410.616,1014.69 415.01,1023 419.404,1024.42 423.798,1019.31 428.192,1008.02 432.586,990.835 436.98,967.974 441.374,939.652 445.768,905.989 450.162,867.127 454.556,823.266 458.95,774.66 463.344,721.618 467.738,664.554 472.132,604.007 476.526,540.607 480.92,475.272 485.314,409.214 489.708,343.939 494.102,281.249 498.496,223.163 502.889,171.884 507.283,130.566 511.677,101.96 516.071,88.2088 520.465,90.8545 524.859,110.833 529.253,148.471 533.647,202.681 538.041,270.387 542.435,348.102 546.829,432.121 551.223,518.52 555.617,603.159 560.011,682.786 564.405,755.619 568.799,820.135 573.193,875.385 577.587,920.993 581.981,957.158 586.375,984.651 590.769,1004.58 595.163,1017.03 599.557,1022.35 603.951,1020.97 608.345,1013.24 612.739,999.463 617.133,979.935 621.527,954.861 625.921,924.345 630.315,888.534 634.709,847.621 639.103,801.842 643.497,751.48 647.891,696.873 652.285,638.508 656.679,576.92 661.073,512.869 665.467,447.404 669.861,381.862 674.255,317.866 678.649,257.323 683.043,202.094 687.437,155.112 691.831,119.395 696.225,97.3577 700.619,90.8105 705.013,100.962 709.407,128.416 713.801,173.111 718.195,233.135 722.589,305.093 726.983,385.386 731.377,470.263 735.771,555.82 740.165,638.065 744.558,714.594 748.952,783.762 753.346,844.188 757.74,895.057 762.134,936.121 766.528,967.695 770.922,990.662 775.316,1006.46 779.71,1015.56 784.104,1017.78 788.498,1013.5 792.892,1003.05 797.286,986.71 801.68,964.72 806.074,937.339 810.468,904.668 814.862,866.818 819.256,823.975 823.65,776.402 828.044,724.44 832.438,668.508 836.832,609.112 841.226,546.959 845.62,482.918 850.014,418.131 854.408,354.04 858.802,292.379 863.196,235.182 867.59,184.772 871.984,143.436 876.378,114.069 880.772,99.2133 885.166,100.541 889.56,118.852 893.954,154.076 898.348,205.271 902.742,270.37 907.136,345.704 911.53,427.385 915.924,511.664 920.318,594.933 924.712,673.729 929.106,745.695 933.5,809.739 937.894,865.016 942.288,911.124 946.682,948.113 951.076,976.478 955.47,997.093 959.864,1010.27 964.258,1016.34 968.652,1015.71 973.046,1008.74 977.44,995.733 981.834,976.957 986.228,952.661 990.621,922.988 995.015,888.063 999.409,848.068 1003.8,803.236 1008.2,753.851 1012.59,700.253 1016.99,642.925 1021.38,582.419 1025.77,519.461 1030.17,455.063 1034.56,390.524 1038.96,327.423 1043.35,267.626 1047.74,213.104 1052.14,166.275 1056.53,130.225 1060.93,107.445 1065.32,99.7808 1069.71,108.436 1074.11,133.97 1078.5,176.289 1082.9,233.893 1087.29,303.514 1091.68,381.617 1096.08,464.567 1100.47,548.619 1104.87,629.929 1109.26,705.794 1113.65,774.742 1118.05,835.285 1122.44,886.49 1126.83,927.976 1131.23,959.912 1135.62,983.024 1140.02,998.585 1144.41,1007.99 1148.8,1010.75 1153.2,1007.04 1157.59,997.189 1161.99,981.474 1166.38,960.135 1170.77,933.409 1175.17,901.501 1179.56,864.489 1183.96,822.532 1188.35,775.884 1192.74,724.889 1197.14,669.985 1201.53,611.703 1205.93,550.698 1210.32,487.866 1214.71,424.343 1219.11,361.534 1223.5,301.119 1227.9,245.049 1232.29,195.551 1236.68,155.055 1241.08,125.931 1245.47,110.754 1249.87,111.306 1254.26,128.435 1258.65,162.055 1263.05,211.148 1267.44,273.759 1271.84,346.76 1276.23,426.199 1280.62,508.338 1285.02,589.754 1289.41,667.337 1293.81,738.404 1298.2,801.719 1302.59,856.614 1306.99,902.705 1311.38,939.967 1315.78,968.734 1320.17,989.676 1324.56,1003.23 1328.96,1009.72 1333.35,1009.55 1337.75,1003.06 1342.14,990.561 1346.53,972.323 1350.93,948.583 1355.32,919.529 1359.72,885.281 1364.11,846.013 1368.5,801.956 1372.9,753.402 1377.29,700.7 1381.69,644.319 1386.08,584.841 1390.47,522.979 1394.87,459.722 1399.26,396.34 1403.66,334.378 1408.05,275.661 1412.44,222.214 1416.84,176.178 1421.23,140.549 1425.63,117.844 1430.02,109.905 1434.41,117.904 1438.81,142.34 1443.2,183.042 1447.6,238.748 1451.99,306.365 1456.38,382.417 1460.78,463.371 1465.17,545.643 1469.57,625.59 1473.96,700.18 1478.35,768.059 1482.75,827.881 1487.14,878.782 1491.54,920.391 1495.93,952.839 1500.32,976.75 1504.72,993.25 1509.11,1003.27 1513.51,1006.51 1517.9,1003.29 1522.29,993.941 1526.69,978.741 1531.08,957.935 1535.48,931.762 1539.87,900.417 1544.26,863.992 1548.66,822.659 1553.05,776.675 1557.45,726.385 1561.84,672.217 1566.23,614.686 1570.63,554.46 1575.02,492.412 1579.42,429.649 1583.81,367.547 1588.2,307.754 1592.6,252.191 1596.99,203.049 1601.38,162.646 1605.78,133.389 1610.17,117.822 1614.57,117.658 1618.96,133.734 1623.35,166.007 1627.75,213.56 1632.14,274.576 1636.54,345.956 1640.93,423.887 1645.32,504.757 1649.72,585.193 1654.11,662.061 1658.51,732.64 1662.9,795.727 1667.29,850.575 1671.69,896.746 1676.08,934.172 1680.48,963.155 1684.87,984.362 1689.26,998.261 1693.66,1005.13 1698.05,1005.35 1702.45,999.268 1706.84,987.198 1711.23,969.405 1715.63,946.13 1720.02,917.571 1724.42,883.85 1728.81,845.138 1733.2,801.667 1737.6,753.732 1741.99,701.691 1746.39,645.998 1750.78,587.252 1755.17,526.159 1759.57,463.689 1763.96,401.087 1768.36,339.871 1772.75,281.832 1777.14,229.006 1781.54,183.407 1785.93,147.921 1790.33,125.102 1794.72,116.805 1799.11,124.187 1803.51,147.704 1807.9,187.116 1812.3,241.316 1816.69,307.452 1821.08,382.036 1825.48,461.583 1829.87,542.618 1834.27,621.669 1838.66,695.539 1843.05,762.755 1847.45,822.154 1851.84,872.936 1856.24,914.75 1860.63,947.696 1865.02,972.323 1869.42,989.628 1873.81,1000.09 1878.21,1003.73 1882.6,1000.92 1886.99,991.986 1891.39,977.205 1895.78,956.827 1900.18,931.092 1904.57,900.184 1908.96,864.211 1913.36,823.352 1917.75,777.871 1922.15,728.105 1926.54,674.473 1930.93,617.478 1935.33,557.8 1939.72,496.282 1944.12,434.01 1948.51,372.341 1952.9,312.902 1957.3,257.591 1961.69,208.576 1966.09,168.05 1970.48,138.561 1974.87,122.615 1979.27,121.867 1983.66,137.12 1988.06,168.32 1992.45,214.562 1996.84,274.085 2001.24,344.132 2005.63,420.94 2010.03,500.845 2014.42,580.521 2018.81,656.974 2023.21,727.546 2027.6,790.553 2032,845.459 2036.39,891.857 2040.78,929.639 2045.18,958.997 2049.57,980.423 2053.97,994.624 2058.36,1001.87 2062.75,1002.49 2067.15,996.812 2071.54,985.14 2075.94,967.743 2080.33,944.858 2084.72,916.7 2089.12,883.461 2093.51,845.262 2097.9,802.302 2102.3,754.866 2106.69,703.33 2111.09,648.155 2115.48,589.912 2119.87,529.367 2124.27,467.476 2128.66,405.453 2133.06,344.776 2137.45,287.184 2141.84,234.682 2146.24,189.535 2150.63,154.017 2155.03,130.625 2159.42,121.552 2163.81,128.11 2168.21,150.729 2172.6,188.959 2177,241.465 2181.39,306.033 2185.78,379.477 2190.18,457.962 2194.57,537.938 2198.97,616.256 2203.36,690.171 2207.75,757.349 2212.15,816.562 2216.54,867.469 2220.94,909.848 2225.33,943.732 2229.72,969.407 2234.12,987.416 2238.51,998.371 2242.91,1002.52 2247.3,1000.2 2251.69,991.729 2256.09,977.394 2260.48,957.447 2264.88,932.111 2269.27,901.598 2273.66,866.081 2278.06,825.697 2282.45,780.675 2286.85,731.336 2291.24,678.101 2295.63,621.483 2300.03,562.123 2304.42,500.879 2308.82,438.835 2313.21,377.328 2317.6,317.953 2322,262.561 2326.39,213.259 2330.79,172.402 2335.18,142.308 2339.57,125.322 2343.97,123.235 2348.36,137.061 2352.76,167.039 "/>
<polyline clip-path="url(#clip741)" style="stroke:#c271d2; stroke-linecap:round; stroke-linejoin:round; stroke-width:4; stroke-opacity:1; fill:none" points="155.765,1024.78 160.159,959.932 164.553,895.032 168.947,833.204 173.341,777.798 177.735,731.999 182.129,698.371 186.523,678.55 190.917,673.135 195.311,681.661 199.705,702.688 204.099,734.276 208.493,774.199 212.887,820.156 217.281,869.987 221.675,921.778 226.069,973.93 230.463,1025.16 234.857,1074.49 239.251,1121.15 243.645,1164.6 248.039,1204.47 252.433,1240.58 256.826,1272.77 261.22,1300.97 265.614,1325.13 270.008,1345.23 274.402,1361.25 278.796,1373.15 283.19,1380.86 287.584,1384.24 291.978,1383.12 296.372,1377.28 300.766,1366.44 305.16,1350.25 309.554,1328.27 313.948,1300.13 318.342,1265.56 322.736,1224.37 327.13,1176.35 331.524,1121.4 335.918,1061.17 340.312,997.72 344.706,933.315 349.1,870.426 353.494,811.724 357.888,760.083 362.282,718.574 366.676,689.828 371.07,675.25 375.464,675.11 379.858,688.557 384.252,713.796 388.646,748.783 393.04,791.175 397.434,838.773 401.828,889.549 406.222,941.649 410.616,993.496 415.01,1044.05 419.404,1092.4 423.798,1137.83 428.192,1179.85 432.586,1218.17 436.98,1252.72 441.374,1283.37 445.768,1310.03 450.162,1332.65 454.556,1351.21 458.95,1365.65 463.344,1375.95 467.738,1382.03 472.132,1383.73 476.526,1380.85 480.92,1373.13 485.314,1360.29 489.708,1341.98 494.102,1317.82 498.496,1287.41 502.889,1250.38 507.283,1206.52 511.677,1156.08 516.071,1099.76 520.465,1038.77 524.859,974.796 529.253,909.999 533.647,847.4 538.041,790.627 542.435,742.779 546.829,706.32 551.223,683.082 555.617,674.262 560.011,679.524 564.405,697.317 568.799,726.174 573.193,764.323 577.587,809.693 581.981,859.907 586.375,912.286 590.769,964.253 595.163,1015.39 599.557,1064.83 603.951,1111.75 608.345,1155.55 612.739,1195.88 617.133,1232.54 621.527,1265.36 625.921,1294.24 630.315,1319.11 634.709,1339.91 639.103,1356.61 643.497,1369.2 647.891,1377.65 652.285,1381.84 656.679,1381.58 661.073,1376.64 665.467,1366.76 669.861,1351.63 674.255,1330.89 678.649,1304.15 683.043,1270.98 687.437,1231.06 691.831,1184.41 696.225,1131.55 700.619,1073.4 705.013,1011.38 709.407,947.324 713.801,883.593 718.195,823.544 722.589,770.681 726.983,727.845 731.377,697.199 735.771,680.222 740.165,677.659 744.558,688.354 748.952,710.771 753.346,743.406 757.74,784.491 762.134,831.995 766.528,883.619 770.922,936.801 775.316,988.728 779.71,1038.56 784.104,1086.38 788.498,1131.47 792.892,1173.32 797.286,1211.59 801.68,1246.14 806.074,1276.85 810.468,1303.63 814.862,1326.44 819.256,1345.22 823.65,1359.92 828.044,1370.47 832.438,1376.82 836.832,1378.87 841.226,1376.43 845.62,1369.2 850.014,1356.87 854.408,1339.15 858.802,1315.69 863.196,1286.19 867.59,1250.29 871.984,1207.71 876.378,1158.63 880.772,1103.77 885.166,1044.32 889.56,981.953 893.954,918.834 898.348,857.596 902.742,801.343 907.136,753.458 911.53,716.676 915.924,692.828 920.318,682.839 924.712,686.729 929.106,703.407 933.5,730.948 937.894,767.354 942.288,810.58 946.682,858.538 951.076,909.093 955.47,960.146 959.864,1010.63 964.258,1059.6 968.652,1106.2 973.046,1149.8 977.44,1189.98 981.834,1226.58 986.228,1259.43 990.621,1288.4 995.015,1313.42 999.409,1334.43 1003.8,1351.4 1008.2,1364.26 1012.59,1373 1016.99,1377.52 1021.38,1377.63 1025.77,1373.11 1030.17,1363.71 1034.56,1349.12 1038.96,1329.02 1043.35,1303.04 1047.74,1270.79 1052.14,1231.94 1056.53,1186.51 1060.93,1134.93 1065.32,1078.11 1069.71,1017.42 1074.11,954.659 1078.5,892.103 1082.9,832.809 1087.29,780.262 1091.68,737.327 1096.08,706.172 1100.47,688.261 1104.87,684.36 1109.26,693.697 1113.65,714.589 1118.05,745.595 1122.44,785.047 1126.83,831.049 1131.23,881.475 1135.62,933.973 1140.02,985.962 1144.41,1035.23 1148.8,1082.38 1153.2,1126.96 1157.59,1168.44 1161.99,1206.44 1166.38,1240.76 1170.77,1271.33 1175.17,1298.03 1179.56,1320.81 1183.96,1339.62 1188.35,1354.41 1192.74,1365.08 1197.14,1371.57 1201.53,1373.76 1205.93,1371.53 1210.32,1364.6 1214.71,1352.63 1219.11,1335.31 1223.5,1312.33 1227.9,1283.43 1232.29,1248.34 1236.68,1206.84 1241.08,1158.9 1245.47,1105.29 1249.87,1047.25 1254.26,986.437 1258.65,924.928 1263.05,865.226 1267.44,810.241 1271.84,763.041 1276.23,726.435 1280.62,702.356 1285.02,691.772 1289.41,694.675 1293.81,710.113 1298.2,736.377 1302.59,771.39 1306.99,813.098 1311.38,859.5 1315.78,908.653 1320.17,958.687 1324.56,1008.34 1328.96,1056.64 1333.35,1102.71 1337.75,1145.88 1342.14,1185.72 1346.53,1222.01 1350.93,1254.67 1355.32,1283.52 1359.72,1308.46 1364.11,1329.45 1368.5,1346.44 1372.9,1359.36 1377.29,1368.18 1381.69,1372.81 1386.08,1373.07 1390.47,1368.74 1394.87,1359.56 1399.26,1345.27 1403.66,1325.54 1408.05,1300.05 1412.44,1268.42 1416.84,1230.35 1421.23,1185.85 1425.63,1135.36 1430.02,1079.76 1434.41,1020.38 1438.81,959.009 1443.2,897.86 1447.6,839.761 1451.99,788.091 1456.38,745.709 1460.78,714.759 1465.17,696.663 1469.57,692.13 1473.96,700.773 1478.35,720.886 1482.75,750.892 1487.14,789.068 1491.54,833.535 1495.93,882.257 1500.32,933.043 1504.72,983.541 1509.11,1032.13 1513.51,1078.94 1517.9,1123.27 1522.29,1164.57 1526.69,1202.46 1531.08,1236.74 1535.48,1267.32 1539.87,1294.07 1544.26,1316.93 1548.66,1335.85 1553.05,1350.76 1557.45,1361.59 1561.84,1368.26 1566.23,1370.67 1570.63,1368.69 1575.02,1362.03 1579.42,1350.38 1583.81,1333.44 1588.2,1310.94 1592.6,1282.59 1596.99,1248.14 1601.38,1207.32 1605.78,1160.21 1610.17,1107.54 1614.57,1050.48 1618.96,990.623 1623.35,929.988 1627.75,871.013 1632.14,816.535 1636.54,769.605 1640.93,732.982 1645.32,708.563 1649.72,697.331 1654.11,699.36 1658.51,713.814 1662.9,739.023 1667.29,772.987 1671.69,813.722 1676.08,859.268 1680.48,907.693 1684.87,957.1 1689.26,1006.18 1693.66,1054.03 1698.05,1099.74 1702.45,1142.65 1706.84,1182.31 1711.23,1218.47 1715.63,1251.04 1720.02,1279.85 1724.42,1304.8 1728.81,1325.82 1733.2,1342.87 1737.6,1355.88 1741.99,1364.8 1746.39,1369.55 1750.78,1369.97 1755.17,1365.83 1759.57,1356.89 1763.96,1342.86 1768.36,1323.46 1772.75,1298.37 1777.14,1267.24 1781.54,1229.76 1785.93,1185.94 1790.33,1136.23 1794.72,1081.51 1799.11,1023.08 1803.51,962.705 1807.9,902.535 1812.3,845.226 1816.69,794.04 1821.08,751.883 1825.48,720.916 1829.87,702.55 1834.27,697.446 1838.66,705.398 1843.05,724.865 1847.45,754.113 1851.84,791.35 1856.24,834.696 1860.63,882.174 1865.02,931.72 1869.42,981.177 1873.81,1029.45 1878.21,1076.07 1882.6,1120.28 1886.99,1161.5 1891.39,1199.35 1895.78,1233.64 1900.18,1264.28 1904.57,1291.12 1908.96,1314.09 1913.36,1333.13 1917.75,1348.18 1922.15,1359.17 1926.54,1366.02 1930.93,1368.65 1935.33,1366.9 1939.72,1360.48 1944.12,1349.11 1948.51,1332.51 1952.9,1310.4 1957.3,1282.5 1961.69,1248.54 1966.09,1208.09 1970.48,1161.26 1974.87,1109 1979.27,1052.58 1983.66,993.595 1988.06,933.963 1992.45,875.915 1996.84,822.006 2001.24,775.158 2005.63,738.242 2010.03,713.272 2014.42,701.322 2018.81,702.529 2023.21,716.09 2027.6,740.459 2032,773.654 2036.39,813.613 2040.78,858.387 2045.18,906.139 2049.57,955.145 2053.97,1003.87 2058.36,1051.41 2062.75,1096.94 2067.15,1139.77 2071.54,1179.41 2075.94,1215.53 2080.33,1248 2084.72,1276.81 2089.12,1301.81 2093.51,1322.93 2097.9,1340.1 2102.3,1353.26 2106.69,1362.34 2111.09,1367.23 2115.48,1367.84 2119.87,1363.96 2124.27,1355.28 2128.66,1341.51 2133.06,1322.37 2137.45,1297.59 2141.84,1266.93 2146.24,1230.15 2150.63,1186.87 2155.03,1137.46 2159.42,1083.12 2163.81,1025.35 2168.21,965.922 2172.6,906.921 2177,850.711 2181.39,799.956 2185.78,757.531 2190.18,725.972 2194.57,706.916 2198.97,701.045 2203.36,708.086 2207.75,726.816 2212.15,755.461 2216.54,791.976 2220.94,834.298 2225.33,880.521 2229.72,928.897 2234.12,977.836 2238.51,1026.04 2242.91,1072.7 2247.3,1117.02 2251.69,1158.41 2256.09,1196.43 2260.48,1230.84 2264.88,1261.56 2269.27,1288.6 2273.66,1311.78 2278.06,1331.07 2282.45,1346.38 2286.85,1357.66 2291.24,1364.82 2295.63,1367.73 2300.03,1366.29 2304.42,1360.24 2308.82,1349.25 2313.21,1333.03 2317.6,1311.31 2322,1283.84 2326.39,1250.39 2330.79,1210.79 2335.18,1165.11 2339.57,1113.85 2343.97,1057.94 2348.36,998.884 2352.76,938.715 "/>
<path clip-path="url(#clip740)" d="M228.998 352.309 L537.794 352.309 L537.794 93.1086 L228.998 93.1086  Z" fill="#ffffff" fill-rule="evenodd" fill-opacity="1"/>
<polyline clip-path="url(#clip740)" style="stroke:#000000; stroke-linecap:round; stroke-linejoin:round; stroke-width:4; stroke-opacity:1; fill:none" points="228.998,352.309 537.794,352.309 537.794,93.1086 228.998,93.1086 228.998,352.309 "/>
<polyline clip-path="url(#clip740)" style="stroke:#009af9; stroke-linecap:round; stroke-linejoin:round; stroke-width:4; stroke-opacity:1; fill:none" points="253.409,144.949 399.875,144.949 "/>
<path clip-path="url(#clip740)" d="M424.286 151.997 L424.286 136.303 L428.545 136.303 L428.545 151.835 Q428.545 155.516 429.98 157.368 Q431.416 159.196 434.286 159.196 Q437.735 159.196 439.726 156.997 Q441.74 154.798 441.74 151.002 L441.74 136.303 L445.999 136.303 L445.999 162.229 L441.74 162.229 L441.74 158.247 Q440.189 160.608 438.129 161.766 Q436.092 162.9 433.383 162.9 Q428.916 162.9 426.601 160.122 Q424.286 157.344 424.286 151.997 M435.004 135.678 L435.004 135.678 Z" fill="#000000" fill-rule="nonzero" fill-opacity="1" /><path clip-path="url(#clip740)" d="M454.378 126.21 L464.193 126.21 L464.193 129.52 L458.638 129.52 L458.638 165.168 L464.193 165.168 L464.193 168.479 L454.378 168.479 L454.378 126.21 Z" fill="#000000" fill-rule="nonzero" fill-opacity="1" /><path clip-path="url(#clip740)" d="M474.679 158.293 L482.318 158.293 L482.318 131.928 L474.008 133.595 L474.008 129.335 L482.272 127.669 L486.948 127.669 L486.948 158.293 L494.587 158.293 L494.587 162.229 L474.679 162.229 L474.679 158.293 Z" fill="#000000" fill-rule="nonzero" fill-opacity="1" /><path clip-path="url(#clip740)" d="M513.383 126.21 L513.383 168.479 L503.568 168.479 L503.568 165.168 L509.1 165.168 L509.1 129.52 L503.568 129.52 L503.568 126.21 L513.383 126.21 Z" fill="#000000" fill-rule="nonzero" fill-opacity="1" /><polyline clip-path="url(#clip740)" style="stroke:#e26f46; stroke-linecap:round; stroke-linejoin:round; stroke-width:4; stroke-opacity:1; fill:none" points="253.409,196.789 399.875,196.789 "/>
<path clip-path="url(#clip740)" d="M424.286 203.837 L424.286 188.143 L428.545 188.143 L428.545 203.675 Q428.545 207.356 429.98 209.208 Q431.416 211.036 434.286 211.036 Q437.735 211.036 439.726 208.837 Q441.74 206.638 441.74 202.842 L441.74 188.143 L445.999 188.143 L445.999 214.069 L441.74 214.069 L441.74 210.087 Q440.189 212.448 438.129 213.606 Q436.092 214.74 433.383 214.74 Q428.916 214.74 426.601 211.962 Q424.286 209.184 424.286 203.837 M435.004 187.518 L435.004 187.518 Z" fill="#000000" fill-rule="nonzero" fill-opacity="1" /><path clip-path="url(#clip740)" d="M454.378 178.05 L464.193 178.05 L464.193 181.36 L458.638 181.36 L458.638 217.008 L464.193 217.008 L464.193 220.319 L454.378 220.319 L454.378 178.05 Z" fill="#000000" fill-rule="nonzero" fill-opacity="1" /><path clip-path="url(#clip740)" d="M477.897 210.133 L494.216 210.133 L494.216 214.069 L472.272 214.069 L472.272 210.133 Q474.934 207.379 479.517 202.749 Q484.124 198.096 485.304 196.754 Q487.55 194.231 488.429 192.495 Q489.332 190.735 489.332 189.046 Q489.332 186.291 487.388 184.555 Q485.466 182.819 482.364 182.819 Q480.165 182.819 477.712 183.583 Q475.281 184.347 472.503 185.897 L472.503 181.175 Q475.327 180.041 477.781 179.462 Q480.235 178.884 482.272 178.884 Q487.642 178.884 490.837 181.569 Q494.031 184.254 494.031 188.745 Q494.031 190.874 493.221 192.796 Q492.434 194.694 490.327 197.286 Q489.749 197.958 486.647 201.175 Q483.545 204.37 477.897 210.133 Z" fill="#000000" fill-rule="nonzero" fill-opacity="1" /><path clip-path="url(#clip740)" d="M513.383 178.05 L513.383 220.319 L503.568 220.319 L503.568 217.008 L509.1 217.008 L509.1 181.36 L503.568 181.36 L503.568 178.05 L513.383 178.05 Z" fill="#000000" fill-rule="nonzero" fill-opacity="1" /><polyline clip-path="url(#clip740)" style="stroke:#3da44d; stroke-linecap:round; stroke-linejoin:round; stroke-width:4; stroke-opacity:1; fill:none" points="253.409,248.629 399.875,248.629 "/>
<path clip-path="url(#clip740)" d="M424.286 255.677 L424.286 239.983 L428.545 239.983 L428.545 255.515 Q428.545 259.196 429.98 261.048 Q431.416 262.876 434.286 262.876 Q437.735 262.876 439.726 260.677 Q441.74 258.478 441.74 254.682 L441.74 239.983 L445.999 239.983 L445.999 265.909 L441.74 265.909 L441.74 261.927 Q440.189 264.288 438.129 265.446 Q436.092 266.58 433.383 266.58 Q428.916 266.58 426.601 263.802 Q424.286 261.024 424.286 255.677 M435.004 239.358 L435.004 239.358 Z" fill="#000000" fill-rule="nonzero" fill-opacity="1" /><path clip-path="url(#clip740)" d="M454.378 229.89 L464.193 229.89 L464.193 233.2 L458.638 233.2 L458.638 268.848 L464.193 268.848 L464.193 272.159 L454.378 272.159 L454.378 229.89 Z" fill="#000000" fill-rule="nonzero" fill-opacity="1" /><path clip-path="url(#clip740)" d="M474.679 261.973 L482.318 261.973 L482.318 235.608 L474.008 237.275 L474.008 233.015 L482.272 231.349 L486.948 231.349 L486.948 261.973 L494.587 261.973 L494.587 265.909 L474.679 265.909 L474.679 261.973 Z" fill="#000000" fill-rule="nonzero" fill-opacity="1" /><path clip-path="url(#clip740)" d="M513.383 229.89 L513.383 272.159 L503.568 272.159 L503.568 268.848 L509.1 268.848 L509.1 233.2 L503.568 233.2 L503.568 229.89 L513.383 229.89 Z" fill="#000000" fill-rule="nonzero" fill-opacity="1" /><polyline clip-path="url(#clip740)" style="stroke:#c271d2; stroke-linecap:round; stroke-linejoin:round; stroke-width:4; stroke-opacity:1; fill:none" points="253.409,300.469 399.875,300.469 "/>
<path clip-path="url(#clip740)" d="M424.286 307.517 L424.286 291.823 L428.545 291.823 L428.545 307.355 Q428.545 311.036 429.98 312.888 Q431.416 314.716 434.286 314.716 Q437.735 314.716 439.726 312.517 Q441.74 310.318 441.74 306.522 L441.74 291.823 L445.999 291.823 L445.999 317.749 L441.74 317.749 L441.74 313.767 Q440.189 316.128 438.129 317.286 Q436.092 318.42 433.383 318.42 Q428.916 318.42 426.601 315.642 Q424.286 312.864 424.286 307.517 M435.004 291.198 L435.004 291.198 Z" fill="#000000" fill-rule="nonzero" fill-opacity="1" /><path clip-path="url(#clip740)" d="M454.378 281.73 L464.193 281.73 L464.193 285.04 L458.638 285.04 L458.638 320.688 L464.193 320.688 L464.193 323.999 L454.378 323.999 L454.378 281.73 Z" fill="#000000" fill-rule="nonzero" fill-opacity="1" /><path clip-path="url(#clip740)" d="M477.897 313.813 L494.216 313.813 L494.216 317.749 L472.272 317.749 L472.272 313.813 Q474.934 311.059 479.517 306.429 Q484.124 301.776 485.304 300.434 Q487.55 297.911 488.429 296.175 Q489.332 294.415 489.332 292.726 Q489.332 289.971 487.388 288.235 Q485.466 286.499 482.364 286.499 Q480.165 286.499 477.712 287.263 Q475.281 288.027 472.503 289.577 L472.503 284.855 Q475.327 283.721 477.781 283.142 Q480.235 282.564 482.272 282.564 Q487.642 282.564 490.837 285.249 Q494.031 287.934 494.031 292.425 Q494.031 294.554 493.221 296.476 Q492.434 298.374 490.327 300.966 Q489.749 301.638 486.647 304.855 Q483.545 308.05 477.897 313.813 Z" fill="#000000" fill-rule="nonzero" fill-opacity="1" /><path clip-path="url(#clip740)" d="M513.383 281.73 L513.383 323.999 L503.568 323.999 L503.568 320.688 L509.1 320.688 L509.1 285.04 L503.568 285.04 L503.568 281.73 L513.383 281.73 Z" fill="#000000" fill-rule="nonzero" fill-opacity="1" /></svg>
