<?xml version="1.0" encoding="utf-8"?>
<svg xmlns="http://www.w3.org/2000/svg" xmlns:xlink="http://www.w3.org/1999/xlink" width="600" height="400" viewBox="0 0 2400 1600">
<defs>
  <clipPath id="clip020">
    <rect x="0" y="0" width="2400" height="1600"/>
  </clipPath>
</defs>
<path clip-path="url(#clip020)" d="M0 1600 L2400 1600 L2400 0 L0 0  Z" fill="#ffffff" fill-rule="evenodd" fill-opacity="1"/>
<defs>
  <clipPath id="clip021">
    <rect x="480" y="0" width="1681" height="1600"/>
  </clipPath>
</defs>
<path clip-path="url(#clip020)" d="M212.459 1423.18 L2352.76 1423.18 L2352.76 47.2441 L212.459 47.2441  Z" fill="#ffffff" fill-rule="evenodd" fill-opacity="1"/>
<defs>
  <clipPath id="clip022">
    <rect x="212" y="47" width="2141" height="1377"/>
  </clipPath>
</defs>
<polyline clip-path="url(#clip022)" style="stroke:#000000; stroke-linecap:round; stroke-linejoin:round; stroke-width:2; stroke-opacity:0.1; fill:none" points="273.033,1423.18 273.033,47.2441 "/>
<polyline clip-path="url(#clip022)" style="stroke:#000000; stroke-linecap:round; stroke-linejoin:round; stroke-width:2; stroke-opacity:0.1; fill:none" points="676.863,1423.18 676.863,47.2441 "/>
<polyline clip-path="url(#clip022)" style="stroke:#000000; stroke-linecap:round; stroke-linejoin:round; stroke-width:2; stroke-opacity:0.1; fill:none" points="1080.69,1423.18 1080.69,47.2441 "/>
<polyline clip-path="url(#clip022)" style="stroke:#000000; stroke-linecap:round; stroke-linejoin:round; stroke-width:2; stroke-opacity:0.1; fill:none" points="1484.52,1423.18 1484.52,47.2441 "/>
<polyline clip-path="url(#clip022)" style="stroke:#000000; stroke-linecap:round; stroke-linejoin:round; stroke-width:2; stroke-opacity:0.1; fill:none" points="1888.35,1423.18 1888.35,47.2441 "/>
<polyline clip-path="url(#clip022)" style="stroke:#000000; stroke-linecap:round; stroke-linejoin:round; stroke-width:2; stroke-opacity:0.1; fill:none" points="2292.18,1423.18 2292.18,47.2441 "/>
<polyline clip-path="url(#clip022)" style="stroke:#000000; stroke-linecap:round; stroke-linejoin:round; stroke-width:2; stroke-opacity:0.1; fill:none" points="212.459,1293.17 2352.76,1293.17 "/>
<polyline clip-path="url(#clip022)" style="stroke:#000000; stroke-linecap:round; stroke-linejoin:round; stroke-width:2; stroke-opacity:0.1; fill:none" points="212.459,986.917 2352.76,986.917 "/>
<polyline clip-path="url(#clip022)" style="stroke:#000000; stroke-linecap:round; stroke-linejoin:round; stroke-width:2; stroke-opacity:0.1; fill:none" points="212.459,680.661 2352.76,680.661 "/>
<polyline clip-path="url(#clip022)" style="stroke:#000000; stroke-linecap:round; stroke-linejoin:round; stroke-width:2; stroke-opacity:0.1; fill:none" points="212.459,374.406 2352.76,374.406 "/>
<polyline clip-path="url(#clip022)" style="stroke:#000000; stroke-linecap:round; stroke-linejoin:round; stroke-width:2; stroke-opacity:0.1; fill:none" points="212.459,68.1503 2352.76,68.1503 "/>
<polyline clip-path="url(#clip020)" style="stroke:#000000; stroke-linecap:round; stroke-linejoin:round; stroke-width:4; stroke-opacity:1; fill:none" points="212.459,1423.18 2352.76,1423.18 "/>
<polyline clip-path="url(#clip020)" style="stroke:#000000; stroke-linecap:round; stroke-linejoin:round; stroke-width:4; stroke-opacity:1; fill:none" points="273.033,1423.18 273.033,1404.28 "/>
<polyline clip-path="url(#clip020)" style="stroke:#000000; stroke-linecap:round; stroke-linejoin:round; stroke-width:4; stroke-opacity:1; fill:none" points="676.863,1423.18 676.863,1404.28 "/>
<polyline clip-path="url(#clip020)" style="stroke:#000000; stroke-linecap:round; stroke-linejoin:round; stroke-width:4; stroke-opacity:1; fill:none" points="1080.69,1423.18 1080.69,1404.28 "/>
<polyline clip-path="url(#clip020)" style="stroke:#000000; stroke-linecap:round; stroke-linejoin:round; stroke-width:4; stroke-opacity:1; fill:none" points="1484.52,1423.18 1484.52,1404.28 "/>
<polyline clip-path="url(#clip020)" style="stroke:#000000; stroke-linecap:round; stroke-linejoin:round; stroke-width:4; stroke-opacity:1; fill:none" points="1888.35,1423.18 1888.35,1404.28 "/>
<polyline clip-path="url(#clip020)" style="stroke:#000000; stroke-linecap:round; stroke-linejoin:round; stroke-width:4; stroke-opacity:1; fill:none" points="2292.18,1423.18 2292.18,1404.28 "/>
<path clip-path="url(#clip020)" d="M273.033 1454.1 Q269.422 1454.1 267.594 1457.66 Q265.788 1461.2 265.788 1468.33 Q265.788 1475.44 267.594 1479.01 Q269.422 1482.55 273.033 1482.55 Q276.668 1482.55 278.473 1479.01 Q280.302 1475.44 280.302 1468.33 Q280.302 1461.2 278.473 1457.66 Q276.668 1454.1 273.033 1454.1 M273.033 1450.39 Q278.843 1450.39 281.899 1455 Q284.978 1459.58 284.978 1468.33 Q284.978 1477.06 281.899 1481.67 Q278.843 1486.25 273.033 1486.25 Q267.223 1486.25 264.145 1481.67 Q261.089 1477.06 261.089 1468.33 Q261.089 1459.58 264.145 1455 Q267.223 1450.39 273.033 1450.39 Z" fill="#000000" fill-rule="nonzero" fill-opacity="1" /><path clip-path="url(#clip020)" d="M667.245 1481.64 L674.884 1481.64 L674.884 1455.28 L666.574 1456.95 L666.574 1452.69 L674.838 1451.02 L679.513 1451.02 L679.513 1481.64 L687.152 1481.64 L687.152 1485.58 L667.245 1485.58 L667.245 1481.64 Z" fill="#000000" fill-rule="nonzero" fill-opacity="1" /><path clip-path="url(#clip020)" d="M1075.35 1481.64 L1091.66 1481.64 L1091.66 1485.58 L1069.72 1485.58 L1069.72 1481.64 Q1072.38 1478.89 1076.97 1474.26 Q1081.57 1469.61 1082.75 1468.27 Q1085 1465.74 1085.88 1464.01 Q1086.78 1462.25 1086.78 1460.56 Q1086.78 1457.8 1084.84 1456.07 Q1082.91 1454.33 1079.81 1454.33 Q1077.61 1454.33 1075.16 1455.09 Q1072.73 1455.86 1069.95 1457.41 L1069.95 1452.69 Q1072.78 1451.55 1075.23 1450.97 Q1077.68 1450.39 1079.72 1450.39 Q1085.09 1450.39 1088.29 1453.08 Q1091.48 1455.77 1091.48 1460.26 Q1091.48 1462.39 1090.67 1464.31 Q1089.88 1466.2 1087.78 1468.8 Q1087.2 1469.47 1084.1 1472.69 Q1080.99 1475.88 1075.35 1481.64 Z" fill="#000000" fill-rule="nonzero" fill-opacity="1" /><path clip-path="url(#clip020)" d="M1488.77 1466.95 Q1492.13 1467.66 1494 1469.93 Q1495.9 1472.2 1495.9 1475.53 Q1495.9 1480.65 1492.38 1483.45 Q1488.86 1486.25 1482.38 1486.25 Q1480.21 1486.25 1477.89 1485.81 Q1475.6 1485.39 1473.14 1484.54 L1473.14 1480.02 Q1475.09 1481.16 1477.4 1481.74 Q1479.72 1482.32 1482.24 1482.32 Q1486.64 1482.32 1488.93 1480.58 Q1491.25 1478.84 1491.25 1475.53 Q1491.25 1472.48 1489.09 1470.77 Q1486.96 1469.03 1483.14 1469.03 L1479.12 1469.03 L1479.12 1465.19 L1483.33 1465.19 Q1486.78 1465.19 1488.61 1463.82 Q1490.44 1462.43 1490.44 1459.84 Q1490.44 1457.18 1488.54 1455.77 Q1486.66 1454.33 1483.14 1454.33 Q1481.22 1454.33 1479.02 1454.75 Q1476.83 1455.16 1474.19 1456.04 L1474.19 1451.88 Q1476.85 1451.14 1479.16 1450.77 Q1481.5 1450.39 1483.56 1450.39 Q1488.89 1450.39 1491.99 1452.83 Q1495.09 1455.23 1495.09 1459.35 Q1495.09 1462.22 1493.45 1464.21 Q1491.8 1466.18 1488.77 1466.95 Z" fill="#000000" fill-rule="nonzero" fill-opacity="1" /><path clip-path="url(#clip020)" d="M1891.36 1455.09 L1879.56 1473.54 L1891.36 1473.54 L1891.36 1455.09 M1890.13 1451.02 L1896.01 1451.02 L1896.01 1473.54 L1900.94 1473.54 L1900.94 1477.43 L1896.01 1477.43 L1896.01 1485.58 L1891.36 1485.58 L1891.36 1477.43 L1875.76 1477.43 L1875.76 1472.92 L1890.13 1451.02 Z" fill="#000000" fill-rule="nonzero" fill-opacity="1" /><path clip-path="url(#clip020)" d="M2282.46 1451.02 L2300.82 1451.02 L2300.82 1454.96 L2286.74 1454.96 L2286.74 1463.43 Q2287.76 1463.08 2288.78 1462.92 Q2289.8 1462.73 2290.82 1462.73 Q2296.6 1462.73 2299.98 1465.9 Q2303.36 1469.08 2303.36 1474.49 Q2303.36 1480.07 2299.89 1483.17 Q2296.42 1486.25 2290.1 1486.25 Q2287.92 1486.25 2285.65 1485.88 Q2283.41 1485.51 2281 1484.77 L2281 1480.07 Q2283.08 1481.2 2285.31 1481.76 Q2287.53 1482.32 2290.01 1482.32 Q2294.01 1482.32 2296.35 1480.21 Q2298.69 1478.1 2298.69 1474.49 Q2298.69 1470.88 2296.35 1468.77 Q2294.01 1466.67 2290.01 1466.67 Q2288.13 1466.67 2286.26 1467.08 Q2284.4 1467.5 2282.46 1468.38 L2282.46 1451.02 Z" fill="#000000" fill-rule="nonzero" fill-opacity="1" /><path clip-path="url(#clip020)" d="M1281.67 1522.27 L1281.67 1532.4 L1293.73 1532.4 L1293.73 1536.95 L1281.67 1536.95 L1281.67 1556.3 Q1281.67 1560.66 1282.85 1561.9 Q1284.06 1563.14 1287.72 1563.14 L1293.73 1563.14 L1293.73 1568.04 L1287.72 1568.04 Q1280.94 1568.04 1278.36 1565.53 Q1275.78 1562.98 1275.78 1556.3 L1275.78 1536.95 L1271.48 1536.95 L1271.48 1532.4 L1275.78 1532.4 L1275.78 1522.27 L1281.67 1522.27 Z" fill="#000000" fill-rule="nonzero" fill-opacity="1" /><polyline clip-path="url(#clip020)" style="stroke:#000000; stroke-linecap:round; stroke-linejoin:round; stroke-width:4; stroke-opacity:1; fill:none" points="212.459,1423.18 212.459,47.2441 "/>
<polyline clip-path="url(#clip020)" style="stroke:#000000; stroke-linecap:round; stroke-linejoin:round; stroke-width:4; stroke-opacity:1; fill:none" points="212.459,1293.17 231.357,1293.17 "/>
<polyline clip-path="url(#clip020)" style="stroke:#000000; stroke-linecap:round; stroke-linejoin:round; stroke-width:4; stroke-opacity:1; fill:none" points="212.459,986.917 231.357,986.917 "/>
<polyline clip-path="url(#clip020)" style="stroke:#000000; stroke-linecap:round; stroke-linejoin:round; stroke-width:4; stroke-opacity:1; fill:none" points="212.459,680.661 231.357,680.661 "/>
<polyline clip-path="url(#clip020)" style="stroke:#000000; stroke-linecap:round; stroke-linejoin:round; stroke-width:4; stroke-opacity:1; fill:none" points="212.459,374.406 231.357,374.406 "/>
<polyline clip-path="url(#clip020)" style="stroke:#000000; stroke-linecap:round; stroke-linejoin:round; stroke-width:4; stroke-opacity:1; fill:none" points="212.459,68.1503 231.357,68.1503 "/>
<path clip-path="url(#clip020)" d="M114.26 1293.62 L143.936 1293.62 L143.936 1297.56 L114.26 1297.56 L114.26 1293.62 Z" fill="#000000" fill-rule="nonzero" fill-opacity="1" /><path clip-path="url(#clip020)" d="M166.876 1279.97 L155.07 1298.42 L166.876 1298.42 L166.876 1279.97 M165.649 1275.89 L171.528 1275.89 L171.528 1298.42 L176.459 1298.42 L176.459 1302.3 L171.528 1302.3 L171.528 1310.45 L166.876 1310.45 L166.876 1302.3 L151.274 1302.3 L151.274 1297.79 L165.649 1275.89 Z" fill="#000000" fill-rule="nonzero" fill-opacity="1" /><path clip-path="url(#clip020)" d="M116.343 987.368 L146.019 987.368 L146.019 991.303 L116.343 991.303 L116.343 987.368 Z" fill="#000000" fill-rule="nonzero" fill-opacity="1" /><path clip-path="url(#clip020)" d="M160.14 1000.26 L176.459 1000.26 L176.459 1004.2 L154.515 1004.2 L154.515 1000.26 Q157.177 997.507 161.76 992.877 Q166.366 988.225 167.547 986.882 Q169.792 984.359 170.672 982.623 Q171.575 980.864 171.575 979.174 Q171.575 976.419 169.63 974.683 Q167.709 972.947 164.607 972.947 Q162.408 972.947 159.954 973.711 Q157.524 974.475 154.746 976.026 L154.746 971.304 Q157.57 970.169 160.024 969.591 Q162.477 969.012 164.515 969.012 Q169.885 969.012 173.079 971.697 Q176.274 974.382 176.274 978.873 Q176.274 981.003 175.464 982.924 Q174.677 984.822 172.57 987.415 Q171.991 988.086 168.889 991.303 Q165.788 994.498 160.14 1000.26 Z" fill="#000000" fill-rule="nonzero" fill-opacity="1" /><path clip-path="url(#clip020)" d="M164.515 666.46 Q160.903 666.46 159.075 670.025 Q157.269 673.566 157.269 680.696 Q157.269 687.803 159.075 691.367 Q160.903 694.909 164.515 694.909 Q168.149 694.909 169.954 691.367 Q171.783 687.803 171.783 680.696 Q171.783 673.566 169.954 670.025 Q168.149 666.46 164.515 666.46 M164.515 662.756 Q170.325 662.756 173.38 667.363 Q176.459 671.946 176.459 680.696 Q176.459 689.423 173.38 694.029 Q170.325 698.613 164.515 698.613 Q158.704 698.613 155.626 694.029 Q152.57 689.423 152.57 680.696 Q152.57 671.946 155.626 667.363 Q158.704 662.756 164.515 662.756 Z" fill="#000000" fill-rule="nonzero" fill-opacity="1" /><path clip-path="url(#clip020)" d="M160.14 387.751 L176.459 387.751 L176.459 391.686 L154.515 391.686 L154.515 387.751 Q157.177 384.996 161.76 380.366 Q166.366 375.714 167.547 374.371 Q169.792 371.848 170.672 370.112 Q171.575 368.353 171.575 366.663 Q171.575 363.908 169.63 362.172 Q167.709 360.436 164.607 360.436 Q162.408 360.436 159.954 361.2 Q157.524 361.964 154.746 363.515 L154.746 358.793 Q157.57 357.658 160.024 357.08 Q162.477 356.501 164.515 356.501 Q169.885 356.501 173.079 359.186 Q176.274 361.871 176.274 366.362 Q176.274 368.492 175.464 370.413 Q174.677 372.311 172.57 374.904 Q171.991 375.575 168.889 378.792 Q165.788 381.987 160.14 387.751 Z" fill="#000000" fill-rule="nonzero" fill-opacity="1" /><path clip-path="url(#clip020)" d="M166.876 54.9444 L155.07 73.3934 L166.876 73.3934 L166.876 54.9444 M165.649 50.8703 L171.528 50.8703 L171.528 73.3934 L176.459 73.3934 L176.459 77.2822 L171.528 77.2822 L171.528 85.4303 L166.876 85.4303 L166.876 77.2822 L151.274 77.2822 L151.274 72.7684 L165.649 50.8703 Z" fill="#000000" fill-rule="nonzero" fill-opacity="1" /><path clip-path="url(#clip020)" d="M16.4842 827.801 L16.4842 821.34 L45.3526 821.34 Q52.9915 821.34 56.3653 818.571 Q59.7073 815.802 59.7073 809.595 Q59.7073 803.421 56.3653 800.651 Q52.9915 797.882 45.3526 797.882 L16.4842 797.882 L16.4842 791.421 L46.1484 791.421 Q55.4423 791.421 60.1847 796.036 Q64.9272 800.62 64.9272 809.595 Q64.9272 818.603 60.1847 823.218 Q55.4423 827.801 46.1484 827.801 L16.4842 827.801 Z" fill="#000000" fill-rule="nonzero" fill-opacity="1" /><path clip-path="url(#clip020)" d="M14.5426 765.545 Q21.8632 769.81 29.0246 771.878 Q36.186 773.947 43.5384 773.947 Q50.8908 773.947 58.1159 771.878 Q65.3091 769.778 72.5979 765.545 L72.5979 770.637 Q65.1182 775.411 57.8931 777.799 Q50.668 780.154 43.5384 780.154 Q36.4406 780.154 29.2474 777.799 Q22.0542 775.443 14.5426 770.637 L14.5426 765.545 Z" fill="#000000" fill-rule="nonzero" fill-opacity="1" /><path clip-path="url(#clip020)" d="M28.3562 724.549 L45.7028 737.44 L64.0042 723.881 L64.0042 730.788 L49.9996 741.164 L64.0042 751.54 L64.0042 758.447 L45.3526 744.601 L28.3562 757.269 L28.3562 750.362 L41.0558 740.909 L28.3562 731.456 L28.3562 724.549 Z" fill="#000000" fill-rule="nonzero" fill-opacity="1" /><path clip-path="url(#clip020)" d="M55.9197 714.11 L55.9197 707.394 L61.3942 707.394 L71.5793 712.614 L71.5793 716.72 L61.3942 714.11 L55.9197 714.11 Z" fill="#000000" fill-rule="nonzero" fill-opacity="1" /><path clip-path="url(#clip020)" d="M67.3143 680.053 Q73.68 682.536 75.6216 684.891 Q77.5631 687.246 77.5631 691.193 L77.5631 695.872 L72.6615 695.872 L72.6615 692.434 Q72.6615 690.015 71.5157 688.679 Q70.3699 687.342 66.1048 685.719 L63.4312 684.668 L28.3562 699.087 L28.3562 692.88 L56.238 681.74 L28.3562 670.6 L28.3562 664.393 L67.3143 680.053 Z" fill="#000000" fill-rule="nonzero" fill-opacity="1" /><path clip-path="url(#clip020)" d="M14.5426 657.232 L14.5426 652.139 Q22.0542 647.365 29.2474 645.01 Q36.4406 642.623 43.5384 642.623 Q50.668 642.623 57.8931 645.01 Q65.1182 647.365 72.5979 652.139 L72.5979 657.232 Q65.3091 652.999 58.1159 650.93 Q50.8908 648.829 43.5384 648.829 Q36.186 648.829 29.0246 650.93 Q21.8632 652.999 14.5426 657.232 Z" fill="#000000" fill-rule="nonzero" fill-opacity="1" /><polyline clip-path="url(#clip022)" style="stroke:#ff0000; stroke-linecap:round; stroke-linejoin:round; stroke-width:4; stroke-opacity:1; fill:none" points="273.033,1384.24 323.512,1377.57 373.991,1369.36 424.469,1359.21 474.948,1346.75 525.427,1331.66 575.906,1313.81 626.384,1293.49 676.863,1271.42 727.342,1248.77 777.82,1226.86 828.299,1206.8 878.778,1189.3 929.256,1174.56 979.735,1162.48 1030.21,1152.73 1080.69,1144.93 1131.17,1138.7 1181.65,1133.73 1232.13,1129.75 1282.61,1126.55 1333.09,1123.97 1383.56,1121.87 1434.04,1120.16 1484.52,1118.74 1535,1117.56 1585.48,1116.58 1635.96,1115.73 1686.44,1115 1736.92,1114.35 1787.39,1113.76 1837.87,1113.2 1888.35,1112.66 1938.83,1112.1 1989.31,1111.51 2039.79,1110.87 2090.27,1110.14 2140.75,1109.29 2191.22,1108.28 2241.7,1107.06 2292.18,1105.57 "/>
<polyline clip-path="url(#clip022)" style="stroke:#ff0000; stroke-linecap:round; stroke-linejoin:round; stroke-width:4; stroke-opacity:1; fill:none" points="273.033,267.981 323.512,272.746 373.991,278.31 424.469,284.779 474.948,292.216 525.427,300.597 575.906,309.765 626.384,319.4 676.863,329.045 727.342,338.194 777.82,346.414 828.299,353.439 878.778,359.199 929.256,363.776 979.735,367.338 1030.21,370.077 1080.69,372.174 1131.17,373.782 1181.65,375.02 1232.13,375.981 1282.61,376.734 1333.09,377.33 1383.56,377.809 1434.04,378.199 1484.52,378.521 1535,378.792 1585.48,379.026 1635.96,379.233 1686.44,379.422 1736.92,379.6 1787.39,379.774 1837.87,379.951 1888.35,380.136 1938.83,380.335 1989.31,380.556 2039.79,380.805 2090.27,381.091 2140.75,381.423 2191.22,381.811 2241.7,382.269 2292.18,382.811 "/>
<polyline clip-path="url(#clip022)" style="stroke:#000000; stroke-linecap:round; stroke-linejoin:round; stroke-width:4; stroke-opacity:1; fill:none" points="273.033,1349.45 323.512,1330.88 373.991,1310.79 424.469,1289.26 474.948,1266.49 525.427,1242.79 575.906,1218.62 626.384,1194.58 676.863,1171.29 727.342,1149.36 777.82,1129.26 828.299,1111.27 878.778,1095.49 929.256,1081.87 979.735,1070.27 1030.21,1060.48 1080.69,1052.3 1131.17,1045.53 1181.65,1039.97 1232.13,1035.47 1282.61,1031.88 1333.09,1029.1 1383.56,1027.02 1434.04,1025.57 1484.52,1024.71 1535,1024.39 1585.48,1024.6 1635.96,1025.34 1686.44,1026.61 1736.92,1028.46 1787.39,1030.92 1837.87,1034.08 1888.35,1038 1938.83,1042.81 1989.31,1048.64 2039.79,1055.65 2090.27,1064.06 2140.75,1074.1 2191.22,1086.06 2241.7,1100.29 2292.18,1117.2 "/>
<polyline clip-path="url(#clip022)" style="stroke:#000000; stroke-linecap:round; stroke-linejoin:round; stroke-width:4; stroke-opacity:1; fill:none" points="273.033,86.1857 323.512,102.691 373.991,120.549 424.469,139.684 474.948,159.928 525.427,180.994 575.906,202.472 626.384,223.844 676.863,244.543 727.342,264.037 777.82,281.907 828.299,297.898 878.778,311.924 929.256,324.03 979.735,334.345 1030.21,343.045 1080.69,350.315 1131.17,356.337 1181.65,361.276 1232.13,365.278 1282.61,368.465 1333.09,370.942 1383.56,372.79 1434.04,374.074 1484.52,374.842 1535,375.124 1585.48,374.938 1635.96,374.284 1686.44,373.15 1736.92,371.509 1787.39,369.317 1837.87,366.516 1888.35,363.027 1938.83,358.752 1989.31,353.571 2039.79,347.334 2090.27,339.863 2140.75,330.942 2191.22,320.311 2241.7,307.662 2292.18,292.627 "/>
<path clip-path="url(#clip020)" d="M1613.43 1377.32 L2281.41 1377.32 L2281.41 1221.8 L1613.43 1221.8  Z" fill="#ffffff" fill-rule="evenodd" fill-opacity="1"/>
<polyline clip-path="url(#clip020)" style="stroke:#000000; stroke-linecap:round; stroke-linejoin:round; stroke-width:4; stroke-opacity:1; fill:none" points="1613.43,1377.32 2281.41,1377.32 2281.41,1221.8 1613.43,1221.8 1613.43,1377.32 "/>
<polyline clip-path="url(#clip020)" style="stroke:#ff0000; stroke-linecap:round; stroke-linejoin:round; stroke-width:4; stroke-opacity:1; fill:none" points="1637.21,1273.64 1779.89,1273.64 "/>
<path clip-path="url(#clip020)" d="M1803.68 1256.36 L1808.37 1256.36 L1808.37 1277.35 Q1808.37 1282.91 1810.39 1285.36 Q1812.4 1287.79 1816.92 1287.79 Q1821.41 1287.79 1823.42 1285.36 Q1825.43 1282.91 1825.43 1277.35 L1825.43 1256.36 L1830.13 1256.36 L1830.13 1277.93 Q1830.13 1284.69 1826.78 1288.14 Q1823.44 1291.59 1816.92 1291.59 Q1810.37 1291.59 1807.01 1288.14 Q1803.68 1284.69 1803.68 1277.93 L1803.68 1256.36 Z" fill="#000000" fill-rule="nonzero" fill-opacity="1" /><path clip-path="url(#clip020)" d="M1843.58 1260.2 L1843.58 1287.07 L1849.23 1287.07 Q1856.38 1287.07 1859.69 1283.83 Q1863.03 1280.59 1863.03 1273.6 Q1863.03 1266.66 1859.69 1263.44 Q1856.38 1260.2 1849.23 1260.2 L1843.58 1260.2 M1838.91 1256.36 L1848.51 1256.36 Q1858.56 1256.36 1863.26 1260.55 Q1867.96 1264.71 1867.96 1273.6 Q1867.96 1282.54 1863.24 1286.73 Q1858.51 1290.92 1848.51 1290.92 L1838.91 1290.92 L1838.91 1256.36 Z" fill="#000000" fill-rule="nonzero" fill-opacity="1" /><path clip-path="url(#clip020)" d="M1875.41 1256.36 L1897.26 1256.36 L1897.26 1260.29 L1880.09 1260.29 L1880.09 1270.52 L1896.55 1270.52 L1896.55 1274.46 L1880.09 1274.46 L1880.09 1286.98 L1897.68 1286.98 L1897.68 1290.92 L1875.41 1290.92 L1875.41 1256.36 Z" fill="#000000" fill-rule="nonzero" fill-opacity="1" /><path clip-path="url(#clip020)" d="M1931.99 1260.96 L1925.64 1278.16 L1938.35 1278.16 L1931.99 1260.96 M1929.35 1256.36 L1934.65 1256.36 L1947.82 1290.92 L1942.96 1290.92 L1939.81 1282.05 L1924.23 1282.05 L1921.08 1290.92 L1916.15 1290.92 L1929.35 1256.36 Z" fill="#000000" fill-rule="nonzero" fill-opacity="1" /><path clip-path="url(#clip020)" d="M1956.8 1287.03 L1956.8 1300.78 L1952.52 1300.78 L1952.52 1264.99 L1956.8 1264.99 L1956.8 1268.92 Q1958.14 1266.61 1960.18 1265.5 Q1962.24 1264.36 1965.09 1264.36 Q1969.81 1264.36 1972.75 1268.11 Q1975.71 1271.86 1975.71 1277.98 Q1975.71 1284.09 1972.75 1287.84 Q1969.81 1291.59 1965.09 1291.59 Q1962.24 1291.59 1960.18 1290.48 Q1958.14 1289.34 1956.8 1287.03 M1971.29 1277.98 Q1971.29 1273.28 1969.35 1270.61 Q1967.42 1267.93 1964.05 1267.93 Q1960.67 1267.93 1958.72 1270.61 Q1956.8 1273.28 1956.8 1277.98 Q1956.8 1282.67 1958.72 1285.36 Q1960.67 1288.02 1964.05 1288.02 Q1967.42 1288.02 1969.35 1285.36 Q1971.29 1282.67 1971.29 1277.98 Z" fill="#000000" fill-rule="nonzero" fill-opacity="1" /><path clip-path="url(#clip020)" d="M1986.89 1287.03 L1986.89 1300.78 L1982.61 1300.78 L1982.61 1264.99 L1986.89 1264.99 L1986.89 1268.92 Q1988.23 1266.61 1990.27 1265.5 Q1992.33 1264.36 1995.18 1264.36 Q1999.9 1264.36 2002.84 1268.11 Q2005.8 1271.86 2005.8 1277.98 Q2005.8 1284.09 2002.84 1287.84 Q1999.9 1291.59 1995.18 1291.59 Q1992.33 1291.59 1990.27 1290.48 Q1988.23 1289.34 1986.89 1287.03 M2001.38 1277.98 Q2001.38 1273.28 1999.44 1270.61 Q1997.52 1267.93 1994.14 1267.93 Q1990.76 1267.93 1988.81 1270.61 Q1986.89 1273.28 1986.89 1277.98 Q1986.89 1282.67 1988.81 1285.36 Q1990.76 1288.02 1994.14 1288.02 Q1997.52 1288.02 1999.44 1285.36 Q2001.38 1282.67 2001.38 1277.98 Z" fill="#000000" fill-rule="nonzero" fill-opacity="1" /><path clip-path="url(#clip020)" d="M2027.89 1268.97 Q2027.17 1268.55 2026.31 1268.37 Q2025.48 1268.16 2024.46 1268.16 Q2020.85 1268.16 2018.91 1270.52 Q2016.98 1272.86 2016.98 1277.26 L2016.98 1290.92 L2012.7 1290.92 L2012.7 1264.99 L2016.98 1264.99 L2016.98 1269.02 Q2018.33 1266.66 2020.48 1265.52 Q2022.63 1264.36 2025.71 1264.36 Q2026.15 1264.36 2026.68 1264.43 Q2027.22 1264.48 2027.86 1264.6 L2027.89 1268.97 Z" fill="#000000" fill-rule="nonzero" fill-opacity="1" /><path clip-path="url(#clip020)" d="M2041.36 1267.98 Q2037.93 1267.98 2035.94 1270.66 Q2033.95 1273.32 2033.95 1277.98 Q2033.95 1282.63 2035.92 1285.31 Q2037.91 1287.98 2041.36 1287.98 Q2044.76 1287.98 2046.75 1285.29 Q2048.74 1282.61 2048.74 1277.98 Q2048.74 1273.37 2046.75 1270.68 Q2044.76 1267.98 2041.36 1267.98 M2041.36 1264.36 Q2046.92 1264.36 2050.09 1267.98 Q2053.26 1271.59 2053.26 1277.98 Q2053.26 1284.34 2050.09 1287.98 Q2046.92 1291.59 2041.36 1291.59 Q2035.78 1291.59 2032.61 1287.98 Q2029.46 1284.34 2029.46 1277.98 Q2029.46 1271.59 2032.61 1267.98 Q2035.78 1264.36 2041.36 1264.36 Z" fill="#000000" fill-rule="nonzero" fill-opacity="1" /><path clip-path="url(#clip020)" d="M2080.41 1264.99 L2071.04 1277.61 L2080.9 1290.92 L2075.87 1290.92 L2068.33 1280.73 L2060.78 1290.92 L2055.76 1290.92 L2065.83 1277.35 L2056.61 1264.99 L2061.64 1264.99 L2068.51 1274.23 L2075.39 1264.99 L2080.41 1264.99 Z" fill="#000000" fill-rule="nonzero" fill-opacity="1" /><path clip-path="url(#clip020)" d="M2086.91 1264.99 L2091.17 1264.99 L2091.17 1290.92 L2086.91 1290.92 L2086.91 1264.99 M2086.91 1254.9 L2091.17 1254.9 L2091.17 1260.29 L2086.91 1260.29 L2086.91 1254.9 Z" fill="#000000" fill-rule="nonzero" fill-opacity="1" /><path clip-path="url(#clip020)" d="M2120.27 1269.97 Q2121.87 1267.1 2124.09 1265.73 Q2126.31 1264.36 2129.32 1264.36 Q2133.37 1264.36 2135.57 1267.21 Q2137.77 1270.04 2137.77 1275.27 L2137.77 1290.92 L2133.49 1290.92 L2133.49 1275.41 Q2133.49 1271.68 2132.17 1269.87 Q2130.85 1268.07 2128.14 1268.07 Q2124.83 1268.07 2122.91 1270.27 Q2120.99 1272.47 2120.99 1276.26 L2120.99 1290.92 L2116.71 1290.92 L2116.71 1275.41 Q2116.71 1271.66 2115.39 1269.87 Q2114.07 1268.07 2111.31 1268.07 Q2108.05 1268.07 2106.13 1270.29 Q2104.21 1272.49 2104.21 1276.26 L2104.21 1290.92 L2099.92 1290.92 L2099.92 1264.99 L2104.21 1264.99 L2104.21 1269.02 Q2105.66 1266.63 2107.7 1265.5 Q2109.74 1264.36 2112.54 1264.36 Q2115.36 1264.36 2117.33 1265.8 Q2119.32 1267.23 2120.27 1269.97 Z" fill="#000000" fill-rule="nonzero" fill-opacity="1" /><path clip-path="url(#clip020)" d="M2158.05 1277.88 Q2152.89 1277.88 2150.9 1279.06 Q2148.91 1280.24 2148.91 1283.09 Q2148.91 1285.36 2150.39 1286.7 Q2151.89 1288.02 2154.46 1288.02 Q2158 1288.02 2160.13 1285.52 Q2162.28 1283 2162.28 1278.83 L2162.28 1277.88 L2158.05 1277.88 M2166.54 1276.12 L2166.54 1290.92 L2162.28 1290.92 L2162.28 1286.98 Q2160.83 1289.34 2158.65 1290.48 Q2156.47 1291.59 2153.33 1291.59 Q2149.35 1291.59 2146.98 1289.36 Q2144.65 1287.12 2144.65 1283.37 Q2144.65 1278.99 2147.56 1276.77 Q2150.5 1274.55 2156.31 1274.55 L2162.28 1274.55 L2162.28 1274.13 Q2162.28 1271.19 2160.34 1269.6 Q2158.42 1267.98 2154.92 1267.98 Q2152.7 1267.98 2150.6 1268.51 Q2148.49 1269.04 2146.54 1270.11 L2146.54 1266.17 Q2148.88 1265.27 2151.08 1264.83 Q2153.28 1264.36 2155.36 1264.36 Q2160.99 1264.36 2163.77 1267.28 Q2166.54 1270.2 2166.54 1276.12 Z" fill="#000000" fill-rule="nonzero" fill-opacity="1" /><path clip-path="url(#clip020)" d="M2179.53 1257.63 L2179.53 1264.99 L2188.3 1264.99 L2188.3 1268.3 L2179.53 1268.3 L2179.53 1282.37 Q2179.53 1285.54 2180.39 1286.45 Q2181.27 1287.35 2183.93 1287.35 L2188.3 1287.35 L2188.3 1290.92 L2183.93 1290.92 Q2179 1290.92 2177.12 1289.09 Q2175.25 1287.23 2175.25 1282.37 L2175.25 1268.3 L2172.12 1268.3 L2172.12 1264.99 L2175.25 1264.99 L2175.25 1257.63 L2179.53 1257.63 Z" fill="#000000" fill-rule="nonzero" fill-opacity="1" /><path clip-path="url(#clip020)" d="M2193.91 1264.99 L2198.16 1264.99 L2198.16 1290.92 L2193.91 1290.92 L2193.91 1264.99 M2193.91 1254.9 L2198.16 1254.9 L2198.16 1260.29 L2193.91 1260.29 L2193.91 1254.9 Z" fill="#000000" fill-rule="nonzero" fill-opacity="1" /><path clip-path="url(#clip020)" d="M2217.12 1267.98 Q2213.7 1267.98 2211.71 1270.66 Q2209.72 1273.32 2209.72 1277.98 Q2209.72 1282.63 2211.68 1285.31 Q2213.67 1287.98 2217.12 1287.98 Q2220.53 1287.98 2222.52 1285.29 Q2224.51 1282.61 2224.51 1277.98 Q2224.51 1273.37 2222.52 1270.68 Q2220.53 1267.98 2217.12 1267.98 M2217.12 1264.36 Q2222.68 1264.36 2225.85 1267.98 Q2229.02 1271.59 2229.02 1277.98 Q2229.02 1284.34 2225.85 1287.98 Q2222.68 1291.59 2217.12 1291.59 Q2211.54 1291.59 2208.37 1287.98 Q2205.22 1284.34 2205.22 1277.98 Q2205.22 1271.59 2208.37 1267.98 Q2211.54 1264.36 2217.12 1264.36 Z" fill="#000000" fill-rule="nonzero" fill-opacity="1" /><path clip-path="url(#clip020)" d="M2257.63 1275.27 L2257.63 1290.92 L2253.37 1290.92 L2253.37 1275.41 Q2253.37 1271.73 2251.94 1269.9 Q2250.5 1268.07 2247.63 1268.07 Q2244.18 1268.07 2242.19 1270.27 Q2240.2 1272.47 2240.2 1276.26 L2240.2 1290.92 L2235.92 1290.92 L2235.92 1264.99 L2240.2 1264.99 L2240.2 1269.02 Q2241.73 1266.68 2243.79 1265.52 Q2245.87 1264.36 2248.58 1264.36 Q2253.05 1264.36 2255.34 1267.14 Q2257.63 1269.9 2257.63 1275.27 Z" fill="#000000" fill-rule="nonzero" fill-opacity="1" /><polyline clip-path="url(#clip020)" style="stroke:#000000; stroke-linecap:round; stroke-linejoin:round; stroke-width:4; stroke-opacity:1; fill:none" points="1637.21,1325.48 1779.89,1325.48 "/>
<path clip-path="url(#clip020)" d="M1803.68 1308.2 L1832.91 1308.2 L1832.91 1312.13 L1820.64 1312.13 L1820.64 1342.76 L1815.94 1342.76 L1815.94 1312.13 L1803.68 1312.13 L1803.68 1308.2 Z" fill="#000000" fill-rule="nonzero" fill-opacity="1" /><path clip-path="url(#clip020)" d="M1845.3 1320.81 Q1844.58 1320.39 1843.72 1320.21 Q1842.89 1320 1841.87 1320 Q1838.26 1320 1836.31 1322.36 Q1834.39 1324.7 1834.39 1329.1 L1834.39 1342.76 L1830.11 1342.76 L1830.11 1316.83 L1834.39 1316.83 L1834.39 1320.86 Q1835.74 1318.5 1837.89 1317.36 Q1840.04 1316.2 1843.12 1316.2 Q1843.56 1316.2 1844.09 1316.27 Q1844.62 1316.32 1845.27 1316.44 L1845.3 1320.81 Z" fill="#000000" fill-rule="nonzero" fill-opacity="1" /><path clip-path="url(#clip020)" d="M1849.32 1332.52 L1849.32 1316.83 L1853.58 1316.83 L1853.58 1332.36 Q1853.58 1336.04 1855.02 1337.89 Q1856.45 1339.72 1859.32 1339.72 Q1862.77 1339.72 1864.76 1337.52 Q1866.78 1335.32 1866.78 1331.53 L1866.78 1316.83 L1871.04 1316.83 L1871.04 1342.76 L1866.78 1342.76 L1866.78 1338.77 Q1865.23 1341.13 1863.17 1342.29 Q1861.13 1343.43 1858.42 1343.43 Q1853.95 1343.43 1851.64 1340.65 Q1849.32 1337.87 1849.32 1332.52 M1860.04 1316.2 L1860.04 1316.2 Z" fill="#000000" fill-rule="nonzero" fill-opacity="1" /><path clip-path="url(#clip020)" d="M1901.99 1328.73 L1901.99 1330.81 L1882.4 1330.81 Q1882.68 1335.21 1885.04 1337.52 Q1887.43 1339.82 1891.66 1339.82 Q1894.12 1339.82 1896.41 1339.21 Q1898.72 1338.61 1900.99 1337.41 L1900.99 1341.44 Q1898.7 1342.41 1896.29 1342.92 Q1893.88 1343.43 1891.41 1343.43 Q1885.2 1343.43 1881.57 1339.82 Q1877.96 1336.2 1877.96 1330.05 Q1877.96 1323.68 1881.38 1319.95 Q1884.83 1316.2 1890.67 1316.2 Q1895.9 1316.2 1898.93 1319.58 Q1901.99 1322.94 1901.99 1328.73 M1897.73 1327.48 Q1897.68 1323.98 1895.76 1321.9 Q1893.86 1319.82 1890.71 1319.82 Q1887.15 1319.82 1884.99 1321.83 Q1882.87 1323.84 1882.54 1327.5 L1897.73 1327.48 Z" fill="#000000" fill-rule="nonzero" fill-opacity="1" /><path clip-path="url(#clip020)" d="M1924.23 1308.2 L1928.91 1308.2 L1928.91 1342.76 L1924.23 1342.76 L1924.23 1308.2 Z" fill="#000000" fill-rule="nonzero" fill-opacity="1" /><path clip-path="url(#clip020)" d="M1959.58 1327.11 L1959.58 1342.76 L1955.32 1342.76 L1955.32 1327.25 Q1955.32 1323.57 1953.88 1321.74 Q1952.45 1319.91 1949.58 1319.91 Q1946.13 1319.91 1944.14 1322.11 Q1942.15 1324.31 1942.15 1328.1 L1942.15 1342.76 L1937.86 1342.76 L1937.86 1316.83 L1942.15 1316.83 L1942.15 1320.86 Q1943.67 1318.52 1945.74 1317.36 Q1947.82 1316.2 1950.53 1316.2 Q1954.99 1316.2 1957.29 1318.98 Q1959.58 1321.74 1959.58 1327.11 Z" fill="#000000" fill-rule="nonzero" fill-opacity="1" /><path clip-path="url(#clip020)" d="M1972.29 1309.47 L1972.29 1316.83 L1981.06 1316.83 L1981.06 1320.14 L1972.29 1320.14 L1972.29 1334.21 Q1972.29 1337.38 1973.14 1338.29 Q1974.02 1339.19 1976.68 1339.19 L1981.06 1339.19 L1981.06 1342.76 L1976.68 1342.76 Q1971.75 1342.76 1969.88 1340.93 Q1968 1339.07 1968 1334.21 L1968 1320.14 L1964.88 1320.14 L1964.88 1316.83 L1968 1316.83 L1968 1309.47 L1972.29 1309.47 Z" fill="#000000" fill-rule="nonzero" fill-opacity="1" /><path clip-path="url(#clip020)" d="M2008.84 1328.73 L2008.84 1330.81 L1989.25 1330.81 Q1989.53 1335.21 1991.89 1337.52 Q1994.28 1339.82 1998.51 1339.82 Q2000.97 1339.82 2003.26 1339.21 Q2005.57 1338.61 2007.84 1337.41 L2007.84 1341.44 Q2005.55 1342.41 2003.14 1342.92 Q2000.73 1343.43 1998.26 1343.43 Q1992.05 1343.43 1988.42 1339.82 Q1984.81 1336.2 1984.81 1330.05 Q1984.81 1323.68 1988.23 1319.95 Q1991.68 1316.2 1997.52 1316.2 Q2002.75 1316.2 2005.78 1319.58 Q2008.84 1322.94 2008.84 1328.73 M2004.58 1327.48 Q2004.53 1323.98 2002.61 1321.9 Q2000.71 1319.82 1997.56 1319.82 Q1994 1319.82 1991.85 1321.83 Q1989.72 1323.84 1989.39 1327.5 L2004.58 1327.48 Z" fill="#000000" fill-rule="nonzero" fill-opacity="1" /><path clip-path="url(#clip020)" d="M2030.85 1320.81 Q2030.13 1320.39 2029.28 1320.21 Q2028.44 1320 2027.42 1320 Q2023.81 1320 2021.87 1322.36 Q2019.95 1324.7 2019.95 1329.1 L2019.95 1342.76 L2015.67 1342.76 L2015.67 1316.83 L2019.95 1316.83 L2019.95 1320.86 Q2021.29 1318.5 2023.44 1317.36 Q2025.6 1316.2 2028.67 1316.2 Q2029.11 1316.2 2029.65 1316.27 Q2030.18 1316.32 2030.83 1316.44 L2030.85 1320.81 Z" fill="#000000" fill-rule="nonzero" fill-opacity="1" /><path clip-path="url(#clip020)" d="M2047.1 1329.72 Q2041.94 1329.72 2039.95 1330.9 Q2037.96 1332.08 2037.96 1334.93 Q2037.96 1337.2 2039.44 1338.54 Q2040.94 1339.86 2043.51 1339.86 Q2047.05 1339.86 2049.18 1337.36 Q2051.34 1334.84 2051.34 1330.67 L2051.34 1329.72 L2047.1 1329.72 M2055.6 1327.96 L2055.6 1342.76 L2051.34 1342.76 L2051.34 1338.82 Q2049.88 1341.18 2047.7 1342.32 Q2045.53 1343.43 2042.38 1343.43 Q2038.4 1343.43 2036.04 1341.2 Q2033.7 1338.96 2033.7 1335.21 Q2033.7 1330.83 2036.61 1328.61 Q2039.55 1326.39 2045.36 1326.39 L2051.34 1326.39 L2051.34 1325.97 Q2051.34 1323.03 2049.39 1321.44 Q2047.47 1319.82 2043.98 1319.82 Q2041.75 1319.82 2039.65 1320.35 Q2037.54 1320.88 2035.6 1321.95 L2035.6 1318.01 Q2037.93 1317.11 2040.13 1316.67 Q2042.33 1316.2 2044.42 1316.2 Q2050.04 1316.2 2052.82 1319.12 Q2055.6 1322.04 2055.6 1327.96 Z" fill="#000000" fill-rule="nonzero" fill-opacity="1" /><path clip-path="url(#clip020)" d="M2083.03 1317.82 L2083.03 1321.81 Q2081.22 1320.81 2079.39 1320.32 Q2077.59 1319.82 2075.73 1319.82 Q2071.59 1319.82 2069.3 1322.45 Q2067.01 1325.07 2067.01 1329.82 Q2067.01 1334.56 2069.3 1337.2 Q2071.59 1339.82 2075.73 1339.82 Q2077.59 1339.82 2079.39 1339.33 Q2081.22 1338.82 2083.03 1337.82 L2083.03 1341.76 Q2081.24 1342.59 2079.32 1343.01 Q2077.42 1343.43 2075.27 1343.43 Q2069.42 1343.43 2065.97 1339.75 Q2062.52 1336.07 2062.52 1329.82 Q2062.52 1323.47 2065.99 1319.84 Q2069.48 1316.2 2075.55 1316.2 Q2077.52 1316.2 2079.39 1316.62 Q2081.27 1317.01 2083.03 1317.82 Z" fill="#000000" fill-rule="nonzero" fill-opacity="1" /><path clip-path="url(#clip020)" d="M2094.65 1309.47 L2094.65 1316.83 L2103.42 1316.83 L2103.42 1320.14 L2094.65 1320.14 L2094.65 1334.21 Q2094.65 1337.38 2095.5 1338.29 Q2096.38 1339.19 2099.04 1339.19 L2103.42 1339.19 L2103.42 1342.76 L2099.04 1342.76 Q2094.11 1342.76 2092.24 1340.93 Q2090.36 1339.07 2090.36 1334.21 L2090.36 1320.14 L2087.24 1320.14 L2087.24 1316.83 L2090.36 1316.83 L2090.36 1309.47 L2094.65 1309.47 Z" fill="#000000" fill-rule="nonzero" fill-opacity="1" /><path clip-path="url(#clip020)" d="M2109.02 1316.83 L2113.28 1316.83 L2113.28 1342.76 L2109.02 1342.76 L2109.02 1316.83 M2109.02 1306.74 L2113.28 1306.74 L2113.28 1312.13 L2109.02 1312.13 L2109.02 1306.74 Z" fill="#000000" fill-rule="nonzero" fill-opacity="1" /><path clip-path="url(#clip020)" d="M2132.24 1319.82 Q2128.81 1319.82 2126.82 1322.5 Q2124.83 1325.16 2124.83 1329.82 Q2124.83 1334.47 2126.8 1337.15 Q2128.79 1339.82 2132.24 1339.82 Q2135.64 1339.82 2137.63 1337.13 Q2139.62 1334.45 2139.62 1329.82 Q2139.62 1325.21 2137.63 1322.52 Q2135.64 1319.82 2132.24 1319.82 M2132.24 1316.2 Q2137.79 1316.2 2140.97 1319.82 Q2144.14 1323.43 2144.14 1329.82 Q2144.14 1336.18 2140.97 1339.82 Q2137.79 1343.43 2132.24 1343.43 Q2126.66 1343.43 2123.49 1339.82 Q2120.34 1336.18 2120.34 1329.82 Q2120.34 1323.43 2123.49 1319.82 Q2126.66 1316.2 2132.24 1316.2 Z" fill="#000000" fill-rule="nonzero" fill-opacity="1" /><path clip-path="url(#clip020)" d="M2172.75 1327.11 L2172.75 1342.76 L2168.49 1342.76 L2168.49 1327.25 Q2168.49 1323.57 2167.05 1321.74 Q2165.62 1319.91 2162.75 1319.91 Q2159.3 1319.91 2157.31 1322.11 Q2155.32 1324.31 2155.32 1328.1 L2155.32 1342.76 L2151.03 1342.76 L2151.03 1316.83 L2155.32 1316.83 L2155.32 1320.86 Q2156.85 1318.52 2158.91 1317.36 Q2160.99 1316.2 2163.7 1316.2 Q2168.16 1316.2 2170.46 1318.98 Q2172.75 1321.74 2172.75 1327.11 Z" fill="#000000" fill-rule="nonzero" fill-opacity="1" /></svg>
